<?xml version="1.0" encoding="UTF-8" standalone="no"?>
<svg width="1024px" height="170px" viewBox="0 0 1024 170" version="1.1" xmlns="http://www.w3.org/2000/svg" xmlns:xlink="http://www.w3.org/1999/xlink">
    <!-- Generator: Sketch 3.6.1 (26313) - http://www.bohemiancoding.com/sketch -->
    <title>wedding6</title>
    <desc>Created with Sketch.</desc>
    <defs></defs>
    <g id="Webseite" stroke="none" stroke-width="1" fill="none" fill-rule="evenodd">
        <g id="wedding" transform="translate(0.000000, -1489.000000)">
            <path d="M388.345,1526.43 C388.345,1526.73 388.585,1527 388.915,1527 L396.355,1527 C399.925,1527 402.895,1524.57 402.895,1521.21 C402.895,1518.45 400.465,1516.98 398.875,1516.32 C400.285,1515.57 402.355,1513.89 402.355,1511.58 C402.355,1508.43 399.445,1506 395.905,1506 L388.915,1506 C388.585,1506 388.345,1506.27 388.345,1506.57 L388.345,1526.43 Z M393.025,1514.52 L393.025,1510.32 L395.365,1510.32 C396.505,1510.32 397.465,1511.16 397.465,1512.36 C397.465,1513.56 396.505,1514.52 395.365,1514.52 L393.025,1514.52 Z M393.025,1522.71 L393.025,1518.42 L395.455,1518.42 C396.625,1518.42 397.915,1519.32 397.915,1520.52 C397.915,1521.75 396.925,1522.71 395.755,1522.71 L393.025,1522.71 Z M407.365,1511.37 C408.685,1511.37 409.765,1510.32 409.765,1509 C409.765,1507.68 408.685,1506.6 407.365,1506.6 C406.045,1506.6 404.995,1507.68 404.995,1509 C404.995,1510.32 406.045,1511.37 407.365,1511.37 L407.365,1511.37 Z M405.175,1526.43 C405.175,1526.73 405.445,1527 405.745,1527 L409.045,1527 C409.345,1527 409.615,1526.73 409.615,1526.43 L409.615,1515.57 C409.615,1515.24 409.345,1515 409.045,1515 L405.745,1515 C405.445,1515 405.175,1515.24 405.175,1515.57 L405.175,1526.43 Z M413.335,1523.13 C413.335,1525.86 414.655,1527.3 416.935,1527.3 C418.435,1527.3 420.565,1526.64 420.565,1526.64 C420.865,1526.55 421.015,1526.22 420.955,1525.95 L420.295,1523.46 C420.205,1523.13 419.935,1523.01 419.635,1523.07 C419.335,1523.13 418.885,1523.28 418.465,1523.28 C418.105,1523.28 417.655,1523.22 417.655,1522.56 L417.655,1518.81 L419.875,1518.81 C420.205,1518.81 420.445,1518.54 420.445,1518.24 L420.445,1515.57 C420.445,1515.24 420.205,1515 419.875,1515 L417.655,1515 L417.655,1511.67 C417.655,1511.37 417.415,1511.1 417.115,1511.1 L413.905,1511.1 C413.605,1511.1 413.335,1511.37 413.335,1511.67 L413.335,1515 L412.555,1515 C412.255,1515 412.015,1515.24 412.015,1515.57 L412.015,1518.24 C412.015,1518.54 412.255,1518.81 412.555,1518.81 L413.335,1518.81 L413.335,1523.13 Z M423.655,1523.13 C423.655,1525.86 424.975,1527.3 427.255,1527.3 C428.755,1527.3 430.885,1526.64 430.885,1526.64 C431.185,1526.55 431.335,1526.22 431.275,1525.95 L430.615,1523.46 C430.525,1523.13 430.255,1523.01 429.955,1523.07 C429.655,1523.13 429.205,1523.28 428.785,1523.28 C428.425,1523.28 427.975,1523.22 427.975,1522.56 L427.975,1518.81 L430.195,1518.81 C430.525,1518.81 430.765,1518.54 430.765,1518.24 L430.765,1515.57 C430.765,1515.24 430.525,1515 430.195,1515 L427.975,1515 L427.975,1511.67 C427.975,1511.37 427.735,1511.1 427.435,1511.1 L424.225,1511.1 C423.925,1511.1 423.655,1511.37 423.655,1511.67 L423.655,1515 L422.875,1515 C422.575,1515 422.335,1515.24 422.335,1515.57 L422.335,1518.24 C422.335,1518.54 422.575,1518.81 422.875,1518.81 L423.655,1518.81 L423.655,1523.13 Z M432.595,1521 C432.595,1524.45 435.295,1527.3 438.865,1527.3 C440.755,1527.3 442.255,1526.64 443.305,1525.59 C443.575,1525.32 443.515,1524.96 443.335,1524.72 L441.835,1522.92 C441.655,1522.71 441.355,1522.71 441.085,1522.92 C440.605,1523.28 439.735,1523.64 438.985,1523.64 C437.425,1523.64 436.765,1522.47 436.675,1521.66 L443.875,1521.66 C444.145,1521.66 444.415,1521.45 444.445,1521.15 C444.475,1520.94 444.505,1520.55 444.505,1520.34 C444.505,1517.04 441.865,1514.7 438.805,1514.7 C435.265,1514.7 432.595,1517.61 432.595,1521 L432.595,1521 Z M437.065,1519.32 C437.185,1518.54 437.875,1517.91 438.685,1517.91 C439.465,1517.91 440.215,1518.54 440.275,1519.32 L437.065,1519.32 Z M453.295,1526.43 C453.295,1526.73 453.535,1527 453.865,1527 L457.015,1527 C457.315,1527 457.585,1526.73 457.585,1526.43 L457.585,1520.67 C457.585,1519.44 458.485,1518.57 459.685,1518.57 C461.035,1518.57 461.575,1519.62 461.575,1520.82 L461.575,1526.43 C461.575,1526.73 461.815,1527 462.145,1527 L465.025,1527 C465.355,1527 465.595,1526.73 465.595,1526.43 L465.595,1520.61 C465.595,1519.44 466.555,1518.57 467.605,1518.57 C468.985,1518.57 469.615,1519.62 469.615,1520.82 L469.615,1526.43 C469.615,1526.73 469.855,1527 470.185,1527 L473.365,1527 C473.695,1527 473.935,1526.73 473.935,1526.43 L473.935,1521 C473.935,1517.58 472.105,1514.7 468.385,1514.7 C466.345,1514.7 464.935,1515.84 464.245,1516.53 C463.165,1515.33 461.995,1514.7 460.315,1514.7 C458.395,1514.7 457.015,1515.78 456.265,1516.56 L455.755,1515.33 C455.665,1515.15 455.455,1515 455.245,1515 L453.865,1515 C453.535,1515 453.295,1515.24 453.295,1515.57 L453.295,1526.43 Z M475.975,1521 C475.975,1524.45 478.675,1527.3 482.245,1527.3 C484.135,1527.3 485.635,1526.64 486.685,1525.59 C486.955,1525.32 486.895,1524.96 486.715,1524.72 L485.215,1522.92 C485.035,1522.71 484.735,1522.71 484.465,1522.92 C483.985,1523.28 483.115,1523.64 482.365,1523.64 C480.805,1523.64 480.145,1522.47 480.055,1521.66 L487.255,1521.66 C487.525,1521.66 487.795,1521.45 487.825,1521.15 C487.855,1520.94 487.885,1520.55 487.885,1520.34 C487.885,1517.04 485.245,1514.7 482.185,1514.7 C478.645,1514.7 475.975,1517.61 475.975,1521 L475.975,1521 Z M480.445,1519.32 C480.565,1518.54 481.255,1517.91 482.065,1517.91 C482.845,1517.91 483.595,1518.54 483.655,1519.32 L480.445,1519.32 Z M490.045,1526.43 C490.045,1526.73 490.315,1527 490.615,1527 L493.915,1527 C494.215,1527 494.485,1526.73 494.485,1526.43 L494.485,1506.57 C494.485,1506.27 494.215,1506 493.915,1506 L490.615,1506 C490.315,1506 490.045,1506.27 490.045,1506.57 L490.045,1526.43 Z M496.855,1521 C496.855,1524.45 499.405,1527.3 502.795,1527.3 C505.435,1527.3 506.815,1525.41 506.815,1525.41 L507.175,1526.4 C507.295,1526.73 507.505,1527 507.805,1527 L509.215,1527 C509.515,1527 509.785,1526.73 509.785,1526.43 L509.785,1506.57 C509.785,1506.27 509.515,1506 509.215,1506 L505.885,1506 C505.585,1506 505.315,1506.27 505.315,1506.57 L505.315,1515.27 C504.955,1515.06 503.845,1514.7 502.825,1514.7 C499.615,1514.7 496.855,1516.77 496.855,1521 L496.855,1521 Z M500.965,1520.97 C500.965,1519.62 502.015,1518.57 503.395,1518.57 C504.775,1518.57 505.795,1519.62 505.795,1520.97 C505.795,1522.35 504.775,1523.43 503.395,1523.43 C502.015,1523.43 500.965,1522.35 500.965,1520.97 L500.965,1520.97 Z M512.125,1521 C512.125,1524.45 514.825,1527.3 518.395,1527.3 C520.285,1527.3 521.785,1526.64 522.835,1525.59 C523.105,1525.32 523.045,1524.96 522.865,1524.72 L521.365,1522.92 C521.185,1522.71 520.885,1522.71 520.615,1522.92 C520.135,1523.28 519.265,1523.64 518.515,1523.64 C516.955,1523.64 516.295,1522.47 516.205,1521.66 L523.405,1521.66 C523.675,1521.66 523.945,1521.45 523.975,1521.15 C524.005,1520.94 524.035,1520.55 524.035,1520.34 C524.035,1517.04 521.395,1514.7 518.335,1514.7 C514.795,1514.7 512.125,1517.61 512.125,1521 L512.125,1521 Z M516.595,1519.32 C516.715,1518.54 517.405,1517.91 518.215,1517.91 C518.995,1517.91 519.745,1518.54 519.805,1519.32 L516.595,1519.32 Z M526.675,1523.13 C526.675,1525.86 527.995,1527.3 530.275,1527.3 C531.775,1527.3 533.905,1526.64 533.905,1526.64 C534.205,1526.55 534.355,1526.22 534.295,1525.95 L533.635,1523.46 C533.545,1523.13 533.275,1523.01 532.975,1523.07 C532.675,1523.13 532.225,1523.28 531.805,1523.28 C531.445,1523.28 530.995,1523.22 530.995,1522.56 L530.995,1518.81 L533.215,1518.81 C533.545,1518.81 533.785,1518.54 533.785,1518.24 L533.785,1515.57 C533.785,1515.24 533.545,1515 533.215,1515 L530.995,1515 L530.995,1511.67 C530.995,1511.37 530.755,1511.1 530.455,1511.1 L527.245,1511.1 C526.945,1511.1 526.675,1511.37 526.675,1511.67 L526.675,1515 L525.895,1515 C525.595,1515 525.355,1515.24 525.355,1515.57 L525.355,1518.24 C525.355,1518.54 525.595,1518.81 525.895,1518.81 L526.675,1518.81 L526.675,1523.13 Z M542.245,1521 C542.245,1524.45 544.945,1527.3 548.515,1527.3 C550.405,1527.3 551.905,1526.64 552.955,1525.59 C553.225,1525.32 553.165,1524.96 552.985,1524.72 L551.485,1522.92 C551.305,1522.71 551.005,1522.71 550.735,1522.92 C550.255,1523.28 549.385,1523.64 548.635,1523.64 C547.075,1523.64 546.415,1522.47 546.325,1521.66 L553.525,1521.66 C553.795,1521.66 554.065,1521.45 554.095,1521.15 C554.125,1520.94 554.155,1520.55 554.155,1520.34 C554.155,1517.04 551.515,1514.7 548.455,1514.7 C544.915,1514.7 542.245,1517.61 542.245,1521 L542.245,1521 Z M546.715,1519.32 C546.835,1518.54 547.525,1517.91 548.335,1517.91 C549.115,1517.91 549.865,1518.54 549.925,1519.32 L546.715,1519.32 Z M556.045,1521 C556.045,1524.42 557.755,1527.3 561.325,1527.3 C563.635,1527.3 564.595,1526.22 565.375,1525.47 L565.825,1526.58 C565.915,1526.79 566.125,1527 566.395,1527 L567.805,1527 C568.105,1527 568.375,1526.73 568.375,1526.43 L568.375,1515.57 C568.375,1515.24 568.105,1515 567.805,1515 L564.745,1515 C564.445,1515 564.115,1515.09 564.115,1515.57 L564.115,1521.3 C564.115,1522.32 563.485,1523.43 562.315,1523.43 C561.085,1523.43 560.395,1522.35 560.395,1521.12 L560.395,1515.57 C560.395,1515.24 560.125,1515 559.825,1515 L556.615,1515 C556.315,1515 556.045,1515.24 556.045,1515.57 L556.045,1521 Z M570.685,1521 C570.685,1524.6 573.715,1527.3 577.135,1527.3 C579.295,1527.3 580.855,1526.46 581.965,1524.78 C582.175,1524.48 582.025,1524.18 581.755,1523.94 L579.955,1522.38 C579.775,1522.23 579.505,1522.29 579.295,1522.5 C578.815,1522.98 578.305,1523.43 577.255,1523.43 C575.935,1523.43 574.915,1522.35 574.915,1521 C574.915,1519.68 575.995,1518.57 577.315,1518.57 C578.005,1518.57 578.635,1518.9 579.055,1519.35 C579.205,1519.5 579.565,1519.56 579.715,1519.41 L581.515,1517.7 C581.785,1517.46 581.875,1517.13 581.665,1516.86 C580.525,1515.48 579.055,1514.7 577.165,1514.7 C573.745,1514.7 570.685,1517.46 570.685,1521 L570.685,1521 Z M584.215,1526.43 C584.215,1526.73 584.485,1527 584.785,1527 L588.025,1527 C588.535,1527 588.685,1526.82 588.685,1526.43 L588.685,1520.94 C588.685,1519.11 589.735,1518.57 590.695,1518.57 C592.015,1518.57 592.885,1519.62 592.885,1520.94 L592.885,1526.43 C592.885,1526.73 593.125,1527 593.455,1527 L596.635,1527 C596.935,1527 597.205,1526.73 597.205,1526.43 L597.205,1521 C597.205,1517.67 595.255,1514.7 591.475,1514.7 C590.575,1514.7 589.585,1514.94 588.685,1515.39 L588.685,1506.57 C588.685,1506.27 588.415,1506 588.115,1506 L584.785,1506 C584.485,1506 584.215,1506.27 584.215,1506.57 L584.215,1526.43 Z M606.745,1526.43 C606.745,1526.73 607.015,1527 607.315,1527 L608.725,1527 C609.025,1527 609.235,1526.73 609.355,1526.4 L609.715,1525.41 C609.715,1525.41 611.095,1527.3 613.735,1527.3 C617.125,1527.3 619.675,1524.45 619.675,1521 C619.675,1516.77 616.915,1514.7 613.705,1514.7 C612.685,1514.7 611.575,1515.06 611.215,1515.27 L611.215,1506.57 C611.215,1506.27 610.945,1506 610.645,1506 L607.315,1506 C607.015,1506 606.745,1506.27 606.745,1506.57 L606.745,1526.43 Z M610.735,1520.97 C610.735,1519.62 611.755,1518.57 613.135,1518.57 C614.515,1518.57 615.565,1519.62 615.565,1520.97 C615.565,1522.35 614.515,1523.43 613.135,1523.43 C611.755,1523.43 610.735,1522.35 610.735,1520.97 L610.735,1520.97 Z M624.235,1511.37 C625.555,1511.37 626.635,1510.32 626.635,1509 C626.635,1507.68 625.555,1506.6 624.235,1506.6 C622.915,1506.6 621.865,1507.68 621.865,1509 C621.865,1510.32 622.915,1511.37 624.235,1511.37 L624.235,1511.37 Z M622.045,1526.43 C622.045,1526.73 622.315,1527 622.615,1527 L625.915,1527 C626.215,1527 626.485,1526.73 626.485,1526.43 L626.485,1515.57 C626.485,1515.24 626.215,1515 625.915,1515 L622.615,1515 C622.315,1515 622.045,1515.24 622.045,1515.57 L622.045,1526.43 Z M629.305,1526.31 C629.905,1526.79 631.405,1527.3 633.385,1527.3 C636.775,1527.3 638.455,1525.59 638.455,1523.49 C638.455,1521.09 636.775,1520.13 634.345,1519.29 C633.325,1518.93 632.995,1518.63 632.995,1518.33 C632.995,1518 633.265,1517.91 633.655,1517.91 C634.825,1517.91 636.205,1518.6 636.205,1518.6 C636.445,1518.69 636.745,1518.6 636.835,1518.42 L637.945,1516.38 C638.125,1516.08 637.915,1515.81 637.645,1515.63 C636.985,1515.21 635.545,1514.7 633.655,1514.7 C630.415,1514.7 628.975,1516.32 628.975,1518.33 C628.975,1520.19 629.995,1521.54 632.335,1522.35 C633.865,1522.89 634.045,1523.31 634.045,1523.61 C634.045,1523.97 633.775,1524.15 633.475,1524.15 C632.185,1524.15 630.775,1523.37 630.775,1523.37 C630.535,1523.25 630.235,1523.43 630.145,1523.61 L629.095,1525.68 C628.945,1525.95 629.095,1526.13 629.305,1526.31 L629.305,1526.31 Z M350.71,1560.43 C350.71,1560.73 350.98,1561 351.28,1561 L359.08,1561 C359.41,1561 359.65,1560.73 359.65,1560.43 L359.65,1557.73 C359.65,1557.4 359.41,1557.16 359.08,1557.16 L356.41,1557.16 L356.41,1557.1 L360.19,1549.81 C360.4,1549.39 360.13,1549 359.68,1549 L351.55,1549 C351.25,1549 351.01,1549.24 351.01,1549.57 L351.01,1552.3 C351.01,1552.6 351.25,1552.87 351.55,1552.87 L354.22,1552.87 L354.22,1552.93 L350.71,1560.13 L350.71,1560.43 Z M362.29,1555 C362.29,1558.42 364,1561.3 367.57,1561.3 C369.88,1561.3 370.84,1560.22 371.62,1559.47 L372.07,1560.58 C372.16,1560.79 372.37,1561 372.64,1561 L374.05,1561 C374.35,1561 374.62,1560.73 374.62,1560.43 L374.62,1549.57 C374.62,1549.24 374.35,1549 374.05,1549 L370.99,1549 C370.69,1549 370.36,1549.09 370.36,1549.57 L370.36,1555.3 C370.36,1556.32 369.73,1557.43 368.56,1557.43 C367.33,1557.43 366.64,1556.35 366.64,1555.12 L366.64,1549.57 C366.64,1549.24 366.37,1549 366.07,1549 L362.86,1549 C362.56,1549 362.29,1549.24 362.29,1549.57 L362.29,1555 Z M377.86,1560.43 C377.86,1560.73 378.1,1561 378.43,1561 L381.58,1561 C381.88,1561 382.15,1560.73 382.15,1560.43 L382.15,1554.67 C382.15,1553.44 383.05,1552.57 384.25,1552.57 C385.6,1552.57 386.14,1553.62 386.14,1554.82 L386.14,1560.43 C386.14,1560.73 386.38,1561 386.71,1561 L389.59,1561 C389.92,1561 390.16,1560.73 390.16,1560.43 L390.16,1554.61 C390.16,1553.44 391.12,1552.57 392.17,1552.57 C393.55,1552.57 394.18,1553.62 394.18,1554.82 L394.18,1560.43 C394.18,1560.73 394.42,1561 394.75,1561 L397.93,1561 C398.26,1561 398.5,1560.73 398.5,1560.43 L398.5,1555 C398.5,1551.58 396.67,1548.7 392.95,1548.7 C390.91,1548.7 389.5,1549.84 388.81,1550.53 C387.73,1549.33 386.56,1548.7 384.88,1548.7 C382.96,1548.7 381.58,1549.78 380.83,1550.56 L380.32,1549.33 C380.23,1549.15 380.02,1549 379.81,1549 L378.43,1549 C378.1,1549 377.86,1549.24 377.86,1549.57 L377.86,1560.43 Z M407.35,1558.63 C407.98,1559.44 409.9,1561.3 413.68,1561.3 C417.82,1561.3 420.67,1558.84 420.67,1555.57 C420.67,1552.99 418.45,1551.13 417.04,1550.53 L417.04,1550.44 C418.39,1549.81 420.13,1548.1 420.13,1545.79 C420.13,1542.43 417.13,1540.3 413.65,1540.3 C410.38,1540.3 407.92,1542.94 407.92,1542.94 C407.71,1543.15 407.68,1543.51 407.92,1543.72 L409.75,1545.52 C409.99,1545.73 410.35,1545.73 410.56,1545.49 C411.01,1544.98 411.85,1544.29 413.17,1544.29 C414.46,1544.29 415.57,1545.25 415.57,1546.54 C415.57,1547.83 414.46,1548.85 412.36,1548.85 L410.68,1548.85 C410.38,1548.85 410.11,1549.09 410.11,1549.42 L410.11,1551.91 C410.11,1552.21 410.38,1552.48 410.68,1552.48 L412.36,1552.48 C414.58,1552.48 415.93,1553.59 415.93,1554.91 C415.93,1556.23 414.61,1557.31 413.32,1557.31 C411.88,1557.31 410.02,1555.93 410.02,1555.93 C409.78,1555.75 409.48,1555.78 409.27,1555.99 L407.38,1557.88 C407.2,1558.09 407.17,1558.42 407.35,1558.63 L407.35,1558.63 Z M431.32,1561.3 C436.21,1561.3 439,1557.37 439,1550.8 C439,1544.23 436.21,1540.3 431.32,1540.3 C426.43,1540.3 423.64,1544.23 423.64,1550.8 C423.64,1557.37 426.43,1561.3 431.32,1561.3 L431.32,1561.3 Z M431.32,1556.95 C429.49,1556.95 428.47,1554.76 428.47,1550.8 C428.47,1546.87 429.49,1544.65 431.32,1544.65 C433.15,1544.65 434.17,1546.87 434.17,1550.8 C434.17,1554.76 433.15,1556.95 431.32,1556.95 L431.32,1556.95 Z M441.49,1558.48 C441.49,1560.01 442.78,1561.3 444.31,1561.3 C445.87,1561.3 447.19,1560.01 447.19,1558.48 C447.19,1556.92 445.87,1555.6 444.31,1555.6 C442.78,1555.6 441.49,1556.92 441.49,1558.48 L441.49,1558.48 Z M455.02,1561 L458.32,1561 C458.92,1561 459.25,1560.64 459.4,1560.28 L460.48,1557.88 L468.64,1557.88 L469.72,1560.25 C469.99,1560.82 470.23,1561 470.77,1561 L474.1,1561 C474.55,1561 474.79,1560.61 474.61,1560.22 L465.22,1540.03 C465.13,1539.85 464.92,1539.7 464.71,1539.7 L464.41,1539.7 C464.2,1539.7 463.99,1539.85 463.9,1540.03 L454.51,1560.22 C454.33,1560.61 454.57,1561 455.02,1561 L455.02,1561 Z M462.28,1553.8 L464.53,1548.85 L464.56,1548.85 L466.84,1553.8 L462.28,1553.8 Z M480.4,1560.73 C480.76,1560.94 481.87,1561.3 482.89,1561.3 C486.1,1561.3 488.86,1559.23 488.86,1555 C488.86,1551.55 486.31,1548.7 482.92,1548.7 C480.28,1548.7 478.9,1550.59 478.9,1550.59 L478.54,1549.6 C478.42,1549.27 478.21,1549 477.91,1549 L476.5,1549 C476.2,1549 475.93,1549.27 475.93,1549.57 L475.93,1569.43 C475.93,1569.73 476.2,1570 476.5,1570 L479.83,1570 C480.13,1570 480.4,1569.73 480.4,1569.43 L480.4,1560.73 Z M479.92,1555.03 C479.92,1553.65 480.94,1552.57 482.32,1552.57 C483.7,1552.57 484.75,1553.65 484.75,1555.03 C484.75,1556.38 483.7,1557.43 482.32,1557.43 C480.94,1557.43 479.92,1556.38 479.92,1555.03 L479.92,1555.03 Z M491.23,1560.43 C491.23,1560.73 491.5,1561 491.8,1561 L494.86,1561 C495.34,1561 495.52,1560.79 495.52,1560.43 L495.52,1554.22 C495.52,1553.2 496.21,1552.51 497.11,1552.51 C497.38,1552.51 497.68,1552.6 497.83,1552.66 C498.16,1552.78 498.37,1552.6 498.49,1552.39 L499.96,1549.99 C500.38,1549.3 499.21,1548.7 497.56,1548.7 C496,1548.7 494.89,1549.81 494.29,1550.68 L493.75,1549.36 C493.66,1549.18 493.54,1549 493.21,1549 L491.8,1549 C491.5,1549 491.23,1549.24 491.23,1549.57 L491.23,1560.43 Z M503.77,1545.37 C505.09,1545.37 506.17,1544.32 506.17,1543 C506.17,1541.68 505.09,1540.6 503.77,1540.6 C502.45,1540.6 501.4,1541.68 501.4,1543 C501.4,1544.32 502.45,1545.37 503.77,1545.37 L503.77,1545.37 Z M501.58,1560.43 C501.58,1560.73 501.85,1561 502.15,1561 L505.45,1561 C505.75,1561 506.02,1560.73 506.02,1560.43 L506.02,1549.57 C506.02,1549.24 505.75,1549 505.45,1549 L502.15,1549 C501.85,1549 501.58,1549.24 501.58,1549.57 L501.58,1560.43 Z M509.26,1560.43 C509.26,1560.73 509.53,1561 509.83,1561 L513.13,1561 C513.43,1561 513.7,1560.73 513.7,1560.43 L513.7,1540.57 C513.7,1540.27 513.43,1540 513.13,1540 L509.83,1540 C509.53,1540 509.26,1540.27 509.26,1540.57 L509.26,1560.43 Z M522.64,1560.43 C522.64,1560.73 522.88,1561 523.21,1561 L535.21,1561 C535.51,1561 535.78,1560.73 535.78,1560.43 L535.78,1557.73 C535.78,1557.43 535.51,1557.16 535.21,1557.16 L529.93,1557.16 C531.34,1555.18 533.8,1551.97 534.76,1550.26 C535.48,1548.85 535.93,1547.95 535.93,1546.36 C535.93,1543.03 533.41,1540.3 529.12,1540.3 C525.55,1540.3 523.12,1543.24 523.12,1543.24 C522.91,1543.48 522.94,1543.84 523.15,1544.02 L524.98,1545.88 C525.22,1546.12 525.58,1546.12 525.82,1545.88 C526.39,1545.25 527.5,1544.38 528.73,1544.38 C530.41,1544.38 531.37,1545.4 531.37,1546.54 C531.37,1547.38 530.98,1548.22 530.59,1548.82 C528.82,1551.52 524.38,1557.55 522.64,1559.83 L522.64,1560.43 Z M546.73,1561.3 C551.62,1561.3 554.41,1557.37 554.41,1550.8 C554.41,1544.23 551.62,1540.3 546.73,1540.3 C541.84,1540.3 539.05,1544.23 539.05,1550.8 C539.05,1557.37 541.84,1561.3 546.73,1561.3 L546.73,1561.3 Z M546.73,1556.95 C544.9,1556.95 543.88,1554.76 543.88,1550.8 C543.88,1546.87 544.9,1544.65 546.73,1544.65 C548.56,1544.65 549.58,1546.87 549.58,1550.8 C549.58,1554.76 548.56,1556.95 546.73,1556.95 L546.73,1556.95 Z M560.26,1560.43 C560.26,1560.73 560.5,1561 560.83,1561 L564.16,1561 C564.46,1561 564.7,1560.73 564.7,1560.43 L564.7,1541.17 C564.7,1540.87 564.46,1540.6 564.16,1540.6 L561.4,1540.6 L557.02,1544.02 C556.93,1544.11 556.84,1544.35 556.84,1544.47 L556.84,1546.36 C556.84,1546.66 557.08,1546.93 557.38,1546.93 L560.26,1546.93 L560.26,1560.43 Z M568.42,1553.14 C568.42,1557.82 571,1561.3 575.65,1561.3 C579.4,1561.3 582.52,1558.21 582.52,1554.43 C582.52,1549.99 579.37,1547.92 576.55,1547.92 C575.74,1547.92 574.48,1548.19 573.7,1548.52 C574.33,1545.43 578.32,1544.05 579.73,1543.6 C580.33,1543.42 580.42,1543.09 580.3,1542.73 L579.43,1540.42 C579.28,1540 578.95,1539.79 578.5,1539.94 C575.92,1540.75 568.42,1544.32 568.42,1553.14 L568.42,1553.14 Z M572.71,1554.28 C572.71,1552.69 574,1551.37 575.59,1551.37 C577.18,1551.37 578.47,1552.69 578.47,1554.28 C578.47,1555.84 577.18,1557.16 575.59,1557.16 C574,1557.16 572.71,1555.84 572.71,1554.28 L572.71,1554.28 Z M591.7,1560.43 C591.7,1560.73 591.97,1561 592.27,1561 L593.68,1561 C593.98,1561 594.19,1560.73 594.31,1560.4 L594.67,1559.41 C594.67,1559.41 596.05,1561.3 598.69,1561.3 C602.08,1561.3 604.63,1558.45 604.63,1555 C604.63,1550.77 601.87,1548.7 598.66,1548.7 C597.64,1548.7 596.53,1549.06 596.17,1549.27 L596.17,1540.57 C596.17,1540.27 595.9,1540 595.6,1540 L592.27,1540 C591.97,1540 591.7,1540.27 591.7,1540.57 L591.7,1560.43 Z M595.69,1554.97 C595.69,1553.62 596.71,1552.57 598.09,1552.57 C599.47,1552.57 600.52,1553.62 600.52,1554.97 C600.52,1556.35 599.47,1557.43 598.09,1557.43 C596.71,1557.43 595.69,1556.35 595.69,1554.97 L595.69,1554.97 Z M606.1,1555 C606.1,1558.45 608.8,1561.3 612.37,1561.3 C614.26,1561.3 615.76,1560.64 616.81,1559.59 C617.08,1559.32 617.02,1558.96 616.84,1558.72 L615.34,1556.92 C615.16,1556.71 614.86,1556.71 614.59,1556.92 C614.11,1557.28 613.24,1557.64 612.49,1557.64 C610.93,1557.64 610.27,1556.47 610.18,1555.66 L617.38,1555.66 C617.65,1555.66 617.92,1555.45 617.95,1555.15 C617.98,1554.94 618.01,1554.55 618.01,1554.34 C618.01,1551.04 615.37,1548.7 612.31,1548.7 C608.77,1548.7 606.1,1551.61 606.1,1555 L606.1,1555 Z M610.57,1553.32 C610.69,1552.54 611.38,1551.91 612.19,1551.91 C612.97,1551.91 613.72,1552.54 613.78,1553.32 L610.57,1553.32 Z M622.36,1545.37 C623.68,1545.37 624.76,1544.32 624.76,1543 C624.76,1541.68 623.68,1540.6 622.36,1540.6 C621.04,1540.6 619.99,1541.68 619.99,1543 C619.99,1544.32 621.04,1545.37 622.36,1545.37 L622.36,1545.37 Z M620.17,1560.43 C620.17,1560.73 620.44,1561 620.74,1561 L624.04,1561 C624.34,1561 624.61,1560.73 624.61,1560.43 L624.61,1549.57 C624.61,1549.24 624.34,1549 624.04,1549 L620.74,1549 C620.44,1549 620.17,1549.24 620.17,1549.57 L620.17,1560.43 Z M634.21,1555 C634.21,1558.42 635.92,1561.3 639.49,1561.3 C641.8,1561.3 642.76,1560.22 643.54,1559.47 L643.99,1560.58 C644.08,1560.79 644.29,1561 644.56,1561 L645.97,1561 C646.27,1561 646.54,1560.73 646.54,1560.43 L646.54,1549.57 C646.54,1549.24 646.27,1549 645.97,1549 L642.91,1549 C642.61,1549 642.28,1549.09 642.28,1549.57 L642.28,1555.3 C642.28,1556.32 641.65,1557.43 640.48,1557.43 C639.25,1557.43 638.56,1556.35 638.56,1555.12 L638.56,1549.57 C638.56,1549.24 638.29,1549 637.99,1549 L634.78,1549 C634.48,1549 634.21,1549.24 634.21,1549.57 L634.21,1555 Z M649.78,1560.43 C649.78,1560.73 650.05,1561 650.35,1561 L653.5,1561 C653.92,1561 654.04,1560.7 654.04,1560.43 L654.04,1554.67 C654.04,1553.44 655.12,1552.57 656.32,1552.57 C657.67,1552.57 658.36,1553.62 658.36,1554.82 L658.36,1560.43 C658.36,1560.73 658.6,1561 658.93,1561 L662.14,1561 C662.44,1561 662.71,1560.73 662.71,1560.43 L662.71,1554.97 C662.71,1551.55 660.73,1548.7 657.01,1548.7 C654.82,1548.7 653.44,1549.84 652.78,1550.56 L652.3,1549.36 C652.21,1549.15 651.94,1549 651.76,1549 L650.35,1549 C650.05,1549 649.78,1549.24 649.78,1549.57 L649.78,1560.43 Z M665.2,1560.31 C665.8,1560.79 667.3,1561.3 669.28,1561.3 C672.67,1561.3 674.35,1559.59 674.35,1557.49 C674.35,1555.09 672.67,1554.13 670.24,1553.29 C669.22,1552.93 668.89,1552.63 668.89,1552.33 C668.89,1552 669.16,1551.91 669.55,1551.91 C670.72,1551.91 672.1,1552.6 672.1,1552.6 C672.34,1552.69 672.64,1552.6 672.73,1552.42 L673.84,1550.38 C674.02,1550.08 673.81,1549.81 673.54,1549.63 C672.88,1549.21 671.44,1548.7 669.55,1548.7 C666.31,1548.7 664.87,1550.32 664.87,1552.33 C664.87,1554.19 665.89,1555.54 668.23,1556.35 C669.76,1556.89 669.94,1557.31 669.94,1557.61 C669.94,1557.97 669.67,1558.15 669.37,1558.15 C668.08,1558.15 666.67,1557.37 666.67,1557.37 C666.43,1557.25 666.13,1557.43 666.04,1557.61 L664.99,1559.68 C664.84,1559.95 664.99,1560.13 665.2,1560.31 L665.2,1560.31 Z M432.07,1629.3 C436.96,1629.3 439.75,1625.37 439.75,1618.8 C439.75,1612.23 436.96,1608.3 432.07,1608.3 C427.18,1608.3 424.39,1612.23 424.39,1618.8 C424.39,1625.37 427.18,1629.3 432.07,1629.3 L432.07,1629.3 Z M432.07,1624.95 C430.24,1624.95 429.22,1622.76 429.22,1618.8 C429.22,1614.87 430.24,1612.65 432.07,1612.65 C433.9,1612.65 434.92,1614.87 434.92,1618.8 C434.92,1622.76 433.9,1624.95 432.07,1624.95 L432.07,1624.95 Z M445.6,1628.43 C445.6,1628.73 445.84,1629 446.17,1629 L449.5,1629 C449.8,1629 450.04,1628.73 450.04,1628.43 L450.04,1609.17 C450.04,1608.87 449.8,1608.6 449.5,1608.6 L446.74,1608.6 L442.36,1612.02 C442.27,1612.11 442.18,1612.35 442.18,1612.47 L442.18,1614.36 C442.18,1614.66 442.42,1614.93 442.72,1614.93 L445.6,1614.93 L445.6,1628.43 Z M453.76,1621.14 C453.76,1625.82 456.34,1629.3 460.99,1629.3 C464.74,1629.3 467.86,1626.21 467.86,1622.43 C467.86,1617.99 464.71,1615.92 461.89,1615.92 C461.08,1615.92 459.82,1616.19 459.04,1616.52 C459.67,1613.43 463.66,1612.05 465.07,1611.6 C465.67,1611.42 465.76,1611.09 465.64,1610.73 L464.77,1608.42 C464.62,1608 464.29,1607.79 463.84,1607.94 C461.26,1608.75 453.76,1612.32 453.76,1621.14 L453.76,1621.14 Z M458.05,1622.28 C458.05,1620.69 459.34,1619.37 460.93,1619.37 C462.52,1619.37 463.81,1620.69 463.81,1622.28 C463.81,1623.84 462.52,1625.16 460.93,1625.16 C459.34,1625.16 458.05,1623.84 458.05,1622.28 L458.05,1622.28 Z M469.48,1628.43 C469.48,1628.73 469.72,1629 470.05,1629 L482.05,1629 C482.35,1629 482.62,1628.73 482.62,1628.43 L482.62,1625.73 C482.62,1625.43 482.35,1625.16 482.05,1625.16 L476.77,1625.16 C478.18,1623.18 480.64,1619.97 481.6,1618.26 C482.32,1616.85 482.77,1615.95 482.77,1614.36 C482.77,1611.03 480.25,1608.3 475.96,1608.3 C472.39,1608.3 469.96,1611.24 469.96,1611.24 C469.75,1611.48 469.78,1611.84 469.99,1612.02 L471.82,1613.88 C472.06,1614.12 472.42,1614.12 472.66,1613.88 C473.23,1613.25 474.34,1612.38 475.57,1612.38 C477.25,1612.38 478.21,1613.4 478.21,1614.54 C478.21,1615.38 477.82,1616.22 477.43,1616.82 C475.66,1619.52 471.22,1625.55 469.48,1627.83 L469.48,1628.43 Z M486.16,1623.66 L493.03,1623.66 C493.36,1623.66 493.6,1623.42 493.6,1623.12 L493.6,1620.39 C493.6,1620.06 493.36,1619.82 493.03,1619.82 L486.16,1619.82 C485.83,1619.82 485.59,1620.06 485.59,1620.39 L485.59,1623.12 C485.59,1623.42 485.83,1623.66 486.16,1623.66 L486.16,1623.66 Z M497.23,1626.69 L498.1,1629 C498.25,1629.42 498.58,1629.6 499.03,1629.48 C501.79,1628.67 509.11,1625.1 509.11,1616.28 C509.11,1611.6 506.53,1608.12 501.88,1608.12 C498.13,1608.12 495.01,1611.21 495.01,1614.99 C495.01,1619.43 498.16,1621.5 500.98,1621.5 C501.79,1621.5 503.05,1621.23 503.83,1620.9 C503.2,1623.99 499.21,1625.37 497.8,1625.82 C497.2,1626 497.11,1626.33 497.23,1626.69 L497.23,1626.69 Z M501.94,1618.05 C500.35,1618.05 499.06,1616.73 499.06,1615.14 C499.06,1613.58 500.35,1612.26 501.94,1612.26 C503.53,1612.26 504.82,1613.58 504.82,1615.14 C504.82,1616.73 503.53,1618.05 501.94,1618.05 L501.94,1618.05 Z M511.21,1624.77 L520,1624.77 L520,1628.43 C520,1628.73 520.27,1629 520.57,1629 L523.78,1629 C524.08,1629 524.35,1628.73 524.35,1628.43 L524.32,1624.74 L526.69,1624.74 C527.02,1624.74 527.26,1624.47 527.26,1624.17 L527.26,1621.68 C527.26,1621.38 527.02,1621.14 526.69,1621.14 L524.32,1621.14 L524.29,1608.84 C524.29,1608.51 524.02,1608.27 523.72,1608.27 L521.56,1608.27 C521.29,1608.27 521.2,1608.36 521.11,1608.45 L510.64,1621.02 L510.64,1624.2 C510.64,1624.5 510.88,1624.77 511.21,1624.77 L511.21,1624.77 Z M515.35,1621.05 L520.12,1615.47 L520.12,1621.05 L515.35,1621.05 Z M529.12,1626.63 C529.75,1627.44 531.67,1629.3 535.45,1629.3 C539.59,1629.3 542.44,1626.84 542.44,1623.57 C542.44,1620.99 540.22,1619.13 538.81,1618.53 L538.81,1618.44 C540.16,1617.81 541.9,1616.1 541.9,1613.79 C541.9,1610.43 538.9,1608.3 535.42,1608.3 C532.15,1608.3 529.69,1610.94 529.69,1610.94 C529.48,1611.15 529.45,1611.51 529.69,1611.72 L531.52,1613.52 C531.76,1613.73 532.12,1613.73 532.33,1613.49 C532.78,1612.98 533.62,1612.29 534.94,1612.29 C536.23,1612.29 537.34,1613.25 537.34,1614.54 C537.34,1615.83 536.23,1616.85 534.13,1616.85 L532.45,1616.85 C532.15,1616.85 531.88,1617.09 531.88,1617.42 L531.88,1619.91 C531.88,1620.21 532.15,1620.48 532.45,1620.48 L534.13,1620.48 C536.35,1620.48 537.7,1621.59 537.7,1622.91 C537.7,1624.23 536.38,1625.31 535.09,1625.31 C533.65,1625.31 531.79,1623.93 531.79,1623.93 C531.55,1623.75 531.25,1623.78 531.04,1623.99 L529.15,1625.88 C528.97,1626.09 528.94,1626.42 529.12,1626.63 L529.12,1626.63 Z M544.42,1628.43 C544.42,1628.73 544.66,1629 544.99,1629 L556.99,1629 C557.29,1629 557.56,1628.73 557.56,1628.43 L557.56,1625.73 C557.56,1625.43 557.29,1625.16 556.99,1625.16 L551.71,1625.16 C553.12,1623.18 555.58,1619.97 556.54,1618.26 C557.26,1616.85 557.71,1615.95 557.71,1614.36 C557.71,1611.03 555.19,1608.3 550.9,1608.3 C547.33,1608.3 544.9,1611.24 544.9,1611.24 C544.69,1611.48 544.72,1611.84 544.93,1612.02 L546.76,1613.88 C547,1614.12 547.36,1614.12 547.6,1613.88 C548.17,1613.25 549.28,1612.38 550.51,1612.38 C552.19,1612.38 553.15,1613.4 553.15,1614.54 C553.15,1615.38 552.76,1616.22 552.37,1616.82 C550.6,1619.52 546.16,1625.55 544.42,1627.83 L544.42,1628.43 Z M563.32,1628.43 C563.32,1628.73 563.56,1629 563.89,1629 L567.22,1629 C567.52,1629 567.76,1628.73 567.76,1628.43 L567.76,1609.17 C567.76,1608.87 567.52,1608.6 567.22,1608.6 L564.46,1608.6 L560.08,1612.02 C559.99,1612.11 559.9,1612.35 559.9,1612.47 L559.9,1614.36 C559.9,1614.66 560.14,1614.93 560.44,1614.93 L563.32,1614.93 L563.32,1628.43 Z M573.49,1626.69 L574.36,1629 C574.51,1629.42 574.84,1629.6 575.29,1629.48 C578.05,1628.67 585.37,1625.1 585.37,1616.28 C585.37,1611.6 582.79,1608.12 578.14,1608.12 C574.39,1608.12 571.27,1611.21 571.27,1614.99 C571.27,1619.43 574.42,1621.5 577.24,1621.5 C578.05,1621.5 579.31,1621.23 580.09,1620.9 C579.46,1623.99 575.47,1625.37 574.06,1625.82 C573.46,1626 573.37,1626.33 573.49,1626.69 L573.49,1626.69 Z M578.2,1618.05 C576.61,1618.05 575.32,1616.73 575.32,1615.14 C575.32,1613.58 576.61,1612.26 578.2,1612.26 C579.79,1612.26 581.08,1613.58 581.08,1615.14 C581.08,1616.73 579.79,1618.05 578.2,1618.05 L578.2,1618.05 Z M588.04,1626.81 C588.79,1627.71 590.86,1629.3 593.98,1629.3 C598.18,1629.3 601.39,1626.18 601.39,1622.43 C601.39,1618.5 598.69,1615.59 594.55,1615.59 L592.42,1615.59 L592.42,1612.38 L598.6,1612.38 C598.93,1612.38 599.17,1612.11 599.17,1611.81 L599.17,1609.17 C599.17,1608.87 598.93,1608.6 598.6,1608.6 L588.94,1608.6 C588.61,1608.6 588.37,1608.87 588.37,1609.17 L588.37,1618.47 C588.37,1618.95 588.7,1619.52 589.3,1619.52 L593.92,1619.52 C595.87,1619.52 597.01,1620.81 597.01,1622.43 C597.01,1624.08 595.78,1625.28 594.16,1625.28 C592.72,1625.28 590.59,1623.84 590.59,1623.84 C590.35,1623.69 590.05,1623.75 589.87,1623.93 L587.98,1625.79 C587.62,1626.15 587.65,1626.36 588.04,1626.81 L588.04,1626.81 Z" id="Bitte-meldet-euch-bi" fill="#4A4A4A"></path>
            <g id="Mail" transform="translate(322.000000, 1573.000000)">
                <path d="M369.45,16 C369.45,19.45 372.15,22.3 375.72,22.3 C377.61,22.3 379.11,21.64 380.16,20.59 C380.43,20.32 380.37,19.96 380.19,19.72 L378.69,17.92 C378.51,17.71 378.21,17.71 377.94,17.92 C377.46,18.28 376.59,18.64 375.84,18.64 C374.28,18.64 373.62,17.47 373.53,16.66 L380.73,16.66 C381,16.66 381.27,16.45 381.3,16.15 C381.33,15.94 381.36,15.55 381.36,15.34 C381.36,12.04 378.72,9.7 375.66,9.7 C372.12,9.7 369.45,12.61 369.45,16 L369.45,16 Z" id="Path" fill="#FA4480"></path>
                <path d="M373.92,14.32 C374.04,13.54 374.73,12.91 375.54,12.91 C376.32,12.91 377.07,13.54 377.13,14.32 L373.92,14.32 Z" id="Path" fill="#FFFFFF"></path>
                <path d="M354.18,16 C354.18,19.45 356.73,22.3 360.12,22.3 C362.76,22.3 364.14,20.41 364.14,20.41 L364.5,21.4 C364.62,21.73 364.83,22 365.13,22 L366.54,22 C366.84,22 367.11,21.73 367.11,21.43 L367.11,1.57 C367.11,1.27 366.84,1 366.54,1 L363.21,1 C362.91,1 362.64,1.27 362.64,1.57 L362.64,10.27 C362.28,10.06 361.17,9.7 360.15,9.7 C356.94,9.7 354.18,11.77 354.18,16 L354.18,16 Z" id="Path" fill="#FA4480"></path>
                <path d="M358.29,15.97 C358.29,14.62 359.34,13.57 360.72,13.57 C362.1,13.57 363.12,14.62 363.12,15.97 C363.12,17.35 362.1,18.43 360.72,18.43 C359.34,18.43 358.29,17.35 358.29,15.97 L358.29,15.97 Z" id="Path" fill="#FFFFFF"></path>
                <path d="M346.92,19.48 C346.92,21.01 348.21,22.3 349.74,22.3 C351.3,22.3 352.62,21.01 352.62,19.48 C352.62,17.92 351.3,16.6 349.74,16.6 C348.21,16.6 346.92,17.92 346.92,19.48 L346.92,19.48 Z" id="Path" fill="#FA4480"></path>
                <path d="M338.13,21.43 C338.13,21.73 338.4,22 338.7,22 L341.76,22 C342.24,22 342.42,21.79 342.42,21.43 L342.42,15.22 C342.42,14.2 343.11,13.51 344.01,13.51 C344.28,13.51 344.58,13.6 344.73,13.66 C345.06,13.78 345.27,13.6 345.39,13.39 L346.86,10.99 C347.28,10.3 346.11,9.7 344.46,9.7 C342.9,9.7 341.79,10.81 341.19,11.68 L340.65,10.36 C340.56,10.18 340.44,10 340.11,10 L338.7,10 C338.4,10 338.13,10.24 338.13,10.57 L338.13,21.43 Z" id="Path" fill="#FA4480"></path>
                <path d="M324.06,16 C324.06,19.45 326.76,22.3 330.33,22.3 C332.22,22.3 333.72,21.64 334.77,20.59 C335.04,20.32 334.98,19.96 334.8,19.72 L333.3,17.92 C333.12,17.71 332.82,17.71 332.55,17.92 C332.07,18.28 331.2,18.64 330.45,18.64 C328.89,18.64 328.23,17.47 328.14,16.66 L335.34,16.66 C335.61,16.66 335.88,16.45 335.91,16.15 C335.94,15.94 335.97,15.55 335.97,15.34 C335.97,12.04 333.33,9.7 330.27,9.7 C326.73,9.7 324.06,12.61 324.06,16 L324.06,16 Z" id="Path" fill="#FA4480"></path>
                <path d="M328.53,14.32 C328.65,13.54 329.34,12.91 330.15,12.91 C330.93,12.91 331.68,13.54 331.74,14.32 L328.53,14.32 Z" id="Path" fill="#FFFFFF"></path>
                <path d="M315.12,18.13 C315.12,20.86 316.44,22.3 318.72,22.3 C320.22,22.3 322.35,21.64 322.35,21.64 C322.65,21.55 322.8,21.22 322.74,20.95 L322.08,18.46 C321.99,18.13 321.72,18.01 321.42,18.07 C321.12,18.13 320.67,18.28 320.25,18.28 C319.89,18.28 319.44,18.22 319.44,17.56 L319.44,13.81 L321.66,13.81 C321.99,13.81 322.23,13.54 322.23,13.24 L322.23,10.57 C322.23,10.24 321.99,10 321.66,10 L319.44,10 L319.44,6.67 C319.44,6.37 319.2,6.1 318.9,6.1 L315.69,6.1 C315.39,6.1 315.12,6.37 315.12,6.67 L315.12,10 L314.34,10 C314.04,10 313.8,10.24 313.8,10.57 L313.8,13.24 C313.8,13.54 314.04,13.81 314.34,13.81 L315.12,13.81 L315.12,18.13 Z" id="Path" fill="#FA4480"></path>
                <path d="M304.8,18.13 C304.8,20.86 306.12,22.3 308.4,22.3 C309.9,22.3 312.03,21.64 312.03,21.64 C312.33,21.55 312.48,21.22 312.42,20.95 L311.76,18.46 C311.67,18.13 311.4,18.01 311.1,18.07 C310.8,18.13 310.35,18.28 309.93,18.28 C309.57,18.28 309.12,18.22 309.12,17.56 L309.12,13.81 L311.34,13.81 C311.67,13.81 311.91,13.54 311.91,13.24 L311.91,10.57 C311.91,10.24 311.67,10 311.34,10 L309.12,10 L309.12,6.67 C309.12,6.37 308.88,6.1 308.58,6.1 L305.37,6.1 C305.07,6.1 304.8,6.37 304.8,6.67 L304.8,10 L304.02,10 C303.72,10 303.48,10.24 303.48,10.57 L303.48,13.24 C303.48,13.54 303.72,13.81 304.02,13.81 L304.8,13.81 L304.8,18.13 Z" id="Path" fill="#FA4480"></path>
                <path d="M290.25,16 C290.25,19.45 292.95,22.3 296.52,22.3 C298.41,22.3 299.91,21.64 300.96,20.59 C301.23,20.32 301.17,19.96 300.99,19.72 L299.49,17.92 C299.31,17.71 299.01,17.71 298.74,17.92 C298.26,18.28 297.39,18.64 296.64,18.64 C295.08,18.64 294.42,17.47 294.33,16.66 L301.53,16.66 C301.8,16.66 302.07,16.45 302.1,16.15 C302.13,15.94 302.16,15.55 302.16,15.34 C302.16,12.04 299.52,9.7 296.46,9.7 C292.92,9.7 290.25,12.61 290.25,16 L290.25,16 Z" id="Path" fill="#FA4480"></path>
                <path d="M294.72,14.32 C294.84,13.54 295.53,12.91 296.34,12.91 C297.12,12.91 297.87,13.54 297.93,14.32 L294.72,14.32 Z" id="Path" fill="#FFFFFF"></path>
                <path d="M275.25,21.94 C275.28,22.15 275.58,22.3 275.76,22.3 L275.91,22.3 C276.06,22.3 276.3,22.18 276.39,22.06 L280.2,16.06 L280.23,16.06 L284.1,22.06 C284.16,22.18 284.43,22.3 284.58,22.3 L284.7,22.3 C284.91,22.3 285.18,22.15 285.24,21.94 L289.23,10.75 C289.38,10.36 289.11,10 288.69,10 L285.9,10 C285.57,10 285.42,10.09 285.3,10.36 L283.77,14.47 L283.74,14.47 L280.86,9.94 C280.8,9.82 280.62,9.7 280.41,9.7 L280.11,9.7 C279.84,9.7 279.69,9.85 279.63,9.94 L276.78,14.47 L276.75,14.47 L275.19,10.36 C275.13,10.15 274.83,10 274.65,10 L271.8,10 C271.38,10 271.11,10.36 271.26,10.75 L275.25,21.94 Z" id="Path" fill="#FA4480"></path>
                <path d="M261.03,21.31 C261.63,21.79 263.13,22.3 265.11,22.3 C268.5,22.3 270.18,20.59 270.18,18.49 C270.18,16.09 268.5,15.13 266.07,14.29 C265.05,13.93 264.72,13.63 264.72,13.33 C264.72,13 264.99,12.91 265.38,12.91 C266.55,12.91 267.93,13.6 267.93,13.6 C268.17,13.69 268.47,13.6 268.56,13.42 L269.67,11.38 C269.85,11.08 269.64,10.81 269.37,10.63 C268.71,10.21 267.27,9.7 265.38,9.7 C262.14,9.7 260.7,11.32 260.7,13.33 C260.7,15.19 261.72,16.54 264.06,17.35 C265.59,17.89 265.77,18.31 265.77,18.61 C265.77,18.97 265.5,19.15 265.2,19.15 C263.91,19.15 262.5,18.37 262.5,18.37 C262.26,18.25 261.96,18.43 261.87,18.61 L260.82,20.68 C260.67,20.95 260.82,21.13 261.03,21.31 L261.03,21.31 Z" id="Path" fill="#FA4480"></path>
                <path d="M247.38,16 C247.38,19.45 250.08,22.3 253.65,22.3 C255.54,22.3 257.04,21.64 258.09,20.59 C258.36,20.32 258.3,19.96 258.12,19.72 L256.62,17.92 C256.44,17.71 256.14,17.71 255.87,17.92 C255.39,18.28 254.52,18.64 253.77,18.64 C252.21,18.64 251.55,17.47 251.46,16.66 L258.66,16.66 C258.93,16.66 259.2,16.45 259.23,16.15 C259.26,15.94 259.29,15.55 259.29,15.34 C259.29,12.04 256.65,9.7 253.59,9.7 C250.05,9.7 247.38,12.61 247.38,16 L247.38,16 Z" id="Path" fill="#FA4480"></path>
                <path d="M251.85,14.32 C251.97,13.54 252.66,12.91 253.47,12.91 C254.25,12.91 255,13.54 255.06,14.32 L251.85,14.32 Z" id="Path" fill="#FFFFFF"></path>
                <path d="M238.44,18.13 C238.44,20.86 239.76,22.3 242.04,22.3 C243.54,22.3 245.67,21.64 245.67,21.64 C245.97,21.55 246.12,21.22 246.06,20.95 L245.4,18.46 C245.31,18.13 245.04,18.01 244.74,18.07 C244.44,18.13 243.99,18.28 243.57,18.28 C243.21,18.28 242.76,18.22 242.76,17.56 L242.76,13.81 L244.98,13.81 C245.31,13.81 245.55,13.54 245.55,13.24 L245.55,10.57 C245.55,10.24 245.31,10 244.98,10 L242.76,10 L242.76,6.67 C242.76,6.37 242.52,6.1 242.22,6.1 L239.01,6.1 C238.71,6.1 238.44,6.37 238.44,6.67 L238.44,10 L237.66,10 C237.36,10 237.12,10.24 237.12,10.57 L237.12,13.24 C237.12,13.54 237.36,13.81 237.66,13.81 L238.44,13.81 L238.44,18.13 Z" id="Path" fill="#FA4480"></path>
                <path d="M222.39,16 C222.39,19.42 224.1,22.3 227.67,22.3 C229.98,22.3 230.94,21.22 231.72,20.47 L232.17,21.58 C232.26,21.79 232.47,22 232.74,22 L234.15,22 C234.45,22 234.72,21.73 234.72,21.43 L234.72,10.57 C234.72,10.24 234.45,10 234.15,10 L231.09,10 C230.79,10 230.46,10.09 230.46,10.57 L230.46,16.3 C230.46,17.32 229.83,18.43 228.66,18.43 C227.43,18.43 226.74,17.35 226.74,16.12 L226.74,10.57 C226.74,10.24 226.47,10 226.17,10 L222.96,10 C222.66,10 222.39,10.24 222.39,10.57 L222.39,16 Z" id="Path" fill="#FA4480"></path>
                <path d="M207.42,20.92 C207.42,23.29 209.34,24.13 209.73,24.25 L209.73,24.34 C209.4,24.52 207.9,25.42 207.9,27.22 C207.9,29.11 209.52,31.3 214.17,31.3 C218.91,31.3 220.92,28.96 220.92,26.08 C220.92,23.41 218.58,21.7 215.76,21.7 L212.16,21.7 C211.71,21.7 211.2,21.46 211.2,20.89 C211.2,20.41 211.56,20.08 212.19,20.08 L214.35,20.08 C217.53,20.08 219.54,17.74 219.54,15.55 C219.54,13.57 218.4,12.64 218.4,12.64 L220.14,12.01 C220.32,11.92 220.47,11.71 220.47,11.5 L220.47,10.27 C220.47,9.94 220.23,9.7 219.9,9.7 L214.23,9.7 C211.32,9.7 208.95,12.1 208.95,14.89 C208.95,16.72 209.82,17.62 209.82,17.62 C209.82,17.62 207.42,18.55 207.42,20.92 L207.42,20.92 Z" id="Path" fill="#FA4480"></path>
                <path d="M212.01,26.38 C212.01,25.51 213.09,25.12 214.17,25.12 C215.79,25.12 216.33,25.75 216.33,26.38 C216.33,27.19 215.67,27.79 214.17,27.79 C212.73,27.79 212.01,27.22 212.01,26.38 L212.01,26.38 Z" id="Path" fill="#FFFFFF"></path>
                <path d="M212.76,15.16 C212.76,14.26 213.45,13.6 214.35,13.6 C215.28,13.6 215.94,14.26 215.94,15.16 C215.94,16.06 215.28,16.72 214.35,16.72 C213.45,16.72 212.76,16.06 212.76,15.16 L212.76,15.16 Z" id="Path" fill="#FFFFFF"></path>
                <path d="M198.93,21.43 C198.93,21.73 199.2,22 199.5,22 L202.56,22 C203.04,22 203.22,21.79 203.22,21.43 L203.22,15.22 C203.22,14.2 203.91,13.51 204.81,13.51 C205.08,13.51 205.38,13.6 205.53,13.66 C205.86,13.78 206.07,13.6 206.19,13.39 L207.66,10.99 C208.08,10.3 206.91,9.7 205.26,9.7 C203.7,9.7 202.59,10.81 201.99,11.68 L201.45,10.36 C201.36,10.18 201.24,10 200.91,10 L199.5,10 C199.2,10 198.93,10.24 198.93,10.57 L198.93,21.43 Z" id="Path" fill="#FA4480"></path>
                <path d="M184.86,16 C184.86,19.45 187.56,22.3 191.13,22.3 C193.02,22.3 194.52,21.64 195.57,20.59 C195.84,20.32 195.78,19.96 195.6,19.72 L194.1,17.92 C193.92,17.71 193.62,17.71 193.35,17.92 C192.87,18.28 192,18.64 191.25,18.64 C189.69,18.64 189.03,17.47 188.94,16.66 L196.14,16.66 C196.41,16.66 196.68,16.45 196.71,16.15 C196.74,15.94 196.77,15.55 196.77,15.34 C196.77,12.04 194.13,9.7 191.07,9.7 C187.53,9.7 184.86,12.61 184.86,16 L184.86,16 Z" id="Path" fill="#FA4480"></path>
                <path d="M189.33,14.32 C189.45,13.54 190.14,12.91 190.95,12.91 C191.73,12.91 192.48,13.54 192.54,14.32 L189.33,14.32 Z" id="Path" fill="#FFFFFF"></path>
                <path d="M162.18,21.43 C162.18,21.73 162.42,22 162.75,22 L165.9,22 C166.2,22 166.47,21.73 166.47,21.43 L166.47,15.67 C166.47,14.44 167.37,13.57 168.57,13.57 C169.92,13.57 170.46,14.62 170.46,15.82 L170.46,21.43 C170.46,21.73 170.7,22 171.03,22 L173.91,22 C174.24,22 174.48,21.73 174.48,21.43 L174.48,15.61 C174.48,14.44 175.44,13.57 176.49,13.57 C177.87,13.57 178.5,14.62 178.5,15.82 L178.5,21.43 C178.5,21.73 178.74,22 179.07,22 L182.25,22 C182.58,22 182.82,21.73 182.82,21.43 L182.82,16 C182.82,12.58 180.99,9.7 177.27,9.7 C175.23,9.7 173.82,10.84 173.13,11.53 C172.05,10.33 170.88,9.7 169.2,9.7 C167.28,9.7 165.9,10.78 165.15,11.56 L164.64,10.33 C164.55,10.15 164.34,10 164.13,10 L162.75,10 C162.42,10 162.18,10.24 162.18,10.57 L162.18,21.43 Z" id="Path" fill="#FA4480"></path>
                <path d="M138.6,21.43 C138.6,21.73 138.84,22 139.17,22 L142.32,22 C142.62,22 142.89,21.73 142.89,21.43 L142.89,15.67 C142.89,14.44 143.79,13.57 144.99,13.57 C146.34,13.57 146.88,14.62 146.88,15.82 L146.88,21.43 C146.88,21.73 147.12,22 147.45,22 L150.33,22 C150.66,22 150.9,21.73 150.9,21.43 L150.9,15.61 C150.9,14.44 151.86,13.57 152.91,13.57 C154.29,13.57 154.92,14.62 154.92,15.82 L154.92,21.43 C154.92,21.73 155.16,22 155.49,22 L158.67,22 C159,22 159.24,21.73 159.24,21.43 L159.24,16 C159.24,12.58 157.41,9.7 153.69,9.7 C151.65,9.7 150.24,10.84 149.55,11.53 C148.47,10.33 147.3,9.7 145.62,9.7 C143.7,9.7 142.32,10.78 141.57,11.56 L141.06,10.33 C140.97,10.15 140.76,10 140.55,10 L139.17,10 C138.84,10 138.6,10.24 138.6,10.57 L138.6,21.43 Z" id="Path" fill="#FA4480"></path>
                <path d="M130.92,21.43 C130.92,21.73 131.19,22 131.49,22 L134.79,22 C135.09,22 135.36,21.73 135.36,21.43 L135.36,10.57 C135.36,10.24 135.09,10 134.79,10 L131.49,10 C131.19,10 130.92,10.24 130.92,10.57 L130.92,21.43 Z" id="Path" fill="#FA4480"></path>
                <path d="M133.11,6.37 C134.43,6.37 135.51,5.32 135.51,4 C135.51,2.68 134.43,1.6 133.11,1.6 C131.79,1.6 130.74,2.68 130.74,4 C130.74,5.32 131.79,6.37 133.11,6.37 L133.11,6.37 Z" id="Path" fill="#FA4480"></path>
                <path d="M100.38,15.31 C100.38,21.52 104.52,26.98 110.01,28.81 C110.31,28.93 110.58,28.75 110.7,28.45 L111.6,25.99 C111.69,25.72 111.51,25.42 111.24,25.3 C107.19,23.65 104.34,19.81 104.34,15.31 C104.34,8.65 108.42,4.48 114.75,4.48 C121.02,4.48 124.11,8.41 124.11,13.6 C124.11,15.79 123.36,18.55 121.59,18.55 C120.81,18.55 119.91,18.22 119.91,15.61 L119.91,10.57 C119.91,10.24 119.64,10 119.34,10 L118.11,10 C117.54,10 117.36,10.96 117.09,11.56 C116.37,10.78 115.08,9.7 113.4,9.7 C110.13,9.7 107.76,12.64 107.76,16.03 C107.76,19.27 109.8,22.3 113.28,22.3 C115.2,22.3 116.61,21.22 117.27,19.96 L117.51,19.96 C118.05,21.22 119.04,22.3 121.11,22.3 C126.3,22.3 128.22,17.32 128.22,13.36 C128.22,6.13 123.36,0.7 114.9,0.7 C106.35,0.7 100.38,6.79 100.38,15.31 L100.38,15.31 Z" id="Path" fill="#FA4480"></path>
                <path d="M111.48,15.91 C111.48,14.47 112.29,13.3 113.58,13.3 C114.9,13.3 115.8,14.38 115.8,15.88 C115.8,17.29 114.9,18.46 113.67,18.46 C112.5,18.46 111.48,17.56 111.48,15.91 L111.48,15.91 Z" id="Path" fill="#FFFFFF"></path>
                <path d="M91.38,18.13 C91.38,20.86 92.7,22.3 94.98,22.3 C96.48,22.3 98.61,21.64 98.61,21.64 C98.91,21.55 99.06,21.22 99,20.95 L98.34,18.46 C98.25,18.13 97.98,18.01 97.68,18.07 C97.38,18.13 96.93,18.28 96.51,18.28 C96.15,18.28 95.7,18.22 95.7,17.56 L95.7,13.81 L97.92,13.81 C98.25,13.81 98.49,13.54 98.49,13.24 L98.49,10.57 C98.49,10.24 98.25,10 97.92,10 L95.7,10 L95.7,6.67 C95.7,6.37 95.46,6.1 95.16,6.1 L91.95,6.1 C91.65,6.1 91.38,6.37 91.38,6.67 L91.38,10 L90.6,10 C90.3,10 90.06,10.24 90.06,10.57 L90.06,13.24 C90.06,13.54 90.3,13.81 90.6,13.81 L91.38,13.81 L91.38,18.13 Z" id="Path" fill="#FA4480"></path>
                <path d="M83.22,21.43 C83.22,21.73 83.49,22 83.79,22 L87.09,22 C87.39,22 87.66,21.73 87.66,21.43 L87.66,10.57 C87.66,10.24 87.39,10 87.09,10 L83.79,10 C83.49,10 83.22,10.24 83.22,10.57 L83.22,21.43 Z" id="Path" fill="#FA4480"></path>
                <path d="M85.41,6.37 C86.73,6.37 87.81,5.32 87.81,4 C87.81,2.68 86.73,1.6 85.41,1.6 C84.09,1.6 83.04,2.68 83.04,4 C83.04,5.32 84.09,6.37 85.41,6.37 L85.41,6.37 Z" id="Path" fill="#FA4480"></path>
                <path d="M69.15,16 C69.15,19.45 71.85,22.3 75.42,22.3 C77.31,22.3 78.81,21.64 79.86,20.59 C80.13,20.32 80.07,19.96 79.89,19.72 L78.39,17.92 C78.21,17.71 77.91,17.71 77.64,17.92 C77.16,18.28 76.29,18.64 75.54,18.64 C73.98,18.64 73.32,17.47 73.23,16.66 L80.43,16.66 C80.7,16.66 80.97,16.45 81,16.15 C81.03,15.94 81.06,15.55 81.06,15.34 C81.06,12.04 78.42,9.7 75.36,9.7 C71.82,9.7 69.15,12.61 69.15,16 L69.15,16 Z" id="Path" fill="#FA4480"></path>
                <path d="M73.62,14.32 C73.74,13.54 74.43,12.91 75.24,12.91 C76.02,12.91 76.77,13.54 76.83,14.32 L73.62,14.32 Z" id="Path" fill="#FFFFFF"></path>
                <path d="M58.2,21.43 C58.2,21.73 58.47,22 58.77,22 L66.57,22 C66.9,22 67.14,21.73 67.14,21.43 L67.14,18.73 C67.14,18.4 66.9,18.16 66.57,18.16 L63.9,18.16 L63.9,18.1 L67.68,10.81 C67.89,10.39 67.62,10 67.17,10 L59.04,10 C58.74,10 58.5,10.24 58.5,10.57 L58.5,13.3 C58.5,13.6 58.74,13.87 59.04,13.87 L61.71,13.87 L61.71,13.93 L58.2,21.13 L58.2,21.43 Z" id="Path" fill="#FA4480"></path>
                <path d="M43.08,21.43 C43.08,21.73 43.35,22 43.65,22 L46.89,22 C47.4,22 47.55,21.82 47.55,21.43 L47.55,15.94 C47.55,14.11 48.6,13.57 49.56,13.57 C50.88,13.57 51.75,14.62 51.75,15.94 L51.75,21.43 C51.75,21.73 51.99,22 52.32,22 L55.5,22 C55.8,22 56.07,21.73 56.07,21.43 L56.07,16 C56.07,12.67 54.12,9.7 50.34,9.7 C49.44,9.7 48.45,9.94 47.55,10.39 L47.55,1.57 C47.55,1.27 47.28,1 46.98,1 L43.65,1 C43.35,1 43.08,1.27 43.08,1.57 L43.08,21.43 Z" id="Path" fill="#FA4480"></path>
                <path d="M29.55,16 C29.55,19.6 32.58,22.3 36,22.3 C38.16,22.3 39.72,21.46 40.83,19.78 C41.04,19.48 40.89,19.18 40.62,18.94 L38.82,17.38 C38.64,17.23 38.37,17.29 38.16,17.5 C37.68,17.98 37.17,18.43 36.12,18.43 C34.8,18.43 33.78,17.35 33.78,16 C33.78,14.68 34.86,13.57 36.18,13.57 C36.87,13.57 37.5,13.9 37.92,14.35 C38.07,14.5 38.43,14.56 38.58,14.41 L40.38,12.7 C40.65,12.46 40.74,12.13 40.53,11.86 C39.39,10.48 37.92,9.7 36.03,9.7 C32.61,9.7 29.55,12.46 29.55,16 L29.55,16 Z" id="Path" fill="#FA4480"></path>
                <path d="M15.69,15.97 C15.69,19.42 18.51,22.3 21.93,22.3 C25.35,22.3 28.17,19.42 28.17,15.97 C28.17,12.58 25.35,9.7 21.93,9.7 C18.51,9.7 15.69,12.58 15.69,15.97 L15.69,15.97 Z" id="Path" fill="#FA4480"></path>
                <path d="M19.56,15.97 C19.56,14.65 20.61,13.57 21.93,13.57 C23.25,13.57 24.3,14.65 24.3,15.97 C24.3,17.32 23.25,18.43 21.93,18.43 C20.61,18.43 19.56,17.32 19.56,15.97 L19.56,15.97 Z" id="Path" fill="#FFFFFF"></path>
                <path d="M0.72,21.43 C0.72,21.73 0.99,22 1.29,22 L4.53,22 C5.04,22 5.19,21.82 5.19,21.43 L5.19,15.94 C5.19,14.11 6.24,13.57 7.2,13.57 C8.52,13.57 9.39,14.62 9.39,15.94 L9.39,21.43 C9.39,21.73 9.63,22 9.96,22 L13.14,22 C13.44,22 13.71,21.73 13.71,21.43 L13.71,16 C13.71,12.67 11.76,9.7 7.98,9.7 C7.08,9.7 6.09,9.94 5.19,10.39 L5.19,1.57 C5.19,1.27 4.92,1 4.62,1 L1.29,1 C0.99,1 0.72,1.27 0.72,1.57 L0.72,21.43 Z" id="Path" fill="#FA4480"></path>
            </g>
        </g>
    </g>
</svg>