<svg width="1024" height="170" viewBox="0 0 1024 170" xmlns="http://www.w3.org/2000/svg"><title>wedding4</title><g fill="none" fill-rule="evenodd"><path d="M405.425 40h3.3c.6 0 .93-.36 1.08-.72l1.08-2.4h8.16l1.08 2.37c.27.57.51.75 1.05.75h3.33c.45 0 .69-.39.51-.78l-9.39-20.19a.61.61 0 0 0-.51-.33h-.3a.61.61 0 0 0-.51.33l-9.39 20.19c-.18.39.06.78.51.78zm7.26-7.2l2.25-4.95h.03l2.28 4.95h-4.56zm12.66 1.2c0 3.45 2.55 6.3 5.94 6.3 2.64 0 4.02-1.89 4.02-1.89l.36.99c.12.33.33.6.63.6h1.41c.3 0 .57-.27.57-.57V19.57c0-.3-.27-.57-.57-.57h-3.33c-.3 0-.57.27-.57.57v8.7c-.36-.21-1.47-.57-2.49-.57-3.21 0-5.97 2.07-5.97 6.3zm4.11-.03c0-1.35 1.05-2.4 2.43-2.4 1.38 0 2.4 1.05 2.4 2.4 0 1.38-1.02 2.46-2.4 2.46s-2.43-1.08-2.43-2.46zm12.06 5.46c0 .3.27.57.57.57h3.06c.48 0 .66-.21.66-.57v-6.21c0-1.02.69-1.71 1.59-1.71.27 0 .57.09.72.15.33.12.54-.06.66-.27l1.47-2.4c.42-.69-.75-1.29-2.4-1.29-1.56 0-2.67 1.11-3.27 1.98l-.54-1.32c-.09-.18-.21-.36-.54-.36h-1.41c-.3 0-.57.24-.57.57v10.86zm9.33-5.43c0 3.45 2.7 6.3 6.27 6.3 1.89 0 3.39-.66 4.44-1.71.27-.27.21-.63.03-.87l-1.5-1.8c-.18-.21-.48-.21-.75 0-.48.36-1.35.72-2.1.72-1.56 0-2.22-1.17-2.31-1.98h7.2c.27 0 .54-.21.57-.51.03-.21.06-.6.06-.81 0-3.3-2.64-5.64-5.7-5.64-3.54 0-6.21 2.91-6.21 6.3zm4.47-1.68c.12-.78.81-1.41 1.62-1.41.78 0 1.53.63 1.59 1.41h-3.21zm9.18 6.99c.6.48 2.1.99 4.08.99 3.39 0 5.07-1.71 5.07-3.81 0-2.4-1.68-3.36-4.11-4.2-1.02-.36-1.35-.66-1.35-.96 0-.33.27-.42.66-.42 1.17 0 2.55.69 2.55.69.24.09.54 0 .63-.18l1.11-2.04c.18-.3-.03-.57-.3-.75-.66-.42-2.1-.93-3.99-.93-3.24 0-4.68 1.62-4.68 3.63 0 1.86 1.02 3.21 3.36 4.02 1.53.54 1.71.96 1.71 1.26 0 .36-.27.54-.57.54-1.29 0-2.7-.78-2.7-.78-.24-.12-.54.06-.63.24l-1.05 2.07c-.15.27 0 .45.21.63zm11.13 0c.6.48 2.1.99 4.08.99 3.39 0 5.07-1.71 5.07-3.81 0-2.4-1.68-3.36-4.11-4.2-1.02-.36-1.35-.66-1.35-.96 0-.33.27-.42.66-.42 1.17 0 2.55.69 2.55.69.24.09.54 0 .63-.18l1.11-2.04c.18-.3-.03-.57-.3-.75-.66-.42-2.1-.93-3.99-.93-3.24 0-4.68 1.62-4.68 3.63 0 1.86 1.02 3.21 3.36 4.02 1.53.54 1.71.96 1.71 1.26 0 .36-.27.54-.57.54-1.29 0-2.7-.78-2.7-.78-.24-.12-.54.06-.63.24l-1.05 2.07c-.15.27 0 .45.21.63zm10.65-5.31c0 3.45 2.7 6.3 6.27 6.3 1.89 0 3.39-.66 4.44-1.71.27-.27.21-.63.03-.87l-1.5-1.8c-.18-.21-.48-.21-.75 0-.48.36-1.35.72-2.1.72-1.56 0-2.22-1.17-2.31-1.98h7.2c.27 0 .54-.21.57-.51.03-.21.06-.6.06-.81 0-3.3-2.64-5.64-5.7-5.64-3.54 0-6.21 2.91-6.21 6.3zm4.47-1.68c.12-.78.81-1.41 1.62-1.41.78 0 1.53.63 1.59 1.41h-3.21zm15.36 1.68c0 3.45 2.55 6.3 5.94 6.3 2.64 0 4.02-1.89 4.02-1.89l.36.99c.12.33.33.6.63.6h1.41c.3 0 .57-.27.57-.57V19.57c0-.3-.27-.57-.57-.57h-3.33c-.3 0-.57.27-.57.57v8.7c-.36-.21-1.47-.57-2.49-.57-3.21 0-5.97 2.07-5.97 6.3zm4.11-.03c0-1.35 1.05-2.4 2.43-2.4 1.38 0 2.4 1.05 2.4 2.4 0 1.38-1.02 2.46-2.4 2.46s-2.43-1.08-2.43-2.46zm11.16.03c0 3.45 2.7 6.3 6.27 6.3 1.89 0 3.39-.66 4.44-1.71.27-.27.21-.63.03-.87l-1.5-1.8c-.18-.21-.48-.21-.75 0-.48.36-1.35.72-2.1.72-1.56 0-2.22-1.17-2.31-1.98h7.2c.27 0 .54-.21.57-.51.03-.21.06-.6.06-.81 0-3.3-2.64-5.64-5.7-5.64-3.54 0-6.21 2.91-6.21 6.3zm4.47-1.68c.12-.78.81-1.41 1.62-1.41.78 0 1.53.63 1.59 1.41h-3.21zm9.6 7.11c0 .3.27.57.57.57h3.06c.48 0 .66-.21.66-.57v-6.21c0-1.02.69-1.71 1.59-1.71.27 0 .57.09.72.15.33.12.54-.06.66-.27l1.47-2.4c.42-.69-.75-1.29-2.4-1.29-1.56 0-2.67 1.11-3.27 1.98l-.54-1.32c-.09-.18-.21-.36-.54-.36h-1.41c-.3 0-.57.24-.57.57v10.86zm17.94 0c0 .3.24.57.57.57h3.54c.3 0 .57-.27.57-.57v-7.29h6.84c.3 0 .57-.27.57-.57V28.3c0-.3-.27-.57-.57-.57h-6.84v-4.32h8.31c.33 0 .57-.27.57-.57v-3.27c0-.3-.24-.57-.57-.57h-12.42a.57.57 0 0 0-.57.57v19.86zm14.13-5.43c0 3.45 2.7 6.3 6.27 6.3 1.89 0 3.39-.66 4.44-1.71.27-.27.21-.63.03-.87l-1.5-1.8c-.18-.21-.48-.21-.75 0-.48.36-1.35.72-2.1.72-1.56 0-2.22-1.17-2.31-1.98h7.2c.27 0 .54-.21.57-.51.03-.21.06-.6.06-.81 0-3.3-2.64-5.64-5.7-5.64-3.54 0-6.21 2.91-6.21 6.3zm4.47-1.68c.12-.78.81-1.41 1.62-1.41.78 0 1.53.63 1.59 1.41h-3.21zm11.79-7.95c1.32 0 2.4-1.05 2.4-2.37s-1.08-2.4-2.4-2.4c-1.32 0-2.37 1.08-2.37 2.4 0 1.32 1.05 2.37 2.37 2.37zm-2.19 15.06c0 .3.27.57.57.57h3.3c.3 0 .57-.27.57-.57V28.57a.57.57 0 0 0-.57-.57h-3.3c-.3 0-.57.24-.57.57v10.86zm6.78-5.43c0 3.45 2.7 6.3 6.27 6.3 1.89 0 3.39-.66 4.44-1.71.27-.27.21-.63.03-.87l-1.5-1.8c-.18-.21-.48-.21-.75 0-.48.36-1.35.72-2.1.72-1.56 0-2.22-1.17-2.31-1.98h7.2c.27 0 .54-.21.57-.51.03-.21.06-.6.06-.81 0-3.3-2.64-5.64-5.7-5.64-3.54 0-6.21 2.91-6.21 6.3zm4.47-1.68c.12-.78.81-1.41 1.62-1.41.78 0 1.53.63 1.59 1.41h-3.21zm9.6 7.11c0 .3.27.57.57.57h3.06c.48 0 .66-.21.66-.57v-6.21c0-1.02.69-1.71 1.59-1.71.27 0 .57.09.72.15.33.12.54-.06.66-.27l1.47-2.4c.42-.69-.75-1.29-2.4-1.29-1.56 0-2.67 1.11-3.27 1.98l-.54-1.32c-.09-.18-.21-.36-.54-.36h-1.41c-.3 0-.57.24-.57.57v10.86zm12.63-6.96c1.32 0 2.4-1.05 2.4-2.37s-1.08-2.4-2.4-2.4c-1.32 0-2.37 1.08-2.37 2.4 0 1.32 1.05 2.37 2.37 2.37zm-2.37 5.46c0 1.32 1.05 2.37 2.37 2.37s2.4-1.05 2.4-2.37-1.08-2.4-2.4-2.4c-1.32 0-2.37 1.08-2.37 2.4zm-190.29 69.5c0 .3.24.57.57.57h12.42c.33 0 .57-.27.57-.57v-3.27c0-.3-.24-.57-.57-.57h-8.31v-4.05h6.84c.3 0 .57-.24.57-.57V95.7c0-.3-.27-.57-.57-.57h-6.84v-3.72h8.31c.33 0 .57-.27.57-.57v-3.27c0-.3-.24-.57-.57-.57h-12.42a.57.57 0 0 0-.57.57v19.86zm15.99 0c0 .3.27.57.57.57h3.06c.48 0 .66-.21.66-.57v-6.21c0-1.02.69-1.71 1.59-1.71.27 0 .57.09.72.15.33.12.54-.06.66-.27l1.47-2.4c.42-.69-.75-1.29-2.4-1.29-1.56 0-2.67 1.11-3.27 1.98l-.54-1.32c-.09-.18-.21-.36-.54-.36h-1.41c-.3 0-.57.24-.57.57v10.86zm14.82.3c.36.21 1.47.57 2.49.57 3.21 0 5.97-2.07 5.97-6.3 0-3.45-2.55-6.3-5.94-6.3-2.64 0-4.02 1.89-4.02 1.89l-.36-.99c-.12-.33-.33-.6-.63-.6h-1.41c-.3 0-.57.27-.57.57v19.86c0 .3.27.57.57.57h3.33c.3 0 .57-.27.57-.57v-8.7zm-.48-5.7c0-1.38 1.02-2.46 2.4-2.46s2.43 1.08 2.43 2.46c0 1.35-1.05 2.4-2.43 2.4-1.38 0-2.4-1.05-2.4-2.4zm11.94 5.4c0 .3.27.57.57.57h3.45c.3 0 .57-.27.57-.57v-7.62h2.76c.33 0 .57-.27.57-.57v-2.67c0-.33-.24-.57-.57-.57h-2.76v-2.76c0-1.47.51-2.49 1.77-2.49.6 0 1.17.27 1.56.48.24.12.6 0 .69-.21l1.26-2.49c.12-.21.06-.54-.12-.69-.51-.48-2.1-1.14-3.66-1.14-3.48 0-6.09 2.34-6.09 6.54V96h-.63c-.33 0-.57.24-.57.57v2.67c0 .3.24.57.57.57h.63v7.62zm9.15-5.43c0 3.45 2.7 6.3 6.27 6.3 1.89 0 3.39-.66 4.44-1.71.27-.27.21-.63.03-.87l-1.5-1.8c-.18-.21-.48-.21-.75 0-.48.36-1.35.72-2.1.72-1.56 0-2.22-1.17-2.31-1.98h7.2c.27 0 .54-.21.57-.51.03-.21.06-.6.06-.81 0-3.3-2.64-5.64-5.7-5.64-3.54 0-6.21 2.91-6.21 6.3zm4.47-1.68c.12-.78.81-1.41 1.62-1.41.78 0 1.53.63 1.59 1.41h-3.21zm9.6 7.11c0 .3.27.57.57.57h3.15c.42 0 .54-.3.54-.57v-5.76c0-1.23 1.08-2.1 2.28-2.1 1.35 0 2.04 1.05 2.04 2.25v5.61c0 .3.24.57.57.57h3.21c.3 0 .57-.27.57-.57v-5.46c0-3.42-1.98-6.27-5.7-6.27-2.19 0-3.57 1.14-4.23 1.86l-.48-1.2c-.09-.21-.36-.36-.54-.36h-1.41c-.3 0-.57.24-.57.57v10.86zm15.84 0c0 .3.27.57.57.57h3.24c.51 0 .66-.18.66-.57v-5.49c0-1.83 1.05-2.37 2.01-2.37 1.32 0 2.19 1.05 2.19 2.37v5.49c0 .3.24.57.57.57h3.18c.3 0 .57-.27.57-.57V102c0-3.33-1.95-6.3-5.73-6.3-.9 0-1.89.24-2.79.69v-8.82c0-.3-.27-.57-.57-.57h-3.33c-.3 0-.57.27-.57.57v19.86zm15.09-3.09c0 2.37 1.77 3.96 4.14 3.96 1.89 0 2.94-.87 3.63-1.5l.42.81c.15.33.36.39.54.39h1.32c.3 0 .57-.27.57-.57v-6.63c0-3.54-1.35-5.1-5.07-5.1-1.62 0-3.72.36-3.99.45-.27.09-.54.3-.45.81l.27 1.89c.06.45.27.78.72.63.78-.24 2.19-.45 3-.45 1.44 0 1.62.6 1.62 1.77 0 0-.96-.48-2.31-.48-2.73 0-4.41 1.71-4.41 4.02zm3.9-.3c0-.69.57-1.26 1.29-1.26.72 0 1.29.57 1.32 1.26 0 .72-.6 1.32-1.32 1.32-.72 0-1.29-.6-1.29-1.32zm9.51-2.04c0 3.42 1.71 6.3 5.28 6.3 2.31 0 3.27-1.08 4.05-1.83l.45 1.11c.09.21.3.42.57.42h1.41c.3 0 .57-.27.57-.57V96.57a.57.57 0 0 0-.57-.57h-3.06c-.3 0-.63.09-.63.57v5.73c0 1.02-.63 2.13-1.8 2.13-1.23 0-1.92-1.08-1.92-2.31v-5.55a.57.57 0 0 0-.57-.57h-3.21c-.3 0-.57.24-.57.57V102zm15.15 5.31c.6.48 2.1.99 4.08.99 3.39 0 5.07-1.71 5.07-3.81 0-2.4-1.68-3.36-4.11-4.2-1.02-.36-1.35-.66-1.35-.96 0-.33.27-.42.66-.42 1.17 0 2.55.69 2.55.69.24.09.54 0 .63-.18l1.11-2.04c.18-.3-.03-.57-.3-.75-.66-.42-2.1-.93-3.99-.93-3.24 0-4.68 1.62-4.68 3.63 0 1.86 1.02 3.21 3.36 4.02 1.53.54 1.71.96 1.71 1.26 0 .36-.27.54-.57.54-1.29 0-2.7-.78-2.7-.78-.24-.12-.54.06-.63.24l-1.05 2.07c-.15.27 0 .45.21.63zm10.65-5.31c0 3.45 2.7 6.3 6.27 6.3 1.89 0 3.39-.66 4.44-1.71.27-.27.21-.63.03-.87l-1.5-1.8c-.18-.21-.48-.21-.75 0-.48.36-1.35.72-2.1.72-1.56 0-2.22-1.17-2.31-1.98h7.2c.27 0 .54-.21.57-.51.03-.21.06-.6.06-.81 0-3.3-2.64-5.64-5.7-5.64-3.54 0-6.21 2.91-6.21 6.3zm4.47-1.68c.12-.78.81-1.41 1.62-1.41.78 0 1.53.63 1.59 1.41h-3.21zm9.6 7.11c0 .3.27.57.57.57h3.15c.42 0 .54-.3.54-.57v-5.76c0-1.23 1.08-2.1 2.28-2.1 1.35 0 2.04 1.05 2.04 2.25v5.61c0 .3.24.57.57.57h3.21c.3 0 .57-.27.57-.57v-5.46c0-3.42-1.98-6.27-5.7-6.27-2.19 0-3.57 1.14-4.23 1.86l-.48-1.2c-.09-.21-.36-.36-.54-.36h-1.41c-.3 0-.57.24-.57.57v10.86zm25.02 0c0 .3.24.57.57.57h3.33c.3 0 .54-.27.54-.57V88.17c0-.3-.24-.57-.54-.57h-2.76l-4.38 3.42c-.09.09-.18.33-.18.45v1.89c0 .3.24.57.54.57h2.88v13.5zM404.75 136.57c0 3.27 2.88 5.73 7.23 5.73 4.5 0 7.38-2.46 7.38-5.73 0-2.58-2.31-4.29-3.66-5.04v-.12c1.17-.75 3.09-2.34 3.09-4.62 0-3.36-3-5.49-6.81-5.49-3.66 0-6.66 2.13-6.66 5.49 0 2.37 1.92 3.99 3.09 4.65v.09c-.57.33-3.66 2.4-3.66 5.04zm7.29-7.11c-1.41-.54-2.1-1.41-2.1-2.49 0-1.02.99-1.95 2.1-1.95 1.14 0 2.13.93 2.13 1.95s-.72 1.98-2.13 2.49zm-2.43 6.9c0-1.11.87-2.22 2.43-2.76 1.62.54 2.46 1.65 2.46 2.76 0 1.29-1.23 2.25-2.43 2.25-1.23 0-2.46-.93-2.46-2.25zm14.07 3.33l.87 2.31c.15.42.48.6.93.48 2.76-.81 10.08-4.38 10.08-13.2 0-4.68-2.58-8.16-7.23-8.16-3.75 0-6.87 3.09-6.87 6.87 0 4.44 3.15 6.51 5.97 6.51.81 0 2.07-.27 2.85-.6-.63 3.09-4.62 4.47-6.03 4.92-.6.18-.69.51-.57.87zm4.71-8.64c-1.59 0-2.88-1.32-2.88-2.91 0-1.56 1.29-2.88 2.88-2.88 1.59 0 2.88 1.32 2.88 2.88 0 1.59-1.29 2.91-2.88 2.91zm9.84 8.76c.75.9 2.82 2.49 5.94 2.49 4.2 0 7.41-3.12 7.41-6.87 0-3.93-2.7-6.84-6.84-6.84h-2.13v-3.21h6.18c.33 0 .57-.27.57-.57v-2.64c0-.3-.24-.57-.57-.57h-9.66a.57.57 0 0 0-.57.57v9.3c0 .48.33 1.05.93 1.05h4.62c1.95 0 3.09 1.29 3.09 2.91 0 1.65-1.23 2.85-2.85 2.85-1.44 0-3.57-1.44-3.57-1.44a.587.587 0 0 0-.72.09l-1.89 1.86c-.36.36-.33.57.06 1.02zm15.24-2.04h8.79v3.66c0 .3.27.57.57.57h3.21c.3 0 .57-.27.57-.57l-.03-3.69h2.37c.33 0 .57-.27.57-.57v-2.49c0-.3-.24-.54-.57-.54h-2.37l-.03-12.3a.57.57 0 0 0-.57-.57h-2.16c-.27 0-.36.09-.45.18l-10.47 12.57v3.18c0 .3.24.57.57.57zm4.14-3.72l4.77-5.58v5.58h-4.77zm13.98 7.38c0 .33.27.57.6.57h2.97c.45 0 .87-.12 1.23-.87l8.97-18.75v-.21c0-.3-.27-.57-.57-.57h-12.66c-.3 0-.57.27-.57.57v2.7c0 .3.27.57.57.57h6.96l-7.5 15.66v.33zm21.42-9.9c0 6 4.8 10.74 10.77 10.74 4.35 0 7.44-1.95 7.44-1.95a.74.74 0 0 0 .24-.48l-.03-8.07c0-.3-.24-.57-.54-.57h-6.03c-.33 0-.57.24-.57.57v2.97c0 .3.24.54.57.54h1.89v1.74c-.9.36-1.8.48-2.67.48-3.27 0-5.94-2.7-5.94-5.97 0-3.3 2.64-6.06 5.91-6.06 1.47 0 2.79.39 3.93 1.44.24.18.57.18.81-.03l2.37-2.52c.24-.24.21-.6-.06-.81-2.04-1.77-4.8-2.82-7.32-2.82-5.97 0-10.77 4.8-10.77 10.8zm20.37 4.47c0 3.45 2.7 6.3 6.27 6.3 1.89 0 3.39-.66 4.44-1.71.27-.27.21-.63.03-.87l-1.5-1.8c-.18-.21-.48-.21-.75 0-.48.36-1.35.72-2.1.72-1.56 0-2.22-1.17-2.31-1.98h7.2c.27 0 .54-.21.57-.51.03-.21.06-.6.06-.81 0-3.3-2.64-5.64-5.7-5.64-3.54 0-6.21 2.91-6.21 6.3zm4.47-1.68c.12-.78.81-1.41 1.62-1.41.78 0 1.53.63 1.59 1.41h-3.21zm9.6 7.11c0 .3.27.57.57.57h3.06c.48 0 .66-.21.66-.57v-6.21c0-1.02.69-1.71 1.59-1.71.27 0 .57.09.72.15.33.12.54-.06.66-.27l1.47-2.4c.42-.69-.75-1.29-2.4-1.29-1.56 0-2.67 1.11-3.27 1.98l-.54-1.32c-.09-.18-.21-.36-.54-.36h-1.41c-.3 0-.57.24-.57.57v10.86zm9.93-.12c.6.48 2.1.99 4.08.99 3.39 0 5.07-1.71 5.07-3.81 0-2.4-1.68-3.36-4.11-4.2-1.02-.36-1.35-.66-1.35-.96 0-.33.27-.42.66-.42 1.17 0 2.55.69 2.55.69.24.09.54 0 .63-.18l1.11-2.04c.18-.3-.03-.57-.3-.75-.66-.42-2.1-.93-3.99-.93-3.24 0-4.68 1.62-4.68 3.63 0 1.86 1.02 3.21 3.36 4.02 1.53.54 1.71.96 1.71 1.26 0 .36-.27.54-.57.54-1.29 0-2.7-.78-2.7-.78-.24-.12-.54.06-.63.24l-1.05 2.07c-.15.27 0 .45.21.63zm12.03-3.18c0 2.73 1.32 4.17 3.6 4.17 1.5 0 3.63-.66 3.63-.66.3-.09.45-.42.39-.69l-.66-2.49c-.09-.33-.36-.45-.66-.39-.3.06-.75.21-1.17.21-.36 0-.81-.06-.81-.72v-3.75h2.22c.33 0 .57-.27.57-.57v-2.67c0-.33-.24-.57-.57-.57h-2.22v-3.33c0-.3-.24-.57-.54-.57h-3.21c-.3 0-.57.27-.57.57V130h-.78c-.3 0-.54.24-.54.57v2.67c0 .3.24.57.54.57h.78v4.32zm8.94-2.13c0 3.45 2.7 6.3 6.27 6.3 1.89 0 3.39-.66 4.44-1.71.27-.27.21-.63.03-.87l-1.5-1.8c-.18-.21-.48-.21-.75 0-.48.36-1.35.72-2.1.72-1.56 0-2.22-1.17-2.31-1.98h7.2c.27 0 .54-.21.57-.51.03-.21.06-.6.06-.81 0-3.3-2.64-5.64-5.7-5.64-3.54 0-6.21 2.91-6.21 6.3zm4.47-1.68c.12-.78.81-1.41 1.62-1.41.78 0 1.53.63 1.59 1.41h-3.21zm10.08 3.81c0 2.73 1.32 4.17 3.6 4.17 1.5 0 3.63-.66 3.63-.66.3-.09.45-.42.39-.69l-.66-2.49c-.09-.33-.36-.45-.66-.39-.3.06-.75.21-1.17.21-.36 0-.81-.06-.81-.72v-3.75h2.22c.33 0 .57-.27.57-.57v-2.67c0-.33-.24-.57-.57-.57h-2.22v-3.33c0-.3-.24-.57-.54-.57h-3.21c-.3 0-.57.27-.57.57V130h-.78c-.3 0-.54.24-.54.57v2.67c0 .3.24.57.54.57h.78v4.32zm10.32 0c0 2.73 1.32 4.17 3.6 4.17 1.5 0 3.63-.66 3.63-.66.3-.09.45-.42.39-.69l-.66-2.49c-.09-.33-.36-.45-.66-.39-.3.06-.75.21-1.17.21-.36 0-.81-.06-.81-.72v-3.75h2.22c.33 0 .57-.27.57-.57v-2.67c0-.33-.24-.57-.57-.57h-2.22v-3.33c0-.3-.24-.57-.54-.57h-3.21c-.3 0-.57.27-.57.57V130h-.78c-.3 0-.54.24-.54.57v2.67c0 .3.24.57.54.57h.78v4.32zm8.94-2.13c0 3.45 2.7 6.3 6.27 6.3 1.89 0 3.39-.66 4.44-1.71.27-.27.21-.63.03-.87l-1.5-1.8c-.18-.21-.48-.21-.75 0-.48.36-1.35.72-2.1.72-1.56 0-2.22-1.17-2.31-1.98h7.2c.27 0 .54-.21.57-.51.03-.21.06-.6.06-.81 0-3.3-2.64-5.64-5.7-5.64-3.54 0-6.21 2.91-6.21 6.3zm4.47-1.68c.12-.78.81-1.41 1.62-1.41.78 0 1.53.63 1.59 1.41h-3.21zm9.6 7.11c0 .3.27.57.57.57h3.15c.42 0 .54-.3.54-.57v-5.76c0-1.23 1.08-2.1 2.28-2.1 1.35 0 2.04 1.05 2.04 2.25v5.61c0 .3.24.57.57.57h3.21c.3 0 .57-.27.57-.57v-5.46c0-3.42-1.98-6.27-5.7-6.27-2.19 0-3.57 1.14-4.23 1.86l-.48-1.2c-.09-.21-.36-.36-.54-.36h-1.41c-.3 0-.57.24-.57.57v10.86z" fill="#4A4A4A"/><path d="M643.73 73.43c0 .3.27.57.57.57h3.15c.42 0 .54-.3.54-.57v-5.76c0-1.23 1.08-2.1 2.28-2.1 1.35 0 2.04 1.05 2.04 2.25v5.61c0 .3.24.57.57.57h3.21c.3 0 .57-.27.57-.57v-5.46c0-3.42-1.98-6.27-5.7-6.27-2.19 0-3.57 1.14-4.23 1.86l-.48-1.2c-.09-.21-.36-.36-.54-.36h-1.41c-.3 0-.57.24-.57.57v10.86zM629.66 68c0 3.45 2.7 6.3 6.27 6.3 1.89 0 3.39-.66 4.44-1.71.27-.27.21-.63.03-.87l-1.5-1.8c-.18-.21-.48-.21-.75 0-.48.36-1.35.72-2.1.72-1.56 0-2.22-1.17-2.31-1.98h7.2c.27 0 .54-.21.57-.51.03-.21.06-.6.06-.81 0-3.3-2.64-5.64-5.7-5.64-3.54 0-6.21 2.91-6.21 6.3z" fill="#FA4480"/><path d="M634.13 66.32c.12-.78.81-1.41 1.62-1.41.78 0 1.53.63 1.59 1.41h-3.21z" fill="#FFF"/><path d="M619.01 73.31c.6.48 2.1.99 4.08.99 3.39 0 5.07-1.71 5.07-3.81 0-2.4-1.68-3.36-4.11-4.2-1.02-.36-1.35-.66-1.35-.96 0-.33.27-.42.66-.42 1.17 0 2.55.69 2.55.69.24.09.54 0 .63-.18l1.11-2.04c.18-.3-.03-.57-.3-.75-.66-.42-2.1-.93-3.99-.93-3.24 0-4.68 1.62-4.68 3.63 0 1.86 1.02 3.21 3.36 4.02 1.53.54 1.71.96 1.71 1.26 0 .36-.27.54-.57.54-1.29 0-2.7-.78-2.7-.78-.24-.12-.54.06-.63.24l-1.05 2.07c-.15.27 0 .45.21.63zM603.86 68c0 3.42 1.71 6.3 5.28 6.3 2.31 0 3.27-1.08 4.05-1.83l.45 1.11c.09.21.3.42.57.42h1.41c.3 0 .57-.27.57-.57V62.57a.57.57 0 0 0-.57-.57h-3.06c-.3 0-.63.09-.63.57v5.73c0 1.02-.63 2.13-1.8 2.13-1.23 0-1.92-1.08-1.92-2.31v-5.55a.57.57 0 0 0-.57-.57h-3.21c-.3 0-.57.24-.57.57V68zM590.45 70.34c0 2.37 1.77 3.96 4.14 3.96 1.89 0 2.94-.87 3.63-1.5l.42.81c.15.33.36.39.54.39h1.32c.3 0 .57-.27.57-.57V66.8c0-3.54-1.35-5.1-5.07-5.1-1.62 0-3.72.36-3.99.45-.27.09-.54.3-.45.81l.27 1.89c.06.45.27.78.72.63.78-.24 2.19-.45 3-.45 1.44 0 1.62.6 1.62 1.77 0 0-.96-.48-2.31-.48-2.73 0-4.41 1.71-4.41 4.02z" fill="#FA4480"/><path d="M594.35 70.04c0-.69.57-1.26 1.29-1.26.72 0 1.29.57 1.32 1.26 0 .72-.6 1.32-1.32 1.32-.72 0-1.29-.6-1.29-1.32z" fill="#FFF"/><path d="M575.36 73.43c0 .3.27.57.57.57h3.24c.51 0 .66-.18.66-.57v-5.49c0-1.83 1.05-2.37 2.01-2.37 1.32 0 2.19 1.05 2.19 2.37v5.49c0 .3.24.57.57.57h3.18c.3 0 .57-.27.57-.57V68c0-3.33-1.95-6.3-5.73-6.3-.9 0-1.89.24-2.79.69v-8.82c0-.3-.27-.57-.57-.57h-3.33c-.3 0-.57.27-.57.57v19.86zM559.52 73.43c0 .3.27.57.57.57h3.15c.42 0 .54-.3.54-.57v-5.76c0-1.23 1.08-2.1 2.28-2.1 1.35 0 2.04 1.05 2.04 2.25v5.61c0 .3.24.57.57.57h3.21c.3 0 .57-.27.57-.57v-5.46c0-3.42-1.98-6.27-5.7-6.27-2.19 0-3.57 1.14-4.23 1.86l-.48-1.2c-.09-.21-.36-.36-.54-.36h-1.41c-.3 0-.57.24-.57.57v10.86zM545.45 68c0 3.45 2.7 6.3 6.27 6.3 1.89 0 3.39-.66 4.44-1.71.27-.27.21-.63.03-.87l-1.5-1.8c-.18-.21-.48-.21-.75 0-.48.36-1.35.72-2.1.72-1.56 0-2.22-1.17-2.31-1.98h7.2c.27 0 .54-.21.57-.51.03-.21.06-.6.06-.81 0-3.3-2.64-5.64-5.7-5.64-3.54 0-6.21 2.91-6.21 6.3z" fill="#FA4480"/><path d="M549.92 66.32c.12-.78.81-1.41 1.62-1.41.78 0 1.53.63 1.59 1.41h-3.21z" fill="#FFF"/><path d="M536.3 73.43c0 .3.27.57.57.57h3.45c.3 0 .57-.27.57-.57v-7.62h2.76c.33 0 .57-.27.57-.57v-2.67c0-.33-.24-.57-.57-.57h-2.76v-2.76c0-1.47.51-2.49 1.77-2.49.6 0 1.17.27 1.56.48.24.12.6 0 .69-.21l1.26-2.49c.12-.21.06-.54-.12-.69-.51-.48-2.1-1.14-3.66-1.14-3.48 0-6.09 2.34-6.09 6.54V62h-.63c-.33 0-.57.24-.57.57v2.67c0 .3.24.57.57.57h.63v7.62zM524.84 73.73c.36.21 1.47.57 2.49.57 3.21 0 5.97-2.07 5.97-6.3 0-3.45-2.55-6.3-5.94-6.3-2.64 0-4.02 1.89-4.02 1.89l-.36-.99c-.12-.33-.33-.6-.63-.6h-1.41c-.3 0-.57.27-.57.57v19.86c0 .3.27.57.57.57h3.33c.3 0 .57-.27.57-.57v-8.7z" fill="#FA4480"/><path d="M524.36 68.03c0-1.38 1.02-2.46 2.4-2.46s2.43 1.08 2.43 2.46c0 1.35-1.05 2.4-2.43 2.4-1.38 0-2.4-1.05-2.4-2.4z" fill="#FFF"/><path d="M510.02 73.43c0 .3.27.57.57.57h3.06c.48 0 .66-.21.66-.57v-6.21c0-1.02.69-1.71 1.59-1.71.27 0 .57.09.72.15.33.12.54-.06.66-.27l1.47-2.4c.42-.69-.75-1.29-2.4-1.29-1.56 0-2.67 1.11-3.27 1.98l-.54-1.32c-.09-.18-.21-.36-.54-.36h-1.41c-.3 0-.57.24-.57.57v10.86zM494.03 73.43c0 .3.24.57.57.57h12.42c.33 0 .57-.27.57-.57v-3.27c0-.3-.24-.57-.57-.57h-8.31v-4.05h6.84c.3 0 .57-.24.57-.57V61.7c0-.3-.27-.57-.57-.57h-6.84v-3.72h8.31c.33 0 .57-.27.57-.57v-3.27c0-.3-.24-.57-.57-.57H494.6a.57.57 0 0 0-.57.57v19.86zM476.39 73.43c0 .3.27.57.57.57h3.45c.3 0 .57-.27.57-.57v-7.62h2.76c.33 0 .57-.27.57-.57v-2.67c0-.33-.24-.57-.57-.57h-2.76v-2.76c0-1.47.51-2.49 1.77-2.49.6 0 1.17.27 1.56.48.24.12.6 0 .69-.21l1.26-2.49c.12-.21.06-.54-.12-.69-.51-.48-2.1-1.14-3.66-1.14-3.48 0-6.09 2.34-6.09 6.54V62h-.63c-.33 0-.57.24-.57.57v2.67c0 .3.24.57.57.57h.63v7.62zM460.97 67.97c0 3.45 2.82 6.33 6.24 6.33 3.42 0 6.24-2.88 6.24-6.33 0-3.39-2.82-6.27-6.24-6.27-3.42 0-6.24 2.88-6.24 6.27z" fill="#FA4480"/><path d="M464.84 67.97c0-1.32 1.05-2.4 2.37-2.4s2.37 1.08 2.37 2.4c0 1.35-1.05 2.46-2.37 2.46s-2.37-1.11-2.37-2.46z" fill="#FFF"/><path d="M446 73.43c0 .3.27.57.57.57h3.24c.51 0 .66-.18.66-.57v-5.49c0-1.83 1.05-2.37 2.01-2.37 1.32 0 2.19 1.05 2.19 2.37v5.49c0 .3.24.57.57.57h3.18c.3 0 .57-.27.57-.57V68c0-3.33-1.95-6.3-5.73-6.3-.9 0-1.89.24-2.79.69v-8.82c0-.3-.27-.57-.57-.57h-3.33c-.3 0-.57.27-.57.57v19.86zM435.65 73.43c0 .3.27.57.57.57h3.06c.48 0 .66-.21.66-.57v-6.21c0-1.02.69-1.71 1.59-1.71.27 0 .57.09.72.15.33.12.54-.06.66-.27l1.47-2.4c.42-.69-.75-1.29-2.4-1.29-1.56 0-2.67 1.11-3.27 1.98l-.54-1.32c-.09-.18-.21-.36-.54-.36h-1.41c-.3 0-.57.24-.57.57v10.86zM420.08 68c0 3.42 1.71 6.3 5.28 6.3 2.31 0 3.27-1.08 4.05-1.83l.45 1.11c.09.21.3.42.57.42h1.41c.3 0 .57-.27.57-.57V62.57a.57.57 0 0 0-.57-.57h-3.06c-.3 0-.63.09-.63.57v5.73c0 1.02-.63 2.13-1.8 2.13-1.23 0-1.92-1.08-1.92-2.31v-5.55a.57.57 0 0 0-.57-.57h-3.21c-.3 0-.57.24-.57.57V68zM410.51 70.13c0 2.73 1.32 4.17 3.6 4.17 1.5 0 3.63-.66 3.63-.66.3-.09.45-.42.39-.69l-.66-2.49c-.09-.33-.36-.45-.66-.39-.3.06-.75.21-1.17.21-.36 0-.81-.06-.81-.72v-3.75h2.22c.33 0 .57-.27.57-.57v-2.67c0-.33-.24-.57-.57-.57h-2.22v-3.33c0-.3-.24-.57-.54-.57h-3.21c-.3 0-.57.27-.57.57V62h-.78c-.3 0-.54.24-.54.57v2.67c0 .3.24.57.54.57h.78v4.32zM402.35 73.43c0 .3.27.57.57.57h3.3c.3 0 .57-.27.57-.57V53.57c0-.3-.27-.57-.57-.57h-3.3c-.3 0-.57.27-.57.57v19.86zM386.78 68c0 3.42 1.71 6.3 5.28 6.3 2.31 0 3.27-1.08 4.05-1.83l.45 1.11c.09.21.3.42.57.42h1.41c.3 0 .57-.27.57-.57V62.57a.57.57 0 0 0-.57-.57h-3.06c-.3 0-.63.09-.63.57v5.73c0 1.02-.63 2.13-1.8 2.13-1.23 0-1.92-1.08-1.92-2.31v-5.55a.57.57 0 0 0-.57-.57h-3.21c-.3 0-.57.24-.57.57V68zM368.63 73.28c0 .39.3.72.72.72h3.51c.39 0 .72-.33.72-.72v-8.94l6.93 9.42c.06.09.33.21.54.21h4.14c.57 0 .9-.66.57-1.11l-7.65-9.96 7.02-8.79c.33-.45.03-1.11-.54-1.11h-3.78c-.18 0-.45.15-.57.3l-6.66 8.31v-7.89a.73.73 0 0 0-.72-.72h-3.51a.71.71 0 0 0-.72.72v19.56z" fill="#FA4480"/></g></svg>