<?xml version="1.0" encoding="UTF-8" standalone="no"?>
<svg width="1024px" height="170px" viewBox="0 0 1024 170" version="1.1" xmlns="http://www.w3.org/2000/svg" xmlns:xlink="http://www.w3.org/1999/xlink">
    <!-- Generator: Sketch 3.6.1 (26313) - http://www.bohemiancoding.com/sketch -->
    <title>wedding4</title>
    <desc>Created with Sketch.</desc>
    <defs></defs>
    <g id="Webseite" stroke="none" stroke-width="1" fill="none" fill-rule="evenodd">
        <g id="wedding" transform="translate(0.000000, -1182.000000)">
            <path d="M405.425,1222 L408.725,1222 C409.325,1222 409.655,1221.64 409.805,1221.28 L410.885,1218.88 L419.045,1218.88 L420.125,1221.25 C420.395,1221.82 420.635,1222 421.175,1222 L424.505,1222 C424.955,1222 425.195,1221.61 425.015,1221.22 L415.625,1201.03 C415.535,1200.85 415.325,1200.7 415.115,1200.7 L414.815,1200.7 C414.605,1200.7 414.395,1200.85 414.305,1201.03 L404.915,1221.22 C404.735,1221.61 404.975,1222 405.425,1222 L405.425,1222 Z M412.685,1214.8 L414.935,1209.85 L414.965,1209.85 L417.245,1214.8 L412.685,1214.8 Z M425.345,1216 C425.345,1219.45 427.895,1222.3 431.285,1222.3 C433.925,1222.3 435.305,1220.41 435.305,1220.41 L435.665,1221.4 C435.785,1221.73 435.995,1222 436.295,1222 L437.705,1222 C438.005,1222 438.275,1221.73 438.275,1221.43 L438.275,1201.57 C438.275,1201.27 438.005,1201 437.705,1201 L434.375,1201 C434.075,1201 433.805,1201.27 433.805,1201.57 L433.805,1210.27 C433.445,1210.06 432.335,1209.7 431.315,1209.7 C428.105,1209.7 425.345,1211.77 425.345,1216 L425.345,1216 Z M429.455,1215.97 C429.455,1214.62 430.505,1213.57 431.885,1213.57 C433.265,1213.57 434.285,1214.62 434.285,1215.97 C434.285,1217.35 433.265,1218.43 431.885,1218.43 C430.505,1218.43 429.455,1217.35 429.455,1215.97 L429.455,1215.97 Z M441.515,1221.43 C441.515,1221.73 441.785,1222 442.085,1222 L445.145,1222 C445.625,1222 445.805,1221.79 445.805,1221.43 L445.805,1215.22 C445.805,1214.2 446.495,1213.51 447.395,1213.51 C447.665,1213.51 447.965,1213.6 448.115,1213.66 C448.445,1213.78 448.655,1213.6 448.775,1213.39 L450.245,1210.99 C450.665,1210.3 449.495,1209.7 447.845,1209.7 C446.285,1209.7 445.175,1210.81 444.575,1211.68 L444.035,1210.36 C443.945,1210.18 443.825,1210 443.495,1210 L442.085,1210 C441.785,1210 441.515,1210.24 441.515,1210.57 L441.515,1221.43 Z M450.845,1216 C450.845,1219.45 453.545,1222.3 457.115,1222.3 C459.005,1222.3 460.505,1221.64 461.555,1220.59 C461.825,1220.32 461.765,1219.96 461.585,1219.72 L460.085,1217.92 C459.905,1217.71 459.605,1217.71 459.335,1217.92 C458.855,1218.28 457.985,1218.64 457.235,1218.64 C455.675,1218.64 455.015,1217.47 454.925,1216.66 L462.125,1216.66 C462.395,1216.66 462.665,1216.45 462.695,1216.15 C462.725,1215.94 462.755,1215.55 462.755,1215.34 C462.755,1212.04 460.115,1209.7 457.055,1209.7 C453.515,1209.7 450.845,1212.61 450.845,1216 L450.845,1216 Z M455.315,1214.32 C455.435,1213.54 456.125,1212.91 456.935,1212.91 C457.715,1212.91 458.465,1213.54 458.525,1214.32 L455.315,1214.32 Z M464.495,1221.31 C465.095,1221.79 466.595,1222.3 468.575,1222.3 C471.965,1222.3 473.645,1220.59 473.645,1218.49 C473.645,1216.09 471.965,1215.13 469.535,1214.29 C468.515,1213.93 468.185,1213.63 468.185,1213.33 C468.185,1213 468.455,1212.91 468.845,1212.91 C470.015,1212.91 471.395,1213.6 471.395,1213.6 C471.635,1213.69 471.935,1213.6 472.025,1213.42 L473.135,1211.38 C473.315,1211.08 473.105,1210.81 472.835,1210.63 C472.175,1210.21 470.735,1209.7 468.845,1209.7 C465.605,1209.7 464.165,1211.32 464.165,1213.33 C464.165,1215.19 465.185,1216.54 467.525,1217.35 C469.055,1217.89 469.235,1218.31 469.235,1218.61 C469.235,1218.97 468.965,1219.15 468.665,1219.15 C467.375,1219.15 465.965,1218.37 465.965,1218.37 C465.725,1218.25 465.425,1218.43 465.335,1218.61 L464.285,1220.68 C464.135,1220.95 464.285,1221.13 464.495,1221.31 L464.495,1221.31 Z M475.625,1221.31 C476.225,1221.79 477.725,1222.3 479.705,1222.3 C483.095,1222.3 484.775,1220.59 484.775,1218.49 C484.775,1216.09 483.095,1215.13 480.665,1214.29 C479.645,1213.93 479.315,1213.63 479.315,1213.33 C479.315,1213 479.585,1212.91 479.975,1212.91 C481.145,1212.91 482.525,1213.6 482.525,1213.6 C482.765,1213.69 483.065,1213.6 483.155,1213.42 L484.265,1211.38 C484.445,1211.08 484.235,1210.81 483.965,1210.63 C483.305,1210.21 481.865,1209.7 479.975,1209.7 C476.735,1209.7 475.295,1211.32 475.295,1213.33 C475.295,1215.19 476.315,1216.54 478.655,1217.35 C480.185,1217.89 480.365,1218.31 480.365,1218.61 C480.365,1218.97 480.095,1219.15 479.795,1219.15 C478.505,1219.15 477.095,1218.37 477.095,1218.37 C476.855,1218.25 476.555,1218.43 476.465,1218.61 L475.415,1220.68 C475.265,1220.95 475.415,1221.13 475.625,1221.31 L475.625,1221.31 Z M486.275,1216 C486.275,1219.45 488.975,1222.3 492.545,1222.3 C494.435,1222.3 495.935,1221.64 496.985,1220.59 C497.255,1220.32 497.195,1219.96 497.015,1219.72 L495.515,1217.92 C495.335,1217.71 495.035,1217.71 494.765,1217.92 C494.285,1218.28 493.415,1218.64 492.665,1218.64 C491.105,1218.64 490.445,1217.47 490.355,1216.66 L497.555,1216.66 C497.825,1216.66 498.095,1216.45 498.125,1216.15 C498.155,1215.94 498.185,1215.55 498.185,1215.34 C498.185,1212.04 495.545,1209.7 492.485,1209.7 C488.945,1209.7 486.275,1212.61 486.275,1216 L486.275,1216 Z M490.745,1214.32 C490.865,1213.54 491.555,1212.91 492.365,1212.91 C493.145,1212.91 493.895,1213.54 493.955,1214.32 L490.745,1214.32 Z M506.105,1216 C506.105,1219.45 508.655,1222.3 512.045,1222.3 C514.685,1222.3 516.065,1220.41 516.065,1220.41 L516.425,1221.4 C516.545,1221.73 516.755,1222 517.055,1222 L518.465,1222 C518.765,1222 519.035,1221.73 519.035,1221.43 L519.035,1201.57 C519.035,1201.27 518.765,1201 518.465,1201 L515.135,1201 C514.835,1201 514.565,1201.27 514.565,1201.57 L514.565,1210.27 C514.205,1210.06 513.095,1209.7 512.075,1209.7 C508.865,1209.7 506.105,1211.77 506.105,1216 L506.105,1216 Z M510.215,1215.97 C510.215,1214.62 511.265,1213.57 512.645,1213.57 C514.025,1213.57 515.045,1214.62 515.045,1215.97 C515.045,1217.35 514.025,1218.43 512.645,1218.43 C511.265,1218.43 510.215,1217.35 510.215,1215.97 L510.215,1215.97 Z M521.375,1216 C521.375,1219.45 524.075,1222.3 527.645,1222.3 C529.535,1222.3 531.035,1221.64 532.085,1220.59 C532.355,1220.32 532.295,1219.96 532.115,1219.72 L530.615,1217.92 C530.435,1217.71 530.135,1217.71 529.865,1217.92 C529.385,1218.28 528.515,1218.64 527.765,1218.64 C526.205,1218.64 525.545,1217.47 525.455,1216.66 L532.655,1216.66 C532.925,1216.66 533.195,1216.45 533.225,1216.15 C533.255,1215.94 533.285,1215.55 533.285,1215.34 C533.285,1212.04 530.645,1209.7 527.585,1209.7 C524.045,1209.7 521.375,1212.61 521.375,1216 L521.375,1216 Z M525.845,1214.32 C525.965,1213.54 526.655,1212.91 527.465,1212.91 C528.245,1212.91 528.995,1213.54 529.055,1214.32 L525.845,1214.32 Z M535.445,1221.43 C535.445,1221.73 535.715,1222 536.015,1222 L539.075,1222 C539.555,1222 539.735,1221.79 539.735,1221.43 L539.735,1215.22 C539.735,1214.2 540.425,1213.51 541.325,1213.51 C541.595,1213.51 541.895,1213.6 542.045,1213.66 C542.375,1213.78 542.585,1213.6 542.705,1213.39 L544.175,1210.99 C544.595,1210.3 543.425,1209.7 541.775,1209.7 C540.215,1209.7 539.105,1210.81 538.505,1211.68 L537.965,1210.36 C537.875,1210.18 537.755,1210 537.425,1210 L536.015,1210 C535.715,1210 535.445,1210.24 535.445,1210.57 L535.445,1221.43 Z M553.385,1221.43 C553.385,1221.73 553.625,1222 553.955,1222 L557.495,1222 C557.795,1222 558.065,1221.73 558.065,1221.43 L558.065,1214.14 L564.905,1214.14 C565.205,1214.14 565.475,1213.87 565.475,1213.57 L565.475,1210.3 C565.475,1210 565.205,1209.73 564.905,1209.73 L558.065,1209.73 L558.065,1205.41 L566.375,1205.41 C566.705,1205.41 566.945,1205.14 566.945,1204.84 L566.945,1201.57 C566.945,1201.27 566.705,1201 566.375,1201 L553.955,1201 C553.625,1201 553.385,1201.27 553.385,1201.57 L553.385,1221.43 Z M567.515,1216 C567.515,1219.45 570.215,1222.3 573.785,1222.3 C575.675,1222.3 577.175,1221.64 578.225,1220.59 C578.495,1220.32 578.435,1219.96 578.255,1219.72 L576.755,1217.92 C576.575,1217.71 576.275,1217.71 576.005,1217.92 C575.525,1218.28 574.655,1218.64 573.905,1218.64 C572.345,1218.64 571.685,1217.47 571.595,1216.66 L578.795,1216.66 C579.065,1216.66 579.335,1216.45 579.365,1216.15 C579.395,1215.94 579.425,1215.55 579.425,1215.34 C579.425,1212.04 576.785,1209.7 573.725,1209.7 C570.185,1209.7 567.515,1212.61 567.515,1216 L567.515,1216 Z M571.985,1214.32 C572.105,1213.54 572.795,1212.91 573.605,1212.91 C574.385,1212.91 575.135,1213.54 575.195,1214.32 L571.985,1214.32 Z M583.775,1206.37 C585.095,1206.37 586.175,1205.32 586.175,1204 C586.175,1202.68 585.095,1201.6 583.775,1201.6 C582.455,1201.6 581.405,1202.68 581.405,1204 C581.405,1205.32 582.455,1206.37 583.775,1206.37 L583.775,1206.37 Z M581.585,1221.43 C581.585,1221.73 581.855,1222 582.155,1222 L585.455,1222 C585.755,1222 586.025,1221.73 586.025,1221.43 L586.025,1210.57 C586.025,1210.24 585.755,1210 585.455,1210 L582.155,1210 C581.855,1210 581.585,1210.24 581.585,1210.57 L581.585,1221.43 Z M588.365,1216 C588.365,1219.45 591.065,1222.3 594.635,1222.3 C596.525,1222.3 598.025,1221.64 599.075,1220.59 C599.345,1220.32 599.285,1219.96 599.105,1219.72 L597.605,1217.92 C597.425,1217.71 597.125,1217.71 596.855,1217.92 C596.375,1218.28 595.505,1218.64 594.755,1218.64 C593.195,1218.64 592.535,1217.47 592.445,1216.66 L599.645,1216.66 C599.915,1216.66 600.185,1216.45 600.215,1216.15 C600.245,1215.94 600.275,1215.55 600.275,1215.34 C600.275,1212.04 597.635,1209.7 594.575,1209.7 C591.035,1209.7 588.365,1212.61 588.365,1216 L588.365,1216 Z M592.835,1214.32 C592.955,1213.54 593.645,1212.91 594.455,1212.91 C595.235,1212.91 595.985,1213.54 596.045,1214.32 L592.835,1214.32 Z M602.435,1221.43 C602.435,1221.73 602.705,1222 603.005,1222 L606.065,1222 C606.545,1222 606.725,1221.79 606.725,1221.43 L606.725,1215.22 C606.725,1214.2 607.415,1213.51 608.315,1213.51 C608.585,1213.51 608.885,1213.6 609.035,1213.66 C609.365,1213.78 609.575,1213.6 609.695,1213.39 L611.165,1210.99 C611.585,1210.3 610.415,1209.7 608.765,1209.7 C607.205,1209.7 606.095,1210.81 605.495,1211.68 L604.955,1210.36 C604.865,1210.18 604.745,1210 604.415,1210 L603.005,1210 C602.705,1210 602.435,1210.24 602.435,1210.57 L602.435,1221.43 Z M615.065,1214.47 C616.385,1214.47 617.465,1213.42 617.465,1212.1 C617.465,1210.78 616.385,1209.7 615.065,1209.7 C613.745,1209.7 612.695,1210.78 612.695,1212.1 C612.695,1213.42 613.745,1214.47 615.065,1214.47 L615.065,1214.47 Z M612.695,1219.93 C612.695,1221.25 613.745,1222.3 615.065,1222.3 C616.385,1222.3 617.465,1221.25 617.465,1219.93 C617.465,1218.61 616.385,1217.53 615.065,1217.53 C613.745,1217.53 612.695,1218.61 612.695,1219.93 L612.695,1219.93 Z M422.405,1289.43 C422.405,1289.73 422.645,1290 422.975,1290 L435.395,1290 C435.725,1290 435.965,1289.73 435.965,1289.43 L435.965,1286.16 C435.965,1285.86 435.725,1285.59 435.395,1285.59 L427.085,1285.59 L427.085,1281.54 L433.925,1281.54 C434.225,1281.54 434.495,1281.3 434.495,1280.97 L434.495,1277.7 C434.495,1277.4 434.225,1277.13 433.925,1277.13 L427.085,1277.13 L427.085,1273.41 L435.395,1273.41 C435.725,1273.41 435.965,1273.14 435.965,1272.84 L435.965,1269.57 C435.965,1269.27 435.725,1269 435.395,1269 L422.975,1269 C422.645,1269 422.405,1269.27 422.405,1269.57 L422.405,1289.43 Z M438.395,1289.43 C438.395,1289.73 438.665,1290 438.965,1290 L442.025,1290 C442.505,1290 442.685,1289.79 442.685,1289.43 L442.685,1283.22 C442.685,1282.2 443.375,1281.51 444.275,1281.51 C444.545,1281.51 444.845,1281.6 444.995,1281.66 C445.325,1281.78 445.535,1281.6 445.655,1281.39 L447.125,1278.99 C447.545,1278.3 446.375,1277.7 444.725,1277.7 C443.165,1277.7 442.055,1278.81 441.455,1279.68 L440.915,1278.36 C440.825,1278.18 440.705,1278 440.375,1278 L438.965,1278 C438.665,1278 438.395,1278.24 438.395,1278.57 L438.395,1289.43 Z M453.215,1289.73 C453.575,1289.94 454.685,1290.3 455.705,1290.3 C458.915,1290.3 461.675,1288.23 461.675,1284 C461.675,1280.55 459.125,1277.7 455.735,1277.7 C453.095,1277.7 451.715,1279.59 451.715,1279.59 L451.355,1278.6 C451.235,1278.27 451.025,1278 450.725,1278 L449.315,1278 C449.015,1278 448.745,1278.27 448.745,1278.57 L448.745,1298.43 C448.745,1298.73 449.015,1299 449.315,1299 L452.645,1299 C452.945,1299 453.215,1298.73 453.215,1298.43 L453.215,1289.73 Z M452.735,1284.03 C452.735,1282.65 453.755,1281.57 455.135,1281.57 C456.515,1281.57 457.565,1282.65 457.565,1284.03 C457.565,1285.38 456.515,1286.43 455.135,1286.43 C453.755,1286.43 452.735,1285.38 452.735,1284.03 L452.735,1284.03 Z M464.675,1289.43 C464.675,1289.73 464.945,1290 465.245,1290 L468.695,1290 C468.995,1290 469.265,1289.73 469.265,1289.43 L469.265,1281.81 L472.025,1281.81 C472.355,1281.81 472.595,1281.54 472.595,1281.24 L472.595,1278.57 C472.595,1278.24 472.355,1278 472.025,1278 L469.265,1278 L469.265,1275.24 C469.265,1273.77 469.775,1272.75 471.035,1272.75 C471.635,1272.75 472.205,1273.02 472.595,1273.23 C472.835,1273.35 473.195,1273.23 473.285,1273.02 L474.545,1270.53 C474.665,1270.32 474.605,1269.99 474.425,1269.84 C473.915,1269.36 472.325,1268.7 470.765,1268.7 C467.285,1268.7 464.675,1271.04 464.675,1275.24 L464.675,1278 L464.045,1278 C463.715,1278 463.475,1278.24 463.475,1278.57 L463.475,1281.24 C463.475,1281.54 463.715,1281.81 464.045,1281.81 L464.675,1281.81 L464.675,1289.43 Z M473.825,1284 C473.825,1287.45 476.525,1290.3 480.095,1290.3 C481.985,1290.3 483.485,1289.64 484.535,1288.59 C484.805,1288.32 484.745,1287.96 484.565,1287.72 L483.065,1285.92 C482.885,1285.71 482.585,1285.71 482.315,1285.92 C481.835,1286.28 480.965,1286.64 480.215,1286.64 C478.655,1286.64 477.995,1285.47 477.905,1284.66 L485.105,1284.66 C485.375,1284.66 485.645,1284.45 485.675,1284.15 C485.705,1283.94 485.735,1283.55 485.735,1283.34 C485.735,1280.04 483.095,1277.7 480.035,1277.7 C476.495,1277.7 473.825,1280.61 473.825,1284 L473.825,1284 Z M478.295,1282.32 C478.415,1281.54 479.105,1280.91 479.915,1280.91 C480.695,1280.91 481.445,1281.54 481.505,1282.32 L478.295,1282.32 Z M487.895,1289.43 C487.895,1289.73 488.165,1290 488.465,1290 L491.615,1290 C492.035,1290 492.155,1289.7 492.155,1289.43 L492.155,1283.67 C492.155,1282.44 493.235,1281.57 494.435,1281.57 C495.785,1281.57 496.475,1282.62 496.475,1283.82 L496.475,1289.43 C496.475,1289.73 496.715,1290 497.045,1290 L500.255,1290 C500.555,1290 500.825,1289.73 500.825,1289.43 L500.825,1283.97 C500.825,1280.55 498.845,1277.7 495.125,1277.7 C492.935,1277.7 491.555,1278.84 490.895,1279.56 L490.415,1278.36 C490.325,1278.15 490.055,1278 489.875,1278 L488.465,1278 C488.165,1278 487.895,1278.24 487.895,1278.57 L487.895,1289.43 Z M503.735,1289.43 C503.735,1289.73 504.005,1290 504.305,1290 L507.545,1290 C508.055,1290 508.205,1289.82 508.205,1289.43 L508.205,1283.94 C508.205,1282.11 509.255,1281.57 510.215,1281.57 C511.535,1281.57 512.405,1282.62 512.405,1283.94 L512.405,1289.43 C512.405,1289.73 512.645,1290 512.975,1290 L516.155,1290 C516.455,1290 516.725,1289.73 516.725,1289.43 L516.725,1284 C516.725,1280.67 514.775,1277.7 510.995,1277.7 C510.095,1277.7 509.105,1277.94 508.205,1278.39 L508.205,1269.57 C508.205,1269.27 507.935,1269 507.635,1269 L504.305,1269 C504.005,1269 503.735,1269.27 503.735,1269.57 L503.735,1289.43 Z M518.825,1286.34 C518.825,1288.71 520.595,1290.3 522.965,1290.3 C524.855,1290.3 525.905,1289.43 526.595,1288.8 L527.015,1289.61 C527.165,1289.94 527.375,1290 527.555,1290 L528.875,1290 C529.175,1290 529.445,1289.73 529.445,1289.43 L529.445,1282.8 C529.445,1279.26 528.095,1277.7 524.375,1277.7 C522.755,1277.7 520.655,1278.06 520.385,1278.15 C520.115,1278.24 519.845,1278.45 519.935,1278.96 L520.205,1280.85 C520.265,1281.3 520.475,1281.63 520.925,1281.48 C521.705,1281.24 523.115,1281.03 523.925,1281.03 C525.365,1281.03 525.545,1281.63 525.545,1282.8 C525.545,1282.8 524.585,1282.32 523.235,1282.32 C520.505,1282.32 518.825,1284.03 518.825,1286.34 L518.825,1286.34 Z M522.725,1286.04 C522.725,1285.35 523.295,1284.78 524.015,1284.78 C524.735,1284.78 525.305,1285.35 525.335,1286.04 C525.335,1286.76 524.735,1287.36 524.015,1287.36 C523.295,1287.36 522.725,1286.76 522.725,1286.04 L522.725,1286.04 Z M532.235,1284 C532.235,1287.42 533.945,1290.3 537.515,1290.3 C539.825,1290.3 540.785,1289.22 541.565,1288.47 L542.015,1289.58 C542.105,1289.79 542.315,1290 542.585,1290 L543.995,1290 C544.295,1290 544.565,1289.73 544.565,1289.43 L544.565,1278.57 C544.565,1278.24 544.295,1278 543.995,1278 L540.935,1278 C540.635,1278 540.305,1278.09 540.305,1278.57 L540.305,1284.3 C540.305,1285.32 539.675,1286.43 538.505,1286.43 C537.275,1286.43 536.585,1285.35 536.585,1284.12 L536.585,1278.57 C536.585,1278.24 536.315,1278 536.015,1278 L532.805,1278 C532.505,1278 532.235,1278.24 532.235,1278.57 L532.235,1284 Z M547.385,1289.31 C547.985,1289.79 549.485,1290.3 551.465,1290.3 C554.855,1290.3 556.535,1288.59 556.535,1286.49 C556.535,1284.09 554.855,1283.13 552.425,1282.29 C551.405,1281.93 551.075,1281.63 551.075,1281.33 C551.075,1281 551.345,1280.91 551.735,1280.91 C552.905,1280.91 554.285,1281.6 554.285,1281.6 C554.525,1281.69 554.825,1281.6 554.915,1281.42 L556.025,1279.38 C556.205,1279.08 555.995,1278.81 555.725,1278.63 C555.065,1278.21 553.625,1277.7 551.735,1277.7 C548.495,1277.7 547.055,1279.32 547.055,1281.33 C547.055,1283.19 548.075,1284.54 550.415,1285.35 C551.945,1285.89 552.125,1286.31 552.125,1286.61 C552.125,1286.97 551.855,1287.15 551.555,1287.15 C550.265,1287.15 548.855,1286.37 548.855,1286.37 C548.615,1286.25 548.315,1286.43 548.225,1286.61 L547.175,1288.68 C547.025,1288.95 547.175,1289.13 547.385,1289.31 L547.385,1289.31 Z M558.035,1284 C558.035,1287.45 560.735,1290.3 564.305,1290.3 C566.195,1290.3 567.695,1289.64 568.745,1288.59 C569.015,1288.32 568.955,1287.96 568.775,1287.72 L567.275,1285.92 C567.095,1285.71 566.795,1285.71 566.525,1285.92 C566.045,1286.28 565.175,1286.64 564.425,1286.64 C562.865,1286.64 562.205,1285.47 562.115,1284.66 L569.315,1284.66 C569.585,1284.66 569.855,1284.45 569.885,1284.15 C569.915,1283.94 569.945,1283.55 569.945,1283.34 C569.945,1280.04 567.305,1277.7 564.245,1277.7 C560.705,1277.7 558.035,1280.61 558.035,1284 L558.035,1284 Z M562.505,1282.32 C562.625,1281.54 563.315,1280.91 564.125,1280.91 C564.905,1280.91 565.655,1281.54 565.715,1282.32 L562.505,1282.32 Z M572.105,1289.43 C572.105,1289.73 572.375,1290 572.675,1290 L575.825,1290 C576.245,1290 576.365,1289.7 576.365,1289.43 L576.365,1283.67 C576.365,1282.44 577.445,1281.57 578.645,1281.57 C579.995,1281.57 580.685,1282.62 580.685,1283.82 L580.685,1289.43 C580.685,1289.73 580.925,1290 581.255,1290 L584.465,1290 C584.765,1290 585.035,1289.73 585.035,1289.43 L585.035,1283.97 C585.035,1280.55 583.055,1277.7 579.335,1277.7 C577.145,1277.7 575.765,1278.84 575.105,1279.56 L574.625,1278.36 C574.535,1278.15 574.265,1278 574.085,1278 L572.675,1278 C572.375,1278 572.105,1278.24 572.105,1278.57 L572.105,1289.43 Z M597.125,1289.43 C597.125,1289.73 597.365,1290 597.695,1290 L601.025,1290 C601.325,1290 601.565,1289.73 601.565,1289.43 L601.565,1270.17 C601.565,1269.87 601.325,1269.6 601.025,1269.6 L598.265,1269.6 L593.885,1273.02 C593.795,1273.11 593.705,1273.35 593.705,1273.47 L593.705,1275.36 C593.705,1275.66 593.945,1275.93 594.245,1275.93 L597.125,1275.93 L597.125,1289.43 Z M404.75,1318.57 C404.75,1321.84 407.63,1324.3 411.98,1324.3 C416.48,1324.3 419.36,1321.84 419.36,1318.57 C419.36,1315.99 417.05,1314.28 415.7,1313.53 L415.7,1313.41 C416.87,1312.66 418.79,1311.07 418.79,1308.79 C418.79,1305.43 415.79,1303.3 411.98,1303.3 C408.32,1303.3 405.32,1305.43 405.32,1308.79 C405.32,1311.16 407.24,1312.78 408.41,1313.44 L408.41,1313.53 C407.84,1313.86 404.75,1315.93 404.75,1318.57 L404.75,1318.57 Z M412.04,1311.46 C410.63,1310.92 409.94,1310.05 409.94,1308.97 C409.94,1307.95 410.93,1307.02 412.04,1307.02 C413.18,1307.02 414.17,1307.95 414.17,1308.97 C414.17,1309.99 413.45,1310.95 412.04,1311.46 L412.04,1311.46 Z M409.61,1318.36 C409.61,1317.25 410.48,1316.14 412.04,1315.6 C413.66,1316.14 414.5,1317.25 414.5,1318.36 C414.5,1319.65 413.27,1320.61 412.07,1320.61 C410.84,1320.61 409.61,1319.68 409.61,1318.36 L409.61,1318.36 Z M423.68,1321.69 L424.55,1324 C424.7,1324.42 425.03,1324.6 425.48,1324.48 C428.24,1323.67 435.56,1320.1 435.56,1311.28 C435.56,1306.6 432.98,1303.12 428.33,1303.12 C424.58,1303.12 421.46,1306.21 421.46,1309.99 C421.46,1314.43 424.61,1316.5 427.43,1316.5 C428.24,1316.5 429.5,1316.23 430.28,1315.9 C429.65,1318.99 425.66,1320.37 424.25,1320.82 C423.65,1321 423.56,1321.33 423.68,1321.69 L423.68,1321.69 Z M428.39,1313.05 C426.8,1313.05 425.51,1311.73 425.51,1310.14 C425.51,1308.58 426.8,1307.26 428.39,1307.26 C429.98,1307.26 431.27,1308.58 431.27,1310.14 C431.27,1311.73 429.98,1313.05 428.39,1313.05 L428.39,1313.05 Z M438.23,1321.81 C438.98,1322.71 441.05,1324.3 444.17,1324.3 C448.37,1324.3 451.58,1321.18 451.58,1317.43 C451.58,1313.5 448.88,1310.59 444.74,1310.59 L442.61,1310.59 L442.61,1307.38 L448.79,1307.38 C449.12,1307.38 449.36,1307.11 449.36,1306.81 L449.36,1304.17 C449.36,1303.87 449.12,1303.6 448.79,1303.6 L439.13,1303.6 C438.8,1303.6 438.56,1303.87 438.56,1304.17 L438.56,1313.47 C438.56,1313.95 438.89,1314.52 439.49,1314.52 L444.11,1314.52 C446.06,1314.52 447.2,1315.81 447.2,1317.43 C447.2,1319.08 445.97,1320.28 444.35,1320.28 C442.91,1320.28 440.78,1318.84 440.78,1318.84 C440.54,1318.69 440.24,1318.75 440.06,1318.93 L438.17,1320.79 C437.81,1321.15 437.84,1321.36 438.23,1321.81 L438.23,1321.81 Z M453.47,1319.77 L462.26,1319.77 L462.26,1323.43 C462.26,1323.73 462.53,1324 462.83,1324 L466.04,1324 C466.34,1324 466.61,1323.73 466.61,1323.43 L466.58,1319.74 L468.95,1319.74 C469.28,1319.74 469.52,1319.47 469.52,1319.17 L469.52,1316.68 C469.52,1316.38 469.28,1316.14 468.95,1316.14 L466.58,1316.14 L466.55,1303.84 C466.55,1303.51 466.28,1303.27 465.98,1303.27 L463.82,1303.27 C463.55,1303.27 463.46,1303.36 463.37,1303.45 L452.9,1316.02 L452.9,1319.2 C452.9,1319.5 453.14,1319.77 453.47,1319.77 L453.47,1319.77 Z M457.61,1316.05 L462.38,1310.47 L462.38,1316.05 L457.61,1316.05 Z M471.59,1323.43 C471.59,1323.76 471.86,1324 472.19,1324 L475.16,1324 C475.61,1324 476.03,1323.88 476.39,1323.13 L485.36,1304.38 L485.36,1304.17 C485.36,1303.87 485.09,1303.6 484.79,1303.6 L472.13,1303.6 C471.83,1303.6 471.56,1303.87 471.56,1304.17 L471.56,1306.87 C471.56,1307.17 471.83,1307.44 472.13,1307.44 L479.09,1307.44 L471.59,1323.1 L471.59,1323.43 Z M493.01,1313.53 C493.01,1319.53 497.81,1324.27 503.78,1324.27 C508.13,1324.27 511.22,1322.32 511.22,1322.32 C511.34,1322.23 511.46,1321.99 511.46,1321.84 L511.43,1313.77 C511.43,1313.47 511.19,1313.2 510.89,1313.2 L504.86,1313.2 C504.53,1313.2 504.29,1313.44 504.29,1313.77 L504.29,1316.74 C504.29,1317.04 504.53,1317.28 504.86,1317.28 L506.75,1317.28 L506.75,1319.02 C505.85,1319.38 504.95,1319.5 504.08,1319.5 C500.81,1319.5 498.14,1316.8 498.14,1313.53 C498.14,1310.23 500.78,1307.47 504.05,1307.47 C505.52,1307.47 506.84,1307.86 507.98,1308.91 C508.22,1309.09 508.55,1309.09 508.79,1308.88 L511.16,1306.36 C511.4,1306.12 511.37,1305.76 511.1,1305.55 C509.06,1303.78 506.3,1302.73 503.78,1302.73 C497.81,1302.73 493.01,1307.53 493.01,1313.53 L493.01,1313.53 Z M513.38,1318 C513.38,1321.45 516.08,1324.3 519.65,1324.3 C521.54,1324.3 523.04,1323.64 524.09,1322.59 C524.36,1322.32 524.3,1321.96 524.12,1321.72 L522.62,1319.92 C522.44,1319.71 522.14,1319.71 521.87,1319.92 C521.39,1320.28 520.52,1320.64 519.77,1320.64 C518.21,1320.64 517.55,1319.47 517.46,1318.66 L524.66,1318.66 C524.93,1318.66 525.2,1318.45 525.23,1318.15 C525.26,1317.94 525.29,1317.55 525.29,1317.34 C525.29,1314.04 522.65,1311.7 519.59,1311.7 C516.05,1311.7 513.38,1314.61 513.38,1318 L513.38,1318 Z M517.85,1316.32 C517.97,1315.54 518.66,1314.91 519.47,1314.91 C520.25,1314.91 521,1315.54 521.06,1316.32 L517.85,1316.32 Z M527.45,1323.43 C527.45,1323.73 527.72,1324 528.02,1324 L531.08,1324 C531.56,1324 531.74,1323.79 531.74,1323.43 L531.74,1317.22 C531.74,1316.2 532.43,1315.51 533.33,1315.51 C533.6,1315.51 533.9,1315.6 534.05,1315.66 C534.38,1315.78 534.59,1315.6 534.71,1315.39 L536.18,1312.99 C536.6,1312.3 535.43,1311.7 533.78,1311.7 C532.22,1311.7 531.11,1312.81 530.51,1313.68 L529.97,1312.36 C529.88,1312.18 529.76,1312 529.43,1312 L528.02,1312 C527.72,1312 527.45,1312.24 527.45,1312.57 L527.45,1323.43 Z M537.38,1323.31 C537.98,1323.79 539.48,1324.3 541.46,1324.3 C544.85,1324.3 546.53,1322.59 546.53,1320.49 C546.53,1318.09 544.85,1317.13 542.42,1316.29 C541.4,1315.93 541.07,1315.63 541.07,1315.33 C541.07,1315 541.34,1314.91 541.73,1314.91 C542.9,1314.91 544.28,1315.6 544.28,1315.6 C544.52,1315.69 544.82,1315.6 544.91,1315.42 L546.02,1313.38 C546.2,1313.08 545.99,1312.81 545.72,1312.63 C545.06,1312.21 543.62,1311.7 541.73,1311.7 C538.49,1311.7 537.05,1313.32 537.05,1315.33 C537.05,1317.19 538.07,1318.54 540.41,1319.35 C541.94,1319.89 542.12,1320.31 542.12,1320.61 C542.12,1320.97 541.85,1321.15 541.55,1321.15 C540.26,1321.15 538.85,1320.37 538.85,1320.37 C538.61,1320.25 538.31,1320.43 538.22,1320.61 L537.17,1322.68 C537.02,1322.95 537.17,1323.13 537.38,1323.31 L537.38,1323.31 Z M549.41,1320.13 C549.41,1322.86 550.73,1324.3 553.01,1324.3 C554.51,1324.3 556.64,1323.64 556.64,1323.64 C556.94,1323.55 557.09,1323.22 557.03,1322.95 L556.37,1320.46 C556.28,1320.13 556.01,1320.01 555.71,1320.07 C555.41,1320.13 554.96,1320.28 554.54,1320.28 C554.18,1320.28 553.73,1320.22 553.73,1319.56 L553.73,1315.81 L555.95,1315.81 C556.28,1315.81 556.52,1315.54 556.52,1315.24 L556.52,1312.57 C556.52,1312.24 556.28,1312 555.95,1312 L553.73,1312 L553.73,1308.67 C553.73,1308.37 553.49,1308.1 553.19,1308.1 L549.98,1308.1 C549.68,1308.1 549.41,1308.37 549.41,1308.67 L549.41,1312 L548.63,1312 C548.33,1312 548.09,1312.24 548.09,1312.57 L548.09,1315.24 C548.09,1315.54 548.33,1315.81 548.63,1315.81 L549.41,1315.81 L549.41,1320.13 Z M558.35,1318 C558.35,1321.45 561.05,1324.3 564.62,1324.3 C566.51,1324.3 568.01,1323.64 569.06,1322.59 C569.33,1322.32 569.27,1321.96 569.09,1321.72 L567.59,1319.92 C567.41,1319.71 567.11,1319.71 566.84,1319.92 C566.36,1320.28 565.49,1320.64 564.74,1320.64 C563.18,1320.64 562.52,1319.47 562.43,1318.66 L569.63,1318.66 C569.9,1318.66 570.17,1318.45 570.2,1318.15 C570.23,1317.94 570.26,1317.55 570.26,1317.34 C570.26,1314.04 567.62,1311.7 564.56,1311.7 C561.02,1311.7 558.35,1314.61 558.35,1318 L558.35,1318 Z M562.82,1316.32 C562.94,1315.54 563.63,1314.91 564.44,1314.91 C565.22,1314.91 565.97,1315.54 566.03,1316.32 L562.82,1316.32 Z M572.9,1320.13 C572.9,1322.86 574.22,1324.3 576.5,1324.3 C578,1324.3 580.13,1323.64 580.13,1323.64 C580.43,1323.55 580.58,1323.22 580.52,1322.95 L579.86,1320.46 C579.77,1320.13 579.5,1320.01 579.2,1320.07 C578.9,1320.13 578.45,1320.28 578.03,1320.28 C577.67,1320.28 577.22,1320.22 577.22,1319.56 L577.22,1315.81 L579.44,1315.81 C579.77,1315.81 580.01,1315.54 580.01,1315.24 L580.01,1312.57 C580.01,1312.24 579.77,1312 579.44,1312 L577.22,1312 L577.22,1308.67 C577.22,1308.37 576.98,1308.1 576.68,1308.1 L573.47,1308.1 C573.17,1308.1 572.9,1308.37 572.9,1308.67 L572.9,1312 L572.12,1312 C571.82,1312 571.58,1312.24 571.58,1312.57 L571.58,1315.24 C571.58,1315.54 571.82,1315.81 572.12,1315.81 L572.9,1315.81 L572.9,1320.13 Z M583.22,1320.13 C583.22,1322.86 584.54,1324.3 586.82,1324.3 C588.32,1324.3 590.45,1323.64 590.45,1323.64 C590.75,1323.55 590.9,1323.22 590.84,1322.95 L590.18,1320.46 C590.09,1320.13 589.82,1320.01 589.52,1320.07 C589.22,1320.13 588.77,1320.28 588.35,1320.28 C587.99,1320.28 587.54,1320.22 587.54,1319.56 L587.54,1315.81 L589.76,1315.81 C590.09,1315.81 590.33,1315.54 590.33,1315.24 L590.33,1312.57 C590.33,1312.24 590.09,1312 589.76,1312 L587.54,1312 L587.54,1308.67 C587.54,1308.37 587.3,1308.1 587,1308.1 L583.79,1308.1 C583.49,1308.1 583.22,1308.37 583.22,1308.67 L583.22,1312 L582.44,1312 C582.14,1312 581.9,1312.24 581.9,1312.57 L581.9,1315.24 C581.9,1315.54 582.14,1315.81 582.44,1315.81 L583.22,1315.81 L583.22,1320.13 Z M592.16,1318 C592.16,1321.45 594.86,1324.3 598.43,1324.3 C600.32,1324.3 601.82,1323.64 602.87,1322.59 C603.14,1322.32 603.08,1321.96 602.9,1321.72 L601.4,1319.92 C601.22,1319.71 600.92,1319.71 600.65,1319.92 C600.17,1320.28 599.3,1320.64 598.55,1320.64 C596.99,1320.64 596.33,1319.47 596.24,1318.66 L603.44,1318.66 C603.71,1318.66 603.98,1318.45 604.01,1318.15 C604.04,1317.94 604.07,1317.55 604.07,1317.34 C604.07,1314.04 601.43,1311.7 598.37,1311.7 C594.83,1311.7 592.16,1314.61 592.16,1318 L592.16,1318 Z M596.63,1316.32 C596.75,1315.54 597.44,1314.91 598.25,1314.91 C599.03,1314.91 599.78,1315.54 599.84,1316.32 L596.63,1316.32 Z M606.23,1323.43 C606.23,1323.73 606.5,1324 606.8,1324 L609.95,1324 C610.37,1324 610.49,1323.7 610.49,1323.43 L610.49,1317.67 C610.49,1316.44 611.57,1315.57 612.77,1315.57 C614.12,1315.57 614.81,1316.62 614.81,1317.82 L614.81,1323.43 C614.81,1323.73 615.05,1324 615.38,1324 L618.59,1324 C618.89,1324 619.16,1323.73 619.16,1323.43 L619.16,1317.97 C619.16,1314.55 617.18,1311.7 613.46,1311.7 C611.27,1311.7 609.89,1312.84 609.23,1313.56 L608.75,1312.36 C608.66,1312.15 608.39,1312 608.21,1312 L606.8,1312 C606.5,1312 606.23,1312.24 606.23,1312.57 L606.23,1323.43 Z" id="Adresse-der-Feier:" fill="#4A4A4A"></path>
            <g id="Kulturhof-Erpfenhausen2" transform="translate(368.000000, 1234.000000)">
                <path d="M275.73,21.43 C275.73,21.73 276,22 276.3,22 L279.45,22 C279.87,22 279.99,21.7 279.99,21.43 L279.99,15.67 C279.99,14.44 281.07,13.57 282.27,13.57 C283.62,13.57 284.31,14.62 284.31,15.82 L284.31,21.43 C284.31,21.73 284.55,22 284.88,22 L288.09,22 C288.39,22 288.66,21.73 288.66,21.43 L288.66,15.97 C288.66,12.55 286.68,9.7 282.96,9.7 C280.77,9.7 279.39,10.84 278.73,11.56 L278.25,10.36 C278.16,10.15 277.89,10 277.71,10 L276.3,10 C276,10 275.73,10.24 275.73,10.57 L275.73,21.43 Z" id="Path" fill="#FA4480"></path>
                <path d="M261.66,16 C261.66,19.45 264.36,22.3 267.93,22.3 C269.82,22.3 271.32,21.64 272.37,20.59 C272.64,20.32 272.58,19.96 272.4,19.72 L270.9,17.92 C270.72,17.71 270.42,17.71 270.15,17.92 C269.67,18.28 268.8,18.64 268.05,18.64 C266.49,18.64 265.83,17.47 265.74,16.66 L272.94,16.66 C273.21,16.66 273.48,16.45 273.51,16.15 C273.54,15.94 273.57,15.55 273.57,15.34 C273.57,12.04 270.93,9.7 267.87,9.7 C264.33,9.7 261.66,12.61 261.66,16 L261.66,16 Z" id="Path" fill="#FA4480"></path>
                <path d="M266.13,14.32 C266.25,13.54 266.94,12.91 267.75,12.91 C268.53,12.91 269.28,13.54 269.34,14.32 L266.13,14.32 Z" id="Path" fill="#FFFFFF"></path>
                <path d="M251.01,21.31 C251.61,21.79 253.11,22.3 255.09,22.3 C258.48,22.3 260.16,20.59 260.16,18.49 C260.16,16.09 258.48,15.13 256.05,14.29 C255.03,13.93 254.7,13.63 254.7,13.33 C254.7,13 254.97,12.91 255.36,12.91 C256.53,12.91 257.91,13.6 257.91,13.6 C258.15,13.69 258.45,13.6 258.54,13.42 L259.65,11.38 C259.83,11.08 259.62,10.81 259.35,10.63 C258.69,10.21 257.25,9.7 255.36,9.7 C252.12,9.7 250.68,11.32 250.68,13.33 C250.68,15.19 251.7,16.54 254.04,17.35 C255.57,17.89 255.75,18.31 255.75,18.61 C255.75,18.97 255.48,19.15 255.18,19.15 C253.89,19.15 252.48,18.37 252.48,18.37 C252.24,18.25 251.94,18.43 251.85,18.61 L250.8,20.68 C250.65,20.95 250.8,21.13 251.01,21.31 L251.01,21.31 Z" id="Path" fill="#FA4480"></path>
                <path d="M235.86,16 C235.86,19.42 237.57,22.3 241.14,22.3 C243.45,22.3 244.41,21.22 245.19,20.47 L245.64,21.58 C245.73,21.79 245.94,22 246.21,22 L247.62,22 C247.92,22 248.19,21.73 248.19,21.43 L248.19,10.57 C248.19,10.24 247.92,10 247.62,10 L244.56,10 C244.26,10 243.93,10.09 243.93,10.57 L243.93,16.3 C243.93,17.32 243.3,18.43 242.13,18.43 C240.9,18.43 240.21,17.35 240.21,16.12 L240.21,10.57 C240.21,10.24 239.94,10 239.64,10 L236.43,10 C236.13,10 235.86,10.24 235.86,10.57 L235.86,16 Z" id="Path" fill="#FA4480"></path>
                <path d="M222.45,18.34 C222.45,20.71 224.22,22.3 226.59,22.3 C228.48,22.3 229.53,21.43 230.22,20.8 L230.64,21.61 C230.79,21.94 231,22 231.18,22 L232.5,22 C232.8,22 233.07,21.73 233.07,21.43 L233.07,14.8 C233.07,11.26 231.72,9.7 228,9.7 C226.38,9.7 224.28,10.06 224.01,10.15 C223.74,10.24 223.47,10.45 223.56,10.96 L223.83,12.85 C223.89,13.3 224.1,13.63 224.55,13.48 C225.33,13.24 226.74,13.03 227.55,13.03 C228.99,13.03 229.17,13.63 229.17,14.8 C229.17,14.8 228.21,14.32 226.86,14.32 C224.13,14.32 222.45,16.03 222.45,18.34 L222.45,18.34 Z" id="Path" fill="#FA4480"></path>
                <path d="M226.35,18.04 C226.35,17.35 226.92,16.78 227.64,16.78 C228.36,16.78 228.93,17.35 228.96,18.04 C228.96,18.76 228.36,19.36 227.64,19.36 C226.92,19.36 226.35,18.76 226.35,18.04 L226.35,18.04 Z" id="Path" fill="#FFFFFF"></path>
                <path d="M207.36,21.43 C207.36,21.73 207.63,22 207.93,22 L211.17,22 C211.68,22 211.83,21.82 211.83,21.43 L211.83,15.94 C211.83,14.11 212.88,13.57 213.84,13.57 C215.16,13.57 216.03,14.62 216.03,15.94 L216.03,21.43 C216.03,21.73 216.27,22 216.6,22 L219.78,22 C220.08,22 220.35,21.73 220.35,21.43 L220.35,16 C220.35,12.67 218.4,9.7 214.62,9.7 C213.72,9.7 212.73,9.94 211.83,10.39 L211.83,1.57 C211.83,1.27 211.56,1 211.26,1 L207.93,1 C207.63,1 207.36,1.27 207.36,1.57 L207.36,21.43 Z" id="Path" fill="#FA4480"></path>
                <path d="M191.52,21.43 C191.52,21.73 191.79,22 192.09,22 L195.24,22 C195.66,22 195.78,21.7 195.78,21.43 L195.78,15.67 C195.78,14.44 196.86,13.57 198.06,13.57 C199.41,13.57 200.1,14.62 200.1,15.82 L200.1,21.43 C200.1,21.73 200.34,22 200.67,22 L203.88,22 C204.18,22 204.45,21.73 204.45,21.43 L204.45,15.97 C204.45,12.55 202.47,9.7 198.75,9.7 C196.56,9.7 195.18,10.84 194.52,11.56 L194.04,10.36 C193.95,10.15 193.68,10 193.5,10 L192.09,10 C191.79,10 191.52,10.24 191.52,10.57 L191.52,21.43 Z" id="Path" fill="#FA4480"></path>
                <path d="M177.45,16 C177.45,19.45 180.15,22.3 183.72,22.3 C185.61,22.3 187.11,21.64 188.16,20.59 C188.43,20.32 188.37,19.96 188.19,19.72 L186.69,17.92 C186.51,17.71 186.21,17.71 185.94,17.92 C185.46,18.28 184.59,18.64 183.84,18.64 C182.28,18.64 181.62,17.47 181.53,16.66 L188.73,16.66 C189,16.66 189.27,16.45 189.3,16.15 C189.33,15.94 189.36,15.55 189.36,15.34 C189.36,12.04 186.72,9.7 183.66,9.7 C180.12,9.7 177.45,12.61 177.45,16 L177.45,16 Z" id="Path" fill="#FA4480"></path>
                <path d="M181.92,14.32 C182.04,13.54 182.73,12.91 183.54,12.91 C184.32,12.91 185.07,13.54 185.13,14.32 L181.92,14.32 Z" id="Path" fill="#FFFFFF"></path>
                <path d="M168.3,21.43 C168.3,21.73 168.57,22 168.87,22 L172.32,22 C172.62,22 172.89,21.73 172.89,21.43 L172.89,13.81 L175.65,13.81 C175.98,13.81 176.22,13.54 176.22,13.24 L176.22,10.57 C176.22,10.24 175.98,10 175.65,10 L172.89,10 L172.89,7.24 C172.89,5.77 173.4,4.75 174.66,4.75 C175.26,4.75 175.83,5.02 176.22,5.23 C176.46,5.35 176.82,5.23 176.91,5.02 L178.17,2.53 C178.29,2.32 178.23,1.99 178.05,1.84 C177.54,1.36 175.95,0.7 174.39,0.7 C170.91,0.7 168.3,3.04 168.3,7.24 L168.3,10 L167.67,10 C167.34,10 167.1,10.24 167.1,10.57 L167.1,13.24 C167.1,13.54 167.34,13.81 167.67,13.81 L168.3,13.81 L168.3,21.43 Z" id="Path" fill="#FA4480"></path>
                <path d="M156.84,21.73 C157.2,21.94 158.31,22.3 159.33,22.3 C162.54,22.3 165.3,20.23 165.3,16 C165.3,12.55 162.75,9.7 159.36,9.7 C156.72,9.7 155.34,11.59 155.34,11.59 L154.98,10.6 C154.86,10.27 154.65,10 154.35,10 L152.94,10 C152.64,10 152.37,10.27 152.37,10.57 L152.37,30.43 C152.37,30.73 152.64,31 152.94,31 L156.27,31 C156.57,31 156.84,30.73 156.84,30.43 L156.84,21.73 Z" id="Path" fill="#FA4480"></path>
                <path d="M156.36,16.03 C156.36,14.65 157.38,13.57 158.76,13.57 C160.14,13.57 161.19,14.65 161.19,16.03 C161.19,17.38 160.14,18.43 158.76,18.43 C157.38,18.43 156.36,17.38 156.36,16.03 L156.36,16.03 Z" id="Path" fill="#FFFFFF"></path>
                <path d="M142.02,21.43 C142.02,21.73 142.29,22 142.59,22 L145.65,22 C146.13,22 146.31,21.79 146.31,21.43 L146.31,15.22 C146.31,14.2 147,13.51 147.9,13.51 C148.17,13.51 148.47,13.6 148.62,13.66 C148.95,13.78 149.16,13.6 149.28,13.39 L150.75,10.99 C151.17,10.3 150,9.7 148.35,9.7 C146.79,9.7 145.68,10.81 145.08,11.68 L144.54,10.36 C144.45,10.18 144.33,10 144,10 L142.59,10 C142.29,10 142.02,10.24 142.02,10.57 L142.02,21.43 Z" id="Path" fill="#FA4480"></path>
                <path d="M126.03,21.43 C126.03,21.73 126.27,22 126.6,22 L139.02,22 C139.35,22 139.59,21.73 139.59,21.43 L139.59,18.16 C139.59,17.86 139.35,17.59 139.02,17.59 L130.71,17.59 L130.71,13.54 L137.55,13.54 C137.85,13.54 138.12,13.3 138.12,12.97 L138.12,9.7 C138.12,9.4 137.85,9.13 137.55,9.13 L130.71,9.13 L130.71,5.41 L139.02,5.41 C139.35,5.41 139.59,5.14 139.59,4.84 L139.59,1.57 C139.59,1.27 139.35,1 139.02,1 L126.6,1 C126.27,1 126.03,1.27 126.03,1.57 L126.03,21.43 Z" id="Path" fill="#FA4480"></path>
                <path d="M108.39,21.43 C108.39,21.73 108.66,22 108.96,22 L112.41,22 C112.71,22 112.98,21.73 112.98,21.43 L112.98,13.81 L115.74,13.81 C116.07,13.81 116.31,13.54 116.31,13.24 L116.31,10.57 C116.31,10.24 116.07,10 115.74,10 L112.98,10 L112.98,7.24 C112.98,5.77 113.49,4.75 114.75,4.75 C115.35,4.75 115.92,5.02 116.31,5.23 C116.55,5.35 116.91,5.23 117,5.02 L118.26,2.53 C118.38,2.32 118.32,1.99 118.14,1.84 C117.63,1.36 116.04,0.7 114.48,0.7 C111,0.7 108.39,3.04 108.39,7.24 L108.39,10 L107.76,10 C107.43,10 107.19,10.24 107.19,10.57 L107.19,13.24 C107.19,13.54 107.43,13.81 107.76,13.81 L108.39,13.81 L108.39,21.43 Z" id="Path" fill="#FA4480"></path>
                <path d="M92.97,15.97 C92.97,19.42 95.79,22.3 99.21,22.3 C102.63,22.3 105.45,19.42 105.45,15.97 C105.45,12.58 102.63,9.7 99.21,9.7 C95.79,9.7 92.97,12.58 92.97,15.97 L92.97,15.97 Z" id="Path" fill="#FA4480"></path>
                <path d="M96.84,15.97 C96.84,14.65 97.89,13.57 99.21,13.57 C100.53,13.57 101.58,14.65 101.58,15.97 C101.58,17.32 100.53,18.43 99.21,18.43 C97.89,18.43 96.84,17.32 96.84,15.97 L96.84,15.97 Z" id="Path" fill="#FFFFFF"></path>
                <path d="M78,21.43 C78,21.73 78.27,22 78.57,22 L81.81,22 C82.32,22 82.47,21.82 82.47,21.43 L82.47,15.94 C82.47,14.11 83.52,13.57 84.48,13.57 C85.8,13.57 86.67,14.62 86.67,15.94 L86.67,21.43 C86.67,21.73 86.91,22 87.24,22 L90.42,22 C90.72,22 90.99,21.73 90.99,21.43 L90.99,16 C90.99,12.67 89.04,9.7 85.26,9.7 C84.36,9.7 83.37,9.94 82.47,10.39 L82.47,1.57 C82.47,1.27 82.2,1 81.9,1 L78.57,1 C78.27,1 78,1.27 78,1.57 L78,21.43 Z" id="Path" fill="#FA4480"></path>
                <path d="M67.65,21.43 C67.65,21.73 67.92,22 68.22,22 L71.28,22 C71.76,22 71.94,21.79 71.94,21.43 L71.94,15.22 C71.94,14.2 72.63,13.51 73.53,13.51 C73.8,13.51 74.1,13.6 74.25,13.66 C74.58,13.78 74.79,13.6 74.91,13.39 L76.38,10.99 C76.8,10.3 75.63,9.7 73.98,9.7 C72.42,9.7 71.31,10.81 70.71,11.68 L70.17,10.36 C70.08,10.18 69.96,10 69.63,10 L68.22,10 C67.92,10 67.65,10.24 67.65,10.57 L67.65,21.43 Z" id="Path" fill="#FA4480"></path>
                <path d="M52.08,16 C52.08,19.42 53.79,22.3 57.36,22.3 C59.67,22.3 60.63,21.22 61.41,20.47 L61.86,21.58 C61.95,21.79 62.16,22 62.43,22 L63.84,22 C64.14,22 64.41,21.73 64.41,21.43 L64.41,10.57 C64.41,10.24 64.14,10 63.84,10 L60.78,10 C60.48,10 60.15,10.09 60.15,10.57 L60.15,16.3 C60.15,17.32 59.52,18.43 58.35,18.43 C57.12,18.43 56.43,17.35 56.43,16.12 L56.43,10.57 C56.43,10.24 56.16,10 55.86,10 L52.65,10 C52.35,10 52.08,10.24 52.08,10.57 L52.08,16 Z" id="Path" fill="#FA4480"></path>
                <path d="M42.51,18.13 C42.51,20.86 43.83,22.3 46.11,22.3 C47.61,22.3 49.74,21.64 49.74,21.64 C50.04,21.55 50.19,21.22 50.13,20.95 L49.47,18.46 C49.38,18.13 49.11,18.01 48.81,18.07 C48.51,18.13 48.06,18.28 47.64,18.28 C47.28,18.28 46.83,18.22 46.83,17.56 L46.83,13.81 L49.05,13.81 C49.38,13.81 49.62,13.54 49.62,13.24 L49.62,10.57 C49.62,10.24 49.38,10 49.05,10 L46.83,10 L46.83,6.67 C46.83,6.37 46.59,6.1 46.29,6.1 L43.08,6.1 C42.78,6.1 42.51,6.37 42.51,6.67 L42.51,10 L41.73,10 C41.43,10 41.19,10.24 41.19,10.57 L41.19,13.24 C41.19,13.54 41.43,13.81 41.73,13.81 L42.51,13.81 L42.51,18.13 Z" id="Path" fill="#FA4480"></path>
                <path d="M34.35,21.43 C34.35,21.73 34.62,22 34.92,22 L38.22,22 C38.52,22 38.79,21.73 38.79,21.43 L38.79,1.57 C38.79,1.27 38.52,1 38.22,1 L34.92,1 C34.62,1 34.35,1.27 34.35,1.57 L34.35,21.43 Z" id="Path" fill="#FA4480"></path>
                <path d="M18.78,16 C18.78,19.42 20.49,22.3 24.06,22.3 C26.37,22.3 27.33,21.22 28.11,20.47 L28.56,21.58 C28.65,21.79 28.86,22 29.13,22 L30.54,22 C30.84,22 31.11,21.73 31.11,21.43 L31.11,10.57 C31.11,10.24 30.84,10 30.54,10 L27.48,10 C27.18,10 26.85,10.09 26.85,10.57 L26.85,16.3 C26.85,17.32 26.22,18.43 25.05,18.43 C23.82,18.43 23.13,17.35 23.13,16.12 L23.13,10.57 C23.13,10.24 22.86,10 22.56,10 L19.35,10 C19.05,10 18.78,10.24 18.78,10.57 L18.78,16 Z" id="Path" fill="#FA4480"></path>
                <path d="M0.63,21.28 C0.63,21.67 0.93,22 1.35,22 L4.86,22 C5.25,22 5.58,21.67 5.58,21.28 L5.58,12.34 L12.51,21.76 C12.57,21.85 12.84,21.97 13.05,21.97 L17.19,21.97 C17.76,21.97 18.09,21.31 17.76,20.86 L10.11,10.9 L17.13,2.11 C17.46,1.66 17.16,1 16.59,1 L12.81,1 C12.63,1 12.36,1.15 12.24,1.3 L5.58,9.61 L5.58,1.72 C5.58,1.33 5.25,1 4.86,1 L1.35,1 C0.93,1 0.63,1.33 0.63,1.72 L0.63,21.28 Z" id="Path" fill="#FA4480"></path>
            </g>
        </g>
    </g>
</svg>