<?xml version="1.0" encoding="UTF-8" standalone="no"?>
<svg width="1024px" height="125px" viewBox="0 0 1024 125" version="1.1" xmlns="http://www.w3.org/2000/svg" xmlns:xlink="http://www.w3.org/1999/xlink">
    <!-- Generator: Sketch 3.6.1 (26313) - http://www.bohemiancoding.com/sketch -->
    <title>wedding2</title>
    <desc>Created with Sketch.</desc>
    <defs></defs>
    <g id="Webseite" stroke="none" stroke-width="1" fill="none" fill-rule="evenodd">
        <g id="wedding" transform="translate(0.000000, -189.000000)">
            <path d="M429.41,215.57 C429.47,215.24 429.26,215 428.99,215 L427.58,215 C427.31,215 427.13,215.12 427.01,215.36 L426.41,216.59 C426.41,216.59 425.27,214.7 422.84,214.7 C419.57,214.7 416.72,217.79 416.72,221.75 C416.72,224.81 418.16,227.3 420.95,227.3 C422.87,227.3 424.4,226.16 425,225.5 L425.18,226.55 C425.21,226.82 425.39,227 425.63,227 L427.19,227 C427.46,227 427.73,226.73 427.79,226.43 L429.41,215.57 Z M422.36,223.4 C421.43,223.4 420.77,222.5 420.77,221.36 C420.77,219.83 421.94,218.63 423.05,218.63 C424.01,218.63 424.73,219.56 424.73,220.73 C424.73,222.26 423.71,223.4 422.36,223.4 L422.36,223.4 Z M431.03,226.43 C430.97,226.73 431.15,227 431.45,227 L434.72,227 C434.99,227 435.26,226.73 435.32,226.43 L436.13,220.61 C436.31,219.38 437.12,218.63 438.02,218.63 C439.16,218.63 439.43,219.56 439.25,220.76 L438.47,226.43 C438.41,226.73 438.59,227 438.89,227 L441.86,227 C442.16,227 442.4,226.73 442.46,226.43 L443.3,220.55 C443.48,219.32 444.29,218.63 445.19,218.63 C446.33,218.63 446.63,219.56 446.45,220.76 L445.67,226.43 C445.61,226.73 445.79,227 446.09,227 L449.36,227 C449.66,227 449.9,226.73 449.96,226.43 L450.71,221 C451.19,217.58 449.66,214.7 446.42,214.7 C444.65,214.7 443.12,215.72 442.4,216.56 C441.56,215.36 440.69,214.7 439.19,214.7 C437.57,214.7 436.07,215.69 435.29,216.56 L434.96,215.33 C434.87,215.15 434.72,215 434.54,215 L433.13,215 C432.83,215 432.59,215.24 432.53,215.57 L431.03,226.43 Z M461.87,226.43 C461.81,226.73 461.99,227 462.29,227 L465.71,227 C465.98,227 466.25,226.73 466.28,226.43 L468.98,207.17 C469.01,206.87 468.86,206.6 468.59,206.6 L465.74,206.6 L461.3,209.9 C461.18,209.99 461.03,210.2 461,210.35 L460.67,212.36 C460.58,212.66 460.76,212.93 461.03,212.93 L463.76,212.93 L461.87,226.43 Z M472.76,226.43 C472.7,226.73 472.88,227 473.18,227 L476.6,227 C476.87,227 477.14,226.73 477.17,226.43 L479.87,207.17 C479.9,206.87 479.75,206.6 479.48,206.6 L476.63,206.6 L472.19,209.9 C472.07,209.99 471.92,210.2 471.89,210.35 L471.56,212.36 C471.47,212.66 471.65,212.93 471.92,212.93 L474.65,212.93 L472.76,226.43 Z M480.83,224.81 C480.83,226.16 481.85,227.3 483.23,227.3 C484.85,227.3 486.44,225.86 486.44,224.15 C486.44,222.77 485.39,221.6 484.01,221.6 C482.39,221.6 480.83,223.1 480.83,224.81 L480.83,224.81 Z M493.79,225.11 C494.15,225.71 495.32,227.3 497.84,227.3 C501.56,227.3 503.75,225.2 504.38,220.73 L506.39,206.57 C506.42,206.27 506.21,206 505.91,206 L502.16,206 C501.86,206 501.62,206.27 501.59,206.57 L499.67,220.49 C499.43,222.14 498.62,222.98 497.87,222.98 C497.18,222.98 496.76,222.62 496.58,222.41 C496.37,222.17 496.1,222.2 495.89,222.41 L493.91,224.36 C493.73,224.57 493.64,224.87 493.79,225.11 L493.79,225.11 Z M511.31,227.3 C513.38,227.3 514.76,226.19 515.36,225.47 L515.69,226.64 C515.75,226.82 515.87,227 516.11,227 L517.55,227 C517.82,227 518.12,226.73 518.15,226.43 L519.68,215.57 C519.71,215.24 519.5,215 519.23,215 L516.2,215 C515.6,215 515.48,215.18 515.42,215.57 L514.58,221.39 C514.43,222.5 513.77,223.4 512.78,223.4 C511.91,223.4 511.55,222.68 511.76,221.21 L512.57,215.57 C512.6,215.24 512.39,215 512.12,215 L508.79,215 C508.52,215 508.25,215.24 508.22,215.57 L507.44,221 C506.9,224.96 508.25,227.3 511.31,227.3 L511.31,227.3 Z M521.33,226.43 C521.27,226.73 521.48,227 521.75,227 L524.78,227 C525.11,227 525.53,226.85 525.59,226.43 L526.4,220.61 C526.58,219.38 527.54,218.63 528.41,218.63 C529.58,218.63 530,219.56 529.82,220.76 L529.04,226.43 C528.98,226.73 529.16,227 529.46,227 L532.79,227 C533.06,227 533.33,226.73 533.39,226.43 L534.14,221 C534.62,217.58 532.79,214.7 529.67,214.7 C527.75,214.7 526.4,215.75 525.62,216.56 L525.29,215.36 C525.23,215.15 525.02,215 524.87,215 L523.43,215 C523.16,215 522.89,215.24 522.83,215.57 L521.33,226.43 Z M540.5,211.37 C541.88,211.37 543.2,210.2 543.2,208.7 C543.2,207.56 542.33,206.6 541.16,206.6 C539.75,206.6 538.49,207.83 538.49,209.3 C538.49,210.44 539.33,211.37 540.5,211.37 L540.5,211.37 Z M536.15,226.43 C536.12,226.73 536.33,227 536.6,227 L540.05,227 C540.32,227 540.62,226.73 540.65,226.43 L542.18,215.57 C542.21,215.24 542,215 541.73,215 L538.28,215 C538.01,215 537.74,215.24 537.68,215.57 L536.15,226.43 Z M550.19,227 L561.11,227 C561.38,227 561.68,226.73 561.71,226.43 L562.07,223.73 C562.1,223.43 561.92,223.16 561.65,223.16 L557.36,223.16 L561.5,217.55 C562.88,215.72 563.99,213.56 563.99,211.82 C563.99,208.55 561.89,206.3 558.35,206.3 C554.66,206.3 552.53,209.18 552.53,209.18 C552.29,209.42 552.26,209.78 552.44,209.96 L554.18,211.94 C554.36,212.18 554.69,212.18 554.93,211.94 C555.47,211.31 556.43,210.44 557.63,210.44 C558.56,210.44 559.49,211.04 559.49,212.24 C559.49,213.11 559.1,214.01 557.81,215.66 L549.83,225.83 L549.77,226.43 C549.74,226.73 549.89,227 550.19,227 L550.19,227 Z M572.06,227.3 C577.34,227.3 580.67,222.08 580.67,214.25 C580.67,209.39 578.36,206.27 574.88,206.27 C569.45,206.27 566.27,211.46 566.27,219.29 C566.27,224.15 568.55,227.3 572.06,227.3 L572.06,227.3 Z M572.6,222.71 C571.64,222.71 571.1,221.27 571.1,219.08 C571.1,214.64 572.36,210.86 574.34,210.86 C575.33,210.86 575.84,212.27 575.84,214.49 C575.84,218.87 574.64,222.71 572.6,222.71 L572.6,222.71 Z M584.69,226.43 C584.63,226.73 584.81,227 585.11,227 L588.53,227 C588.8,227 589.07,226.73 589.1,226.43 L591.8,207.17 C591.83,206.87 591.68,206.6 591.41,206.6 L588.56,206.6 L584.12,209.9 C584,209.99 583.85,210.2 583.82,210.35 L583.49,212.36 C583.4,212.66 583.58,212.93 583.85,212.93 L586.58,212.93 L584.69,226.43 Z M593.78,220.64 C593.78,224.42 595.91,227.3 599.3,227.3 C603.38,227.3 606.53,223.79 606.53,219.47 C606.53,216.11 604.28,213.92 601.97,213.92 C600.62,213.92 599.45,214.49 599.45,214.49 C600.5,211.4 604.22,209.96 605.6,209.51 C606.14,209.33 606.32,209 606.23,208.64 L605.69,206.42 C605.6,206 605.3,205.85 605,205.91 C602.45,206.48 593.78,210.32 593.78,220.64 L593.78,220.64 Z M599.81,223.16 C598.7,223.16 597.77,221.84 597.95,220.28 C598.19,218.3 599.36,217.37 600.62,217.37 C601.76,217.37 602.54,218.51 602.54,219.86 C602.54,221.63 601.37,223.16 599.81,223.16 L599.81,223.16 Z M448.13,249.57 C448.19,249.24 447.98,249 447.71,249 L446.3,249 C446.03,249 445.85,249.12 445.73,249.36 L445.13,250.59 C445.13,250.59 443.99,248.7 441.56,248.7 C438.29,248.7 435.44,251.79 435.44,255.75 C435.44,258.81 436.88,261.3 439.67,261.3 C441.59,261.3 443.12,260.16 443.72,259.5 L443.9,260.55 C443.93,260.82 444.11,261 444.35,261 L445.91,261 C446.18,261 446.45,260.73 446.51,260.43 L448.13,249.57 Z M441.08,257.4 C440.15,257.4 439.49,256.5 439.49,255.36 C439.49,253.83 440.66,252.63 441.77,252.63 C442.73,252.63 443.45,253.56 443.45,254.73 C443.45,256.26 442.43,257.4 441.08,257.4 L441.08,257.4 Z M449.75,260.43 C449.69,260.73 449.9,261 450.17,261 L451.58,261 C451.82,261 452.03,260.82 452.15,260.58 L452.75,259.41 C452.75,259.41 453.74,261.3 456.2,261.3 C459.8,261.3 462.56,258.03 462.56,254.19 C462.56,251.22 460.58,248.7 457.64,248.7 C456.65,248.7 455.78,249.18 455.78,249.18 L457.01,240.57 C457.04,240.27 456.83,240 456.56,240 L453.11,240 C452.84,240 452.57,240.27 452.54,240.57 L449.75,260.43 Z M454.43,255.36 C454.43,253.92 455.51,252.63 456.8,252.63 C457.73,252.63 458.39,253.53 458.39,254.64 C458.39,256.2 457.25,257.4 456.08,257.4 C455.15,257.4 454.43,256.5 454.43,255.36 L454.43,255.36 Z M473.18,260.43 C473.12,260.73 473.3,261 473.6,261 L477.02,261 C477.29,261 477.56,260.73 477.59,260.43 L480.29,241.17 C480.32,240.87 480.17,240.6 479.9,240.6 L477.05,240.6 L472.61,243.9 C472.49,243.99 472.34,244.2 472.31,244.35 L471.98,246.36 C471.89,246.66 472.07,246.93 472.34,246.93 L475.07,246.93 L473.18,260.43 Z M481.94,258.81 C482.57,259.71 484.58,261.3 487.1,261.3 C492.17,261.3 494.78,257.85 494.78,253.47 C494.78,250.17 492.71,247.59 489.53,247.59 L487.85,247.59 L488.3,244.38 L493.61,244.38 C493.88,244.38 494.18,244.11 494.21,243.81 L494.57,241.17 C494.6,240.87 494.42,240.6 494.15,240.6 L485.33,240.6 C485.03,240.6 484.76,240.87 484.73,241.17 L483.41,250.47 C483.35,250.95 483.56,251.52 484.1,251.52 L488.18,251.52 C489.53,251.52 490.37,252.6 490.37,253.98 C490.37,255.87 488.81,257.25 487.46,257.25 C485.87,257.25 484.91,256.32 484.67,256.08 C484.49,255.9 484.13,255.9 483.95,256.08 C482.9,256.98 482.48,257.37 482.03,257.79 C481.64,258.15 481.64,258.36 481.94,258.81 L481.94,258.81 Z M499.58,253.5 C500.96,253.5 502.22,252.3 502.22,250.83 C502.22,249.69 501.41,248.73 500.24,248.73 C498.89,248.73 497.63,249.96 497.63,251.43 C497.63,252.57 498.44,253.5 499.58,253.5 L499.58,253.5 Z M496.55,259.2 C496.55,260.34 497.36,261.27 498.5,261.27 C499.88,261.27 501.14,260.07 501.14,258.6 C501.14,257.46 500.3,256.5 499.16,256.5 C497.78,256.5 496.55,257.73 496.55,259.2 L496.55,259.2 Z M510.95,261.3 C516.23,261.3 519.56,256.08 519.56,248.25 C519.56,243.39 517.25,240.27 513.77,240.27 C508.34,240.27 505.16,245.46 505.16,253.29 C505.16,258.15 507.44,261.3 510.95,261.3 L510.95,261.3 Z M511.49,256.71 C510.53,256.71 509.99,255.27 509.99,253.08 C509.99,248.64 511.25,244.86 513.23,244.86 C514.22,244.86 514.73,246.27 514.73,248.49 C514.73,252.87 513.53,256.71 511.49,256.71 L511.49,256.71 Z M528.26,261.3 C533.54,261.3 536.87,256.08 536.87,248.25 C536.87,243.39 534.56,240.27 531.08,240.27 C525.65,240.27 522.47,245.46 522.47,253.29 C522.47,258.15 524.75,261.3 528.26,261.3 L528.26,261.3 Z M528.8,256.71 C527.84,256.71 527.3,255.27 527.3,253.08 C527.3,248.64 528.56,244.86 530.54,244.86 C531.53,244.86 532.04,246.27 532.04,248.49 C532.04,252.87 530.84,256.71 528.8,256.71 L528.8,256.71 Z M546.92,253.2 C546.26,257.76 549.56,261.3 553.58,261.3 C558.56,261.3 561.83,258.06 562.52,253.2 L564.26,240.57 C564.29,240.27 564.08,240 563.81,240 L560.03,240 C559.73,240 559.49,240.27 559.46,240.57 L557.75,252.96 C557.45,255.06 555.98,256.5 554.18,256.5 C552.53,256.5 551.48,255.06 551.78,252.96 L553.49,240.57 C553.52,240.27 553.31,240 553.04,240 L549.23,240 C548.96,240 548.69,240.27 548.66,240.57 L546.92,253.2 Z M564.68,260.43 C564.62,260.73 564.83,261 565.1,261 L568.49,261 C568.97,261 569.12,260.82 569.18,260.43 L569.93,255 C570.2,252.96 571.1,252.63 571.7,252.63 C572.84,252.63 573.44,253.68 573.23,255 L572.48,260.43 C572.45,260.73 572.6,261 572.9,261 L576.23,261 C576.5,261 576.77,260.73 576.83,260.43 L577.58,255 C578.06,251.67 576.35,248.7 573.08,248.7 C572.6,248.7 571.58,248.82 570.71,249.39 L571.97,240.57 C572,240.27 571.79,240 571.52,240 L568.07,240 C567.8,240 567.5,240.27 567.47,240.57 L564.68,260.43 Z M579.62,260.43 C579.56,260.73 579.77,261 580.04,261 L583.25,261 C583.73,261 583.85,260.79 583.91,260.43 L584.78,254.22 C584.93,253.2 585.62,252.6 586.25,252.6 C586.49,252.6 586.67,252.66 586.79,252.72 C586.97,252.81 587.21,252.78 587.39,252.51 L589.22,249.96 C589.4,249.69 589.37,249.45 589.16,249.27 C588.89,249.03 588.14,248.7 587.12,248.7 C585.23,248.7 583.97,250.68 583.97,250.68 L583.61,249.36 C583.55,249.15 583.4,249 583.16,249 L581.72,249 C581.45,249 581.18,249.24 581.15,249.57 L579.62,260.43 Z M336.35,283.57 C336.41,283.24 336.2,283 335.93,283 L334.52,283 C334.25,283 334.07,283.12 333.95,283.36 L333.35,284.59 C333.35,284.59 332.21,282.7 329.78,282.7 C326.51,282.7 323.66,285.79 323.66,289.75 C323.66,292.81 325.1,295.3 327.89,295.3 C329.81,295.3 331.34,294.16 331.94,293.5 L332.12,294.55 C332.15,294.82 332.33,295 332.57,295 L334.13,295 C334.4,295 334.67,294.73 334.73,294.43 L336.35,283.57 Z M329.3,291.4 C328.37,291.4 327.71,290.5 327.71,289.36 C327.71,287.83 328.88,286.63 329.99,286.63 C330.95,286.63 331.67,287.56 331.67,288.73 C331.67,290.26 330.65,291.4 329.3,291.4 L329.3,291.4 Z M342.38,295.3 C344.45,295.3 345.83,294.19 346.43,293.47 L346.76,294.64 C346.82,294.82 346.94,295 347.18,295 L348.62,295 C348.89,295 349.19,294.73 349.22,294.43 L350.75,283.57 C350.78,283.24 350.57,283 350.3,283 L347.27,283 C346.67,283 346.55,283.18 346.49,283.57 L345.65,289.39 C345.5,290.5 344.84,291.4 343.85,291.4 C342.98,291.4 342.62,290.68 342.83,289.21 L343.64,283.57 C343.67,283.24 343.46,283 343.19,283 L339.86,283 C339.59,283 339.32,283.24 339.29,283.57 L338.51,289 C337.97,292.96 339.32,295.3 342.38,295.3 L342.38,295.3 Z M353.21,286.81 L354.17,286.81 L351.92,303.43 C351.89,303.73 352.07,304 352.34,304 L355.91,304 C356.18,304 356.48,303.73 356.51,303.43 L358.76,286.81 L361.1,286.81 C361.4,286.81 361.7,286.54 361.73,286.24 L362.12,283.57 C362.15,283.24 361.94,283 361.64,283 L359.3,283 L359.69,280.24 C359.9,278.77 360.41,277.75 361.52,277.75 C362.03,277.75 362.57,277.9 362.9,278.08 C363.11,278.2 363.41,278.05 363.53,277.87 L364.97,275.53 C365.12,275.32 365.12,274.99 364.97,274.84 C364.58,274.39 363.17,273.7 361.79,273.7 C358.19,273.7 355.7,276.04 355.1,280.24 L354.71,283 L353.75,283 C353.45,283 353.21,283.24 353.18,283.57 L352.79,286.24 C352.76,286.54 352.91,286.81 353.21,286.81 L353.21,286.81 Z M373.88,295.3 C375.8,295.3 377.27,294.16 377.87,293.5 L378.2,294.64 C378.26,294.82 378.47,295 378.65,295 L380.06,295 C380.33,295 380.6,294.73 380.66,294.43 L383.45,274.57 C383.48,274.27 383.27,274 383,274 L379.61,274 C379.16,274 379.04,274.24 378.98,274.57 L377.75,283.18 C377.75,283.18 376.97,282.7 375.68,282.7 C372.44,282.7 369.35,285.67 369.35,289.69 C369.35,292.63 371.06,295.3 373.88,295.3 L373.88,295.3 Z M375.17,291.4 C374.24,291.4 373.52,290.5 373.52,289.36 C373.52,287.86 374.6,286.63 375.77,286.63 C376.7,286.63 377.51,287.53 377.48,288.73 C377.48,290.2 376.34,291.4 375.17,291.4 L375.17,291.4 Z M383.69,290.05 C383.69,292.81 385.52,295.3 388.61,295.3 C390.26,295.3 391.73,294.73 392.9,293.53 C393.08,293.32 393.14,292.93 392.96,292.72 L391.7,291.07 C391.46,290.77 391.13,290.8 390.95,290.95 C390.5,291.31 389.78,291.67 389.21,291.67 C387.89,291.67 387.59,290.71 387.62,289.9 C392,289.9 394.67,288.46 394.67,285.85 C394.67,283.9 392.75,282.7 390.71,282.7 C386.66,282.7 383.69,286 383.69,290.05 L383.69,290.05 Z M387.98,287.62 C388.28,286.6 389.36,285.82 390.23,285.82 C390.62,285.82 390.95,286.03 390.95,286.42 C390.95,287.53 387.98,287.62 387.98,287.62 L387.98,287.62 Z M395.69,294.43 C395.63,294.73 395.81,295 396.11,295 L399.38,295 C399.65,295 399.92,294.73 399.98,294.43 L400.79,288.61 C400.97,287.38 401.78,286.63 402.68,286.63 C403.82,286.63 404.09,287.56 403.91,288.76 L403.13,294.43 C403.07,294.73 403.25,295 403.55,295 L406.52,295 C406.82,295 407.06,294.73 407.12,294.43 L407.96,288.55 C408.14,287.32 408.95,286.63 409.85,286.63 C410.99,286.63 411.29,287.56 411.11,288.76 L410.33,294.43 C410.27,294.73 410.45,295 410.75,295 L414.02,295 C414.32,295 414.56,294.73 414.62,294.43 L415.37,289 C415.85,285.58 414.32,282.7 411.08,282.7 C409.31,282.7 407.78,283.72 407.06,284.56 C406.22,283.36 405.35,282.7 403.85,282.7 C402.23,282.7 400.73,283.69 399.95,284.56 L399.62,283.33 C399.53,283.15 399.38,283 399.2,283 L397.79,283 C397.49,283 397.25,283.24 397.19,283.57 L395.69,294.43 Z" id="am-11.-Juni-2016" fill="#4A4A4A"></path>
            <g id="Kulturhof-Erpfenhausen" transform="translate(425.000000, 273.000000)">
                <path d="M261.42,21.43 C261.36,21.73 261.57,22 261.84,22 L264.87,22 C265.2,22 265.62,21.85 265.68,21.43 L266.49,15.61 C266.67,14.38 267.63,13.63 268.5,13.63 C269.67,13.63 270.09,14.56 269.91,15.76 L269.13,21.43 C269.07,21.73 269.25,22 269.55,22 L272.88,22 C273.15,22 273.42,21.73 273.48,21.43 L274.23,16 C274.71,12.58 272.88,9.7 269.76,9.7 C267.84,9.7 266.49,10.75 265.71,11.56 L265.38,10.36 C265.32,10.15 265.11,10 264.96,10 L263.52,10 C263.25,10 262.98,10.24 262.92,10.57 L261.42,21.43 Z" id="Path" fill="#FA4480"></path>
                <path d="M249.42,17.05 C249.42,19.81 251.25,22.3 254.34,22.3 C255.99,22.3 257.46,21.73 258.63,20.53 C258.81,20.32 258.87,19.93 258.69,19.72 L257.43,18.07 C257.19,17.77 256.86,17.8 256.68,17.95 C256.23,18.31 255.51,18.67 254.94,18.67 C253.62,18.67 253.32,17.71 253.35,16.9 C257.73,16.9 260.4,15.46 260.4,12.85 C260.4,10.9 258.48,9.7 256.44,9.7 C252.39,9.7 249.42,13 249.42,17.05 L249.42,17.05 Z" id="Path" fill="#FA4480"></path>
                <path d="M238.74,21.28 C239.19,21.67 240.6,22.3 242.37,22.3 C245.88,22.3 247.62,20.62 247.62,18.19 C247.62,16.45 246.27,15.52 244.44,14.47 C243.87,14.14 243.51,13.9 243.51,13.54 C243.51,13.3 243.72,13.12 244.17,13.12 C245.1,13.12 245.85,13.45 246.3,13.66 C246.51,13.75 246.75,13.66 246.87,13.48 L248.04,11.38 C248.22,11.08 248.19,10.84 247.98,10.69 C247.53,10.39 246.03,9.7 244.26,9.7 C241.17,9.7 239.49,11.56 239.49,13.69 C239.49,15.16 240.45,16.18 242.07,17.14 C242.94,17.65 243.27,17.92 243.27,18.31 C243.27,18.58 243.06,18.85 242.52,18.85 C241.89,18.85 241.08,18.61 240.51,18.28 C240.24,18.13 239.97,18.28 239.85,18.46 L238.62,20.65 C238.44,20.92 238.56,21.1 238.74,21.28 L238.74,21.28 Z" id="Path" fill="#FA4480"></path>
                <path d="M229.11,22.3 C231.18,22.3 232.56,21.19 233.16,20.47 L233.49,21.64 C233.55,21.82 233.67,22 233.91,22 L235.35,22 C235.62,22 235.92,21.73 235.95,21.43 L237.48,10.57 C237.51,10.24 237.3,10 237.03,10 L234,10 C233.4,10 233.28,10.18 233.22,10.57 L232.38,16.39 C232.23,17.5 231.57,18.4 230.58,18.4 C229.71,18.4 229.35,17.68 229.56,16.21 L230.37,10.57 C230.4,10.24 230.19,10 229.92,10 L226.59,10 C226.32,10 226.05,10.24 226.02,10.57 L225.24,16 C224.7,19.96 226.05,22.3 229.11,22.3 L229.11,22.3 Z" id="Path" fill="#FA4480"></path>
                <path d="M223.08,10.57 C223.14,10.24 222.93,10 222.66,10 L221.25,10 C220.98,10 220.8,10.12 220.68,10.36 L220.08,11.59 C220.08,11.59 218.94,9.7 216.51,9.7 C213.24,9.7 210.39,12.79 210.39,16.75 C210.39,19.81 211.83,22.3 214.62,22.3 C216.54,22.3 218.07,21.16 218.67,20.5 L218.85,21.55 C218.88,21.82 219.06,22 219.3,22 L220.86,22 C221.13,22 221.4,21.73 221.46,21.43 L223.08,10.57 Z" id="Path" fill="#FA4480"></path>
                <path d="M195.51,21.43 C195.45,21.73 195.66,22 195.93,22 L199.32,22 C199.8,22 199.95,21.82 200.01,21.43 L200.76,16 C201.03,13.96 201.93,13.63 202.53,13.63 C203.67,13.63 204.27,14.68 204.06,16 L203.31,21.43 C203.28,21.73 203.43,22 203.73,22 L207.06,22 C207.33,22 207.6,21.73 207.66,21.43 L208.41,16 C208.89,12.67 207.18,9.7 203.91,9.7 C203.43,9.7 202.41,9.82 201.54,10.39 L202.8,1.57 C202.83,1.27 202.62,1 202.35,1 L198.9,1 C198.63,1 198.33,1.27 198.3,1.57 L195.51,21.43 Z" id="Path" fill="#FA4480"></path>
                <path d="M180.69,21.43 C180.63,21.73 180.84,22 181.11,22 L184.14,22 C184.47,22 184.89,21.85 184.95,21.43 L185.76,15.61 C185.94,14.38 186.9,13.63 187.77,13.63 C188.94,13.63 189.36,14.56 189.18,15.76 L188.4,21.43 C188.34,21.73 188.52,22 188.82,22 L192.15,22 C192.42,22 192.69,21.73 192.75,21.43 L193.5,16 C193.98,12.58 192.15,9.7 189.03,9.7 C187.11,9.7 185.76,10.75 184.98,11.56 L184.65,10.36 C184.59,10.15 184.38,10 184.23,10 L182.79,10 C182.52,10 182.25,10.24 182.19,10.57 L180.69,21.43 Z" id="Path" fill="#FA4480"></path>
                <path d="M168.69,17.05 C168.69,19.81 170.52,22.3 173.61,22.3 C175.26,22.3 176.73,21.73 177.9,20.53 C178.08,20.32 178.14,19.93 177.96,19.72 L176.7,18.07 C176.46,17.77 176.13,17.8 175.95,17.95 C175.5,18.31 174.78,18.67 174.21,18.67 C172.89,18.67 172.59,17.71 172.62,16.9 C177,16.9 179.67,15.46 179.67,12.85 C179.67,10.9 177.75,9.7 175.71,9.7 C171.66,9.7 168.69,13 168.69,17.05 L168.69,17.05 Z" id="Path" fill="#FA4480"></path>
                <path d="M159.33,13.81 L160.29,13.81 L158.04,30.43 C158.01,30.73 158.19,31 158.46,31 L162.03,31 C162.3,31 162.6,30.73 162.63,30.43 L164.88,13.81 L167.22,13.81 C167.52,13.81 167.82,13.54 167.85,13.24 L168.24,10.57 C168.27,10.24 168.06,10 167.76,10 L165.42,10 L165.81,7.24 C166.02,5.77 166.53,4.75 167.64,4.75 C168.15,4.75 168.69,4.9 169.02,5.08 C169.23,5.2 169.53,5.05 169.65,4.87 L171.09,2.53 C171.24,2.32 171.24,1.99 171.09,1.84 C170.7,1.39 169.29,0.7 167.91,0.7 C164.31,0.7 161.82,3.04 161.22,7.24 L160.83,10 L159.87,10 C159.57,10 159.33,10.24 159.3,10.57 L158.91,13.24 C158.88,13.54 159.03,13.81 159.33,13.81 L159.33,13.81 Z" id="Path" fill="#FA4480"></path>
                <path d="M148.56,21.82 C148.56,21.82 149.46,22.3 150.45,22.3 C153.96,22.3 156.99,19.18 156.99,15.13 C156.99,12.19 155.01,9.7 152.4,9.7 C150.45,9.7 149.19,10.69 148.44,11.56 L148.11,10.36 C148.05,10.15 147.84,10 147.66,10 L146.25,10 C145.98,10 145.71,10.24 145.65,10.57 L142.86,30.43 C142.83,30.73 143.04,31 143.31,31 L146.58,31 C146.82,31 147.27,30.91 147.33,30.43 L148.56,21.82 Z" id="Path" fill="#FA4480"></path>
                <path d="M134.28,21.43 C134.22,21.73 134.43,22 134.7,22 L137.91,22 C138.39,22 138.51,21.79 138.57,21.43 L139.44,15.22 C139.59,14.2 140.28,13.6 140.91,13.6 C141.15,13.6 141.33,13.66 141.45,13.72 C141.63,13.81 141.87,13.78 142.05,13.51 L143.88,10.96 C144.06,10.69 144.03,10.45 143.82,10.27 C143.55,10.03 142.8,9.7 141.78,9.7 C139.89,9.7 138.63,11.68 138.63,11.68 L138.27,10.36 C138.21,10.15 138.06,10 137.82,10 L136.38,10 C136.11,10 135.84,10.24 135.81,10.57 L134.28,21.43 Z" id="Path" fill="#FA4480"></path>
                <path d="M119.37,21.43 C119.31,21.73 119.49,22 119.79,22 L131.1,22 C131.4,22 131.67,21.73 131.7,21.43 L132.15,18.16 C132.18,17.86 132.03,17.59 131.73,17.59 L124.59,17.59 L125.16,13.54 L130.95,13.54 C131.22,13.54 131.49,13.3 131.55,12.97 L132.03,9.7 C132.06,9.4 131.85,9.13 131.58,9.13 L125.76,9.13 L126.3,5.41 L133.44,5.41 C133.74,5.41 133.98,5.14 134.01,4.84 L134.49,1.57 C134.52,1.27 134.34,1 134.04,1 L122.73,1 C122.46,1 122.19,1.27 122.16,1.57 L119.37,21.43 Z" id="Path" fill="#FA4480"></path>
                <path d="M102.24,13.81 L103.2,13.81 L100.95,30.43 C100.92,30.73 101.1,31 101.37,31 L104.94,31 C105.21,31 105.51,30.73 105.54,30.43 L107.79,13.81 L110.13,13.81 C110.43,13.81 110.73,13.54 110.76,13.24 L111.15,10.57 C111.18,10.24 110.97,10 110.67,10 L108.33,10 L108.72,7.24 C108.93,5.77 109.44,4.75 110.55,4.75 C111.06,4.75 111.6,4.9 111.93,5.08 C112.14,5.2 112.44,5.05 112.56,4.87 L114,2.53 C114.15,2.32 114.15,1.99 114,1.84 C113.61,1.39 112.2,0.7 110.82,0.7 C107.22,0.7 104.73,3.04 104.13,7.24 L103.74,10 L102.78,10 C102.48,10 102.24,10.24 102.21,10.57 L101.82,13.24 C101.79,13.54 101.94,13.81 102.24,13.81 L102.24,13.81 Z" id="Path" fill="#FA4480"></path>
                <path d="M88.44,16.75 C88.44,19.9 90.69,22.3 93.39,22.3 C97.14,22.3 99.9,19.15 99.9,15.31 C99.9,12.19 97.68,9.7 94.95,9.7 C91.05,9.7 88.44,12.94 88.44,16.75 L88.44,16.75 Z" id="Path" fill="#FA4480"></path>
                <path d="M73.59,21.43 C73.53,21.73 73.74,22 74.01,22 L77.4,22 C77.88,22 78.03,21.82 78.09,21.43 L78.84,16 C79.11,13.96 80.01,13.63 80.61,13.63 C81.75,13.63 82.35,14.68 82.14,16 L81.39,21.43 C81.36,21.73 81.51,22 81.81,22 L85.14,22 C85.41,22 85.68,21.73 85.74,21.43 L86.49,16 C86.97,12.67 85.26,9.7 81.99,9.7 C81.51,9.7 80.49,9.82 79.62,10.39 L80.88,1.57 C80.91,1.27 80.7,1 80.43,1 L76.98,1 C76.71,1 76.41,1.27 76.38,1.57 L73.59,21.43 Z" id="Path" fill="#FA4480"></path>
                <path d="M63.75,21.43 C63.69,21.73 63.9,22 64.17,22 L67.38,22 C67.86,22 67.98,21.79 68.04,21.43 L68.91,15.22 C69.06,14.2 69.75,13.6 70.38,13.6 C70.62,13.6 70.8,13.66 70.92,13.72 C71.1,13.81 71.34,13.78 71.52,13.51 L73.35,10.96 C73.53,10.69 73.5,10.45 73.29,10.27 C73.02,10.03 72.27,9.7 71.25,9.7 C69.36,9.7 68.1,11.68 68.1,11.68 L67.74,10.36 C67.68,10.15 67.53,10 67.29,10 L65.85,10 C65.58,10 65.31,10.24 65.28,10.57 L63.75,21.43 Z" id="Path" fill="#FA4480"></path>
                <path d="M53.73,22.3 C55.8,22.3 57.18,21.19 57.78,20.47 L58.11,21.64 C58.17,21.82 58.29,22 58.53,22 L59.97,22 C60.24,22 60.54,21.73 60.57,21.43 L62.1,10.57 C62.13,10.24 61.92,10 61.65,10 L58.62,10 C58.02,10 57.9,10.18 57.84,10.57 L57,16.39 C56.85,17.5 56.19,18.4 55.2,18.4 C54.33,18.4 53.97,17.68 54.18,16.21 L54.99,10.57 C55.02,10.24 54.81,10 54.54,10 L51.21,10 C50.94,10 50.67,10.24 50.64,10.57 L49.86,16 C49.32,19.96 50.67,22.3 53.73,22.3 L53.73,22.3 Z" id="Path" fill="#FA4480"></path>
                <path d="M40.5,18.13 C40.11,20.86 41.4,22.3 43.32,22.3 C44.85,22.3 46.41,21.79 46.71,21.61 C46.95,21.46 47.22,21.19 47.16,20.74 L46.92,18.52 C46.89,18.19 46.62,18.07 46.38,18.13 C46.11,18.19 45.9,18.25 45.57,18.25 C45.33,18.25 44.85,18.19 44.94,17.53 L45.45,13.81 L47.19,13.81 C47.49,13.81 47.76,13.54 47.79,13.24 L48.15,10.57 C48.18,10.24 48.03,10 47.73,10 L45.99,10 L46.44,6.67 C46.47,6.37 46.32,6.1 46.05,6.1 L42.69,6.1 C42.42,6.1 42.12,6.37 42.09,6.67 L41.64,10 L40.62,10 C40.35,10 40.08,10.24 40.05,10.57 L39.69,13.24 C39.66,13.54 39.81,13.81 40.08,13.81 L41.1,13.81 L40.5,18.13 Z" id="Path" fill="#FA4480"></path>
                <path d="M31.71,21.43 C31.68,21.73 31.86,22 32.13,22 L35.58,22 C35.85,22 36.15,21.73 36.18,21.43 L38.97,1.57 C39,1.27 38.79,1 38.52,1 L35.1,1 C34.83,1 34.53,1.27 34.5,1.57 L31.71,21.43 Z" id="Path" fill="#FA4480"></path>
                <path d="M21.69,22.3 C23.76,22.3 25.14,21.19 25.74,20.47 L26.07,21.64 C26.13,21.82 26.25,22 26.49,22 L27.93,22 C28.2,22 28.5,21.73 28.53,21.43 L30.06,10.57 C30.09,10.24 29.88,10 29.61,10 L26.58,10 C25.98,10 25.86,10.18 25.8,10.57 L24.96,16.39 C24.81,17.5 24.15,18.4 23.16,18.4 C22.29,18.4 21.93,17.68 22.14,16.21 L22.95,10.57 C22.98,10.24 22.77,10 22.5,10 L19.17,10 C18.9,10 18.63,10.24 18.6,10.57 L17.82,16 C17.28,19.96 18.63,22.3 21.69,22.3 L21.69,22.3 Z" id="Path" fill="#FA4480"></path>
                <path d="M0.12,21.28 C0.09,21.67 0.3,22 0.69,22 L4.32,22 C4.68,22 5.04,21.67 5.07,21.28 L6.33,12.34 L10.68,21.61 C10.8,21.88 11.01,22 11.28,22 L15.42,22 C15.72,22 16.26,21.61 16.02,21.13 L11.04,11.23 L18.21,2.11 C18.54,1.66 18.36,1 17.85,1 L13.5,1 C13.26,1 13.08,1.12 12.96,1.3 L6.72,9.61 L7.83,1.72 C7.89,1.33 7.62,1 7.26,1 L3.63,1 C3.24,1 2.94,1.33 2.88,1.72 L0.12,21.28 Z" id="Path" fill="#FA4480"></path>
                <path d="M253.71,14.62 C254.01,13.6 255.09,12.82 255.96,12.82 C256.35,12.82 256.68,13.03 256.68,13.42 C256.68,14.53 253.71,14.62 253.71,14.62 L253.71,14.62 Z" id="Path" fill="#FFFFFF"></path>
                <path d="M216.03,18.4 C215.1,18.4 214.44,17.5 214.44,16.36 C214.44,14.83 215.61,13.63 216.72,13.63 C217.68,13.63 218.4,14.56 218.4,15.73 C218.4,17.26 217.38,18.4 216.03,18.4 L216.03,18.4 Z" id="Path" fill="#FFFFFF"></path>
                <path d="M172.98,14.62 C173.28,13.6 174.36,12.82 175.23,12.82 C175.62,12.82 175.95,13.03 175.95,13.42 C175.95,14.53 172.98,14.62 172.98,14.62 L172.98,14.62 Z" id="Path" fill="#FFFFFF"></path>
                <path d="M148.83,16.3 C148.83,14.83 150.03,13.63 151.17,13.63 C152.1,13.63 152.79,14.53 152.79,15.67 C152.79,17.17 151.71,18.4 150.54,18.4 C149.46,18.4 148.77,17.29 148.83,16.3 L148.83,16.3 Z" id="Path" fill="#FFFFFF"></path>
                <path d="M93.84,18.4 C92.94,18.4 92.31,17.5 92.31,16.39 C92.31,14.86 93.36,13.63 94.5,13.63 C95.4,13.63 96.06,14.53 96.06,15.64 C96.06,17.17 94.98,18.4 93.84,18.4 L93.84,18.4 Z" id="Path" fill="#FFFFFF"></path>
            </g>
        </g>
    </g>
</svg>