<svg width="1024" height="125" viewBox="0 0 1024 125" xmlns="http://www.w3.org/2000/svg"><title>wedding2</title><g fill="none" fill-rule="evenodd"><path d="M429.41 26.57c.06-.33-.15-.57-.42-.57h-1.41c-.27 0-.45.12-.57.36l-.6 1.23s-1.14-1.89-3.57-1.89c-3.27 0-6.12 3.09-6.12 7.05 0 3.06 1.44 5.55 4.23 5.55 1.92 0 3.45-1.14 4.05-1.8l.18 1.05c.03.27.21.45.45.45h1.56c.27 0 .54-.27.6-.57l1.62-10.86zm-7.05 7.83c-.93 0-1.59-.9-1.59-2.04 0-1.53 1.17-2.73 2.28-2.73.96 0 1.68.93 1.68 2.1 0 1.53-1.02 2.67-2.37 2.67zm8.67 3.03c-.06.3.12.57.42.57h3.27c.27 0 .54-.27.6-.57l.81-5.82c.18-1.23.99-1.98 1.89-1.98 1.14 0 1.41.93 1.23 2.13l-.78 5.67c-.06.3.12.57.42.57h2.97c.3 0 .54-.27.6-.57l.84-5.88c.18-1.23.99-1.92 1.89-1.92 1.14 0 1.44.93 1.26 2.13l-.78 5.67c-.06.3.12.57.42.57h3.27c.3 0 .54-.27.6-.57l.75-5.43c.48-3.42-1.05-6.3-4.29-6.3-1.77 0-3.3 1.02-4.02 1.86-.84-1.2-1.71-1.86-3.21-1.86-1.62 0-3.12.99-3.9 1.86l-.33-1.23c-.09-.18-.24-.33-.42-.33h-1.41c-.3 0-.54.24-.6.57l-1.5 10.86zm30.84 0c-.06.3.12.57.42.57h3.42c.27 0 .54-.27.57-.57l2.7-19.26c.03-.3-.12-.57-.39-.57h-2.85l-4.44 3.3c-.12.09-.27.3-.3.45l-.33 2.01c-.09.3.09.57.36.57h2.73l-1.89 13.5zm10.89 0c-.06.3.12.57.42.57h3.42c.27 0 .54-.27.57-.57l2.7-19.26c.03-.3-.12-.57-.39-.57h-2.85l-4.44 3.3c-.12.09-.27.3-.3.45l-.33 2.01c-.09.3.09.57.36.57h2.73l-1.89 13.5zm8.07-1.62c0 1.35 1.02 2.49 2.4 2.49 1.62 0 3.21-1.44 3.21-3.15 0-1.38-1.05-2.55-2.43-2.55-1.62 0-3.18 1.5-3.18 3.21zm12.96.3c.36.6 1.53 2.19 4.05 2.19 3.72 0 5.91-2.1 6.54-6.57l2.01-14.16c.03-.3-.18-.57-.48-.57h-3.75c-.3 0-.54.27-.57.57l-1.92 13.92c-.24 1.65-1.05 2.49-1.8 2.49-.69 0-1.11-.36-1.29-.57-.21-.24-.48-.21-.69 0l-1.98 1.95c-.18.21-.27.51-.12.75zm17.52 2.19c2.07 0 3.45-1.11 4.05-1.83l.33 1.17c.06.18.18.36.42.36h1.44c.27 0 .57-.27.6-.57l1.53-10.86c.03-.33-.18-.57-.45-.57h-3.03c-.6 0-.72.18-.78.57l-.84 5.82c-.15 1.11-.81 2.01-1.8 2.01-.87 0-1.23-.72-1.02-2.19l.81-5.64c.03-.33-.18-.57-.45-.57h-3.33c-.27 0-.54.24-.57.57l-.78 5.43c-.54 3.96.81 6.3 3.87 6.3zm10.02-.87c-.06.3.15.57.42.57h3.03c.33 0 .75-.15.81-.57l.81-5.82c.18-1.23 1.14-1.98 2.01-1.98 1.17 0 1.59.93 1.41 2.13l-.78 5.67c-.06.3.12.57.42.57h3.33c.27 0 .54-.27.6-.57l.75-5.43c.48-3.42-1.35-6.3-4.47-6.3-1.92 0-3.27 1.05-4.05 1.86l-.33-1.2c-.06-.21-.27-.36-.42-.36h-1.44c-.27 0-.54.24-.6.57l-1.5 10.86zm19.17-15.06c1.38 0 2.7-1.17 2.7-2.67 0-1.14-.87-2.1-2.04-2.1-1.41 0-2.67 1.23-2.67 2.7 0 1.14.84 2.07 2.01 2.07zm-4.35 15.06c-.03.3.18.57.45.57h3.45c.27 0 .57-.27.6-.57l1.53-10.86c.03-.33-.18-.57-.45-.57h-3.45c-.27 0-.54.24-.6.57l-1.53 10.86zm14.04.57h10.92c.27 0 .57-.27.6-.57l.36-2.7c.03-.3-.15-.57-.42-.57h-4.29l4.14-5.61c1.38-1.83 2.49-3.99 2.49-5.73 0-3.27-2.1-5.52-5.64-5.52-3.69 0-5.82 2.88-5.82 2.88-.24.24-.27.6-.09.78l1.74 1.98c.18.24.51.24.75 0 .54-.63 1.5-1.5 2.7-1.5.93 0 1.86.6 1.86 1.8 0 .87-.39 1.77-1.68 3.42l-7.98 10.17-.06.6c-.03.3.12.57.42.57zm21.87.3c5.28 0 8.61-5.22 8.61-13.05 0-4.86-2.31-7.98-5.79-7.98-5.43 0-8.61 5.19-8.61 13.02 0 4.86 2.28 8.01 5.79 8.01zm.54-4.59c-.96 0-1.5-1.44-1.5-3.63 0-4.44 1.26-8.22 3.24-8.22.99 0 1.5 1.41 1.5 3.63 0 4.38-1.2 8.22-3.24 8.22zm12.09 3.72c-.06.3.12.57.42.57h3.42c.27 0 .54-.27.57-.57l2.7-19.26c.03-.3-.12-.57-.39-.57h-2.85l-4.44 3.3c-.12.09-.27.3-.3.45l-.33 2.01c-.09.3.09.57.36.57h2.73l-1.89 13.5zm9.09-5.79c0 3.78 2.13 6.66 5.52 6.66 4.08 0 7.23-3.51 7.23-7.83 0-3.36-2.25-5.55-4.56-5.55-1.35 0-2.52.57-2.52.57 1.05-3.09 4.77-4.53 6.15-4.98.54-.18.72-.51.63-.87l-.54-2.22c-.09-.42-.39-.57-.69-.51-2.55.57-11.22 4.41-11.22 14.73zm6.03 2.52c-1.11 0-2.04-1.32-1.86-2.88.24-1.98 1.41-2.91 2.67-2.91 1.14 0 1.92 1.14 1.92 2.49 0 1.77-1.17 3.3-2.73 3.3zM448.13 60.57c.06-.33-.15-.57-.42-.57h-1.41c-.27 0-.45.12-.57.36l-.6 1.23s-1.14-1.89-3.57-1.89c-3.27 0-6.12 3.09-6.12 7.05 0 3.06 1.44 5.55 4.23 5.55 1.92 0 3.45-1.14 4.05-1.8l.18 1.05c.03.27.21.45.45.45h1.56c.27 0 .54-.27.6-.57l1.62-10.86zm-7.05 7.83c-.93 0-1.59-.9-1.59-2.04 0-1.53 1.17-2.73 2.28-2.73.96 0 1.68.93 1.68 2.1 0 1.53-1.02 2.67-2.37 2.67zm8.67 3.03c-.06.3.15.57.42.57h1.41c.24 0 .45-.18.57-.42l.6-1.17s.99 1.89 3.45 1.89c3.6 0 6.36-3.27 6.36-7.11 0-2.97-1.98-5.49-4.92-5.49-.99 0-1.86.48-1.86.48l1.23-8.61c.03-.3-.18-.57-.45-.57h-3.45c-.27 0-.54.27-.57.57l-2.79 19.86zm4.68-5.07c0-1.44 1.08-2.73 2.37-2.73.93 0 1.59.9 1.59 2.01 0 1.56-1.14 2.76-2.31 2.76-.93 0-1.65-.9-1.65-2.04zm18.75 5.07c-.06.3.12.57.42.57h3.42c.27 0 .54-.27.57-.57l2.7-19.26c.03-.3-.12-.57-.39-.57h-2.85l-4.44 3.3c-.12.09-.27.3-.3.45l-.33 2.01c-.09.3.09.57.36.57h2.73l-1.89 13.5zm8.76-1.62c.63.9 2.64 2.49 5.16 2.49 5.07 0 7.68-3.45 7.68-7.83 0-3.3-2.07-5.88-5.25-5.88h-1.68l.45-3.21h5.31c.27 0 .57-.27.6-.57l.36-2.64c.03-.3-.15-.57-.42-.57h-8.82c-.3 0-.57.27-.6.57l-1.32 9.3c-.06.48.15 1.05.69 1.05h4.08c1.35 0 2.19 1.08 2.19 2.46 0 1.89-1.56 3.27-2.91 3.27-1.59 0-2.55-.93-2.79-1.17-.18-.18-.54-.18-.72 0-1.05.9-1.47 1.29-1.92 1.71-.39.36-.39.57-.09 1.02zm17.64-5.31c1.38 0 2.64-1.2 2.64-2.67 0-1.14-.81-2.1-1.98-2.1-1.35 0-2.61 1.23-2.61 2.7 0 1.14.81 2.07 1.95 2.07zm-3.03 5.7c0 1.14.81 2.07 1.95 2.07 1.38 0 2.64-1.2 2.64-2.67 0-1.14-.84-2.1-1.98-2.1-1.38 0-2.61 1.23-2.61 2.7zm14.4 2.1c5.28 0 8.61-5.22 8.61-13.05 0-4.86-2.31-7.98-5.79-7.98-5.43 0-8.61 5.19-8.61 13.02 0 4.86 2.28 8.01 5.79 8.01zm.54-4.59c-.96 0-1.5-1.44-1.5-3.63 0-4.44 1.26-8.22 3.24-8.22.99 0 1.5 1.41 1.5 3.63 0 4.38-1.2 8.22-3.24 8.22zm16.77 4.59c5.28 0 8.61-5.22 8.61-13.05 0-4.86-2.31-7.98-5.79-7.98-5.43 0-8.61 5.19-8.61 13.02 0 4.86 2.28 8.01 5.79 8.01zm.54-4.59c-.96 0-1.5-1.44-1.5-3.63 0-4.44 1.26-8.22 3.24-8.22.99 0 1.5 1.41 1.5 3.63 0 4.38-1.2 8.22-3.24 8.22zm18.12-3.51c-.66 4.56 2.64 8.1 6.66 8.1 4.98 0 8.25-3.24 8.94-8.1l1.74-12.63c.03-.3-.18-.57-.45-.57h-3.78c-.3 0-.54.27-.57.57l-1.71 12.39c-.3 2.1-1.77 3.54-3.57 3.54-1.65 0-2.7-1.44-2.4-3.54l1.71-12.39c.03-.3-.18-.57-.45-.57h-3.81c-.27 0-.54.27-.57.57l-1.74 12.63zm17.76 7.23c-.06.3.15.57.42.57h3.39c.48 0 .63-.18.69-.57l.75-5.43c.27-2.04 1.17-2.37 1.77-2.37 1.14 0 1.74 1.05 1.53 2.37l-.75 5.43c-.03.3.12.57.42.57h3.33c.27 0 .54-.27.6-.57l.75-5.43c.48-3.33-1.23-6.3-4.5-6.3-.48 0-1.5.12-2.37.69l1.26-8.82c.03-.3-.18-.57-.45-.57h-3.45c-.27 0-.57.27-.6.57l-2.79 19.86zm14.94 0c-.06.3.15.57.42.57h3.21c.48 0 .6-.21.66-.57l.87-6.21c.15-1.02.84-1.62 1.47-1.62.24 0 .42.06.54.12.18.09.42.06.6-.21l1.83-2.55c.18-.27.15-.51-.06-.69-.27-.24-1.02-.57-2.04-.57-1.89 0-3.15 1.98-3.15 1.98l-.36-1.32c-.06-.21-.21-.36-.45-.36h-1.44c-.27 0-.54.24-.57.57l-1.53 10.86zM336.35 94.57c.06-.33-.15-.57-.42-.57h-1.41c-.27 0-.45.12-.57.36l-.6 1.23s-1.14-1.89-3.57-1.89c-3.27 0-6.12 3.09-6.12 7.05 0 3.06 1.44 5.55 4.23 5.55 1.92 0 3.45-1.14 4.05-1.8l.18 1.05c.03.27.21.45.45.45h1.56c.27 0 .54-.27.6-.57l1.62-10.86zm-7.05 7.83c-.93 0-1.59-.9-1.59-2.04 0-1.53 1.17-2.73 2.28-2.73.96 0 1.68.93 1.68 2.1 0 1.53-1.02 2.67-2.37 2.67zm13.08 3.9c2.07 0 3.45-1.11 4.05-1.83l.33 1.17c.06.18.18.36.42.36h1.44c.27 0 .57-.27.6-.57l1.53-10.86c.03-.33-.18-.57-.45-.57h-3.03c-.6 0-.72.18-.78.57l-.84 5.82c-.15 1.11-.81 2.01-1.8 2.01-.87 0-1.23-.72-1.02-2.19l.81-5.64c.03-.33-.18-.57-.45-.57h-3.33c-.27 0-.54.24-.57.57l-.78 5.43c-.54 3.96.81 6.3 3.87 6.3zm10.83-8.49h.96l-2.25 16.62c-.03.3.15.57.42.57h3.57c.27 0 .57-.27.6-.57l2.25-16.62h2.34c.3 0 .6-.27.63-.57l.39-2.67c.03-.33-.18-.57-.48-.57h-2.34l.39-2.76c.21-1.47.72-2.49 1.83-2.49.51 0 1.05.15 1.38.33.21.12.51-.03.63-.21l1.44-2.34c.15-.21.15-.54 0-.69-.39-.45-1.8-1.14-3.18-1.14-3.6 0-6.09 2.34-6.69 6.54l-.39 2.76h-.96c-.3 0-.54.24-.57.57l-.39 2.67c-.03.3.12.57.42.57zm20.67 8.49c1.92 0 3.39-1.14 3.99-1.8l.33 1.14c.06.18.27.36.45.36h1.41c.27 0 .54-.27.6-.57l2.79-19.86c.03-.3-.18-.57-.45-.57h-3.39c-.45 0-.57.24-.63.57l-1.23 8.61s-.78-.48-2.07-.48c-3.24 0-6.33 2.97-6.33 6.99 0 2.94 1.71 5.61 4.53 5.61zm1.29-3.9c-.93 0-1.65-.9-1.65-2.04 0-1.5 1.08-2.73 2.25-2.73.93 0 1.74.9 1.71 2.1 0 1.47-1.14 2.67-2.31 2.67zm8.52-1.35c0 2.76 1.83 5.25 4.92 5.25 1.65 0 3.12-.57 4.29-1.77.18-.21.24-.6.06-.81l-1.26-1.65c-.24-.3-.57-.27-.75-.12-.45.36-1.17.72-1.74.72-1.32 0-1.62-.96-1.59-1.77 4.38 0 7.05-1.44 7.05-4.05 0-1.95-1.92-3.15-3.96-3.15-4.05 0-7.02 3.3-7.02 7.35zm4.29-2.43c.3-1.02 1.38-1.8 2.25-1.8.39 0 .72.21.72.6 0 1.11-2.97 1.2-2.97 1.2zm7.71 6.81c-.06.3.12.57.42.57h3.27c.27 0 .54-.27.6-.57l.81-5.82c.18-1.23.99-1.98 1.89-1.98 1.14 0 1.41.93 1.23 2.13l-.78 5.67c-.06.3.12.57.42.57h2.97c.3 0 .54-.27.6-.57l.84-5.88c.18-1.23.99-1.92 1.89-1.92 1.14 0 1.44.93 1.26 2.13l-.78 5.67c-.06.3.12.57.42.57h3.27c.3 0 .54-.27.6-.57l.75-5.43c.48-3.42-1.05-6.3-4.29-6.3-1.77 0-3.3 1.02-4.02 1.86-.84-1.2-1.71-1.86-3.21-1.86-1.62 0-3.12.99-3.9 1.86l-.33-1.23c-.09-.18-.24-.33-.42-.33h-1.41c-.3 0-.54.24-.6.57l-1.5 10.86z" fill="#4A4A4A"/><path d="M686.42 105.43c-.06.3.15.57.42.57h3.03c.33 0 .75-.15.81-.57l.81-5.82c.18-1.23 1.14-1.98 2.01-1.98 1.17 0 1.59.93 1.41 2.13l-.78 5.67c-.06.3.12.57.42.57h3.33c.27 0 .54-.27.6-.57l.75-5.43c.48-3.42-1.35-6.3-4.47-6.3-1.92 0-3.27 1.05-4.05 1.86l-.33-1.2c-.06-.21-.27-.36-.42-.36h-1.44c-.27 0-.54.24-.6.57l-1.5 10.86zM674.42 101.05c0 2.76 1.83 5.25 4.92 5.25 1.65 0 3.12-.57 4.29-1.77.18-.21.24-.6.06-.81l-1.26-1.65c-.24-.3-.57-.27-.75-.12-.45.36-1.17.72-1.74.72-1.32 0-1.62-.96-1.59-1.77 4.38 0 7.05-1.44 7.05-4.05 0-1.95-1.92-3.15-3.96-3.15-4.05 0-7.02 3.3-7.02 7.35zM663.74 105.28c.45.39 1.86 1.02 3.63 1.02 3.51 0 5.25-1.68 5.25-4.11 0-1.74-1.35-2.67-3.18-3.72-.57-.33-.93-.57-.93-.93 0-.24.21-.42.66-.42.93 0 1.68.33 2.13.54.21.09.45 0 .57-.18l1.17-2.1c.18-.3.15-.54-.06-.69-.45-.3-1.95-.99-3.72-.99-3.09 0-4.77 1.86-4.77 3.99 0 1.47.96 2.49 2.58 3.45.87.51 1.2.78 1.2 1.17 0 .27-.21.54-.75.54-.63 0-1.44-.24-2.01-.57-.27-.15-.54 0-.66.18l-1.23 2.19c-.18.27-.06.45.12.63zM654.11 106.3c2.07 0 3.45-1.11 4.05-1.83l.33 1.17c.06.18.18.36.42.36h1.44c.27 0 .57-.27.6-.57l1.53-10.86c.03-.33-.18-.57-.45-.57H659c-.6 0-.72.18-.78.57l-.84 5.82c-.15 1.11-.81 2.01-1.8 2.01-.87 0-1.23-.72-1.02-2.19l.81-5.64c.03-.33-.18-.57-.45-.57h-3.33c-.27 0-.54.24-.57.57l-.78 5.43c-.54 3.96.81 6.3 3.87 6.3zM648.08 94.57c.06-.33-.15-.57-.42-.57h-1.41c-.27 0-.45.12-.57.36l-.6 1.23s-1.14-1.89-3.57-1.89c-3.27 0-6.12 3.09-6.12 7.05 0 3.06 1.44 5.55 4.23 5.55 1.92 0 3.45-1.14 4.05-1.8l.18 1.05c.03.27.21.45.45.45h1.56c.27 0 .54-.27.6-.57l1.62-10.86zM620.51 105.43c-.06.3.15.57.42.57h3.39c.48 0 .63-.18.69-.57l.75-5.43c.27-2.04 1.17-2.37 1.77-2.37 1.14 0 1.74 1.05 1.53 2.37l-.75 5.43c-.03.3.12.57.42.57h3.33c.27 0 .54-.27.6-.57l.75-5.43c.48-3.33-1.23-6.3-4.5-6.3-.48 0-1.5.12-2.37.69l1.26-8.82c.03-.3-.18-.57-.45-.57h-3.45c-.27 0-.57.27-.6.57l-2.79 19.86zM605.69 105.43c-.06.3.15.57.42.57h3.03c.33 0 .75-.15.81-.57l.81-5.82c.18-1.23 1.14-1.98 2.01-1.98 1.17 0 1.59.93 1.41 2.13l-.78 5.67c-.06.3.12.57.42.57h3.33c.27 0 .54-.27.6-.57l.75-5.43c.48-3.42-1.35-6.3-4.47-6.3-1.92 0-3.27 1.05-4.05 1.86l-.33-1.2c-.06-.21-.27-.36-.42-.36h-1.44c-.27 0-.54.24-.6.57l-1.5 10.86zM593.69 101.05c0 2.76 1.83 5.25 4.92 5.25 1.65 0 3.12-.57 4.29-1.77.18-.21.24-.6.06-.81l-1.26-1.65c-.24-.3-.57-.27-.75-.12-.45.36-1.17.72-1.74.72-1.32 0-1.62-.96-1.59-1.77 4.38 0 7.05-1.44 7.05-4.05 0-1.95-1.92-3.15-3.96-3.15-4.05 0-7.02 3.3-7.02 7.35zM584.33 97.81h.96l-2.25 16.62c-.03.3.15.57.42.57h3.57c.27 0 .57-.27.6-.57l2.25-16.62h2.34c.3 0 .6-.27.63-.57l.39-2.67c.03-.33-.18-.57-.48-.57h-2.34l.39-2.76c.21-1.47.72-2.49 1.83-2.49.51 0 1.05.15 1.38.33.21.12.51-.03.63-.21l1.44-2.34c.15-.21.15-.54 0-.69-.39-.45-1.8-1.14-3.18-1.14-3.6 0-6.09 2.34-6.69 6.54l-.39 2.76h-.96c-.3 0-.54.24-.57.57l-.39 2.67c-.03.3.12.57.42.57zM573.56 105.82s.9.48 1.89.48c3.51 0 6.54-3.12 6.54-7.17 0-2.94-1.98-5.43-4.59-5.43-1.95 0-3.21.99-3.96 1.86l-.33-1.2a.507.507 0 0 0-.45-.36h-1.41c-.27 0-.54.24-.6.57l-2.79 19.86c-.03.3.18.57.45.57h3.27c.24 0 .69-.09.75-.57l1.23-8.61zM559.28 105.43c-.06.3.15.57.42.57h3.21c.48 0 .6-.21.66-.57l.87-6.21c.15-1.02.84-1.62 1.47-1.62.24 0 .42.06.54.12.18.09.42.06.6-.21l1.83-2.55c.18-.27.15-.51-.06-.69-.27-.24-1.02-.57-2.04-.57-1.89 0-3.15 1.98-3.15 1.98l-.36-1.32c-.06-.21-.21-.36-.45-.36h-1.44c-.27 0-.54.24-.57.57l-1.53 10.86zM544.37 105.43c-.06.3.12.57.42.57h11.31c.3 0 .57-.27.6-.57l.45-3.27c.03-.3-.12-.57-.42-.57h-7.14l.57-4.05h5.79c.27 0 .54-.24.6-.57l.48-3.27c.03-.3-.18-.57-.45-.57h-5.82l.54-3.72h7.14c.3 0 .54-.27.57-.57l.48-3.27c.03-.3-.15-.57-.45-.57h-11.31c-.27 0-.54.27-.57.57l-2.79 19.86zM527.24 97.81h.96l-2.25 16.62c-.03.3.15.57.42.57h3.57c.27 0 .57-.27.6-.57l2.25-16.62h2.34c.3 0 .6-.27.63-.57l.39-2.67c.03-.33-.18-.57-.48-.57h-2.34l.39-2.76c.21-1.47.72-2.49 1.83-2.49.51 0 1.05.15 1.38.33.21.12.51-.03.63-.21l1.44-2.34c.15-.21.15-.54 0-.69-.39-.45-1.8-1.14-3.18-1.14-3.6 0-6.09 2.34-6.69 6.54l-.39 2.76h-.96c-.3 0-.54.24-.57.57l-.39 2.67c-.03.3.12.57.42.57zM513.44 100.75c0 3.15 2.25 5.55 4.95 5.55 3.75 0 6.51-3.15 6.51-6.99 0-3.12-2.22-5.61-4.95-5.61-3.9 0-6.51 3.24-6.51 7.05zM498.59 105.43c-.06.3.15.57.42.57h3.39c.48 0 .63-.18.69-.57l.75-5.43c.27-2.04 1.17-2.37 1.77-2.37 1.14 0 1.74 1.05 1.53 2.37l-.75 5.43c-.03.3.12.57.42.57h3.33c.27 0 .54-.27.6-.57l.75-5.43c.48-3.33-1.23-6.3-4.5-6.3-.48 0-1.5.12-2.37.69l1.26-8.82c.03-.3-.18-.57-.45-.57h-3.45c-.27 0-.57.27-.6.57l-2.79 19.86zM488.75 105.43c-.06.3.15.57.42.57h3.21c.48 0 .6-.21.66-.57l.87-6.21c.15-1.02.84-1.62 1.47-1.62.24 0 .42.06.54.12.18.09.42.06.6-.21l1.83-2.55c.18-.27.15-.51-.06-.69-.27-.24-1.02-.57-2.04-.57-1.89 0-3.15 1.98-3.15 1.98l-.36-1.32c-.06-.21-.21-.36-.45-.36h-1.44c-.27 0-.54.24-.57.57l-1.53 10.86zM478.73 106.3c2.07 0 3.45-1.11 4.05-1.83l.33 1.17c.06.18.18.36.42.36h1.44c.27 0 .57-.27.6-.57l1.53-10.86c.03-.33-.18-.57-.45-.57h-3.03c-.6 0-.72.18-.78.57l-.84 5.82c-.15 1.11-.81 2.01-1.8 2.01-.87 0-1.23-.72-1.02-2.19l.81-5.64c.03-.33-.18-.57-.45-.57h-3.33c-.27 0-.54.24-.57.57l-.78 5.43c-.54 3.96.81 6.3 3.87 6.3zM465.5 102.13c-.39 2.73.9 4.17 2.82 4.17 1.53 0 3.09-.51 3.39-.69.24-.15.51-.42.45-.87l-.24-2.22c-.03-.33-.3-.45-.54-.39-.27.06-.48.12-.81.12-.24 0-.72-.06-.63-.72l.51-3.72h1.74c.3 0 .57-.27.6-.57l.36-2.67c.03-.33-.12-.57-.42-.57h-1.74l.45-3.33c.03-.3-.12-.57-.39-.57h-3.36c-.27 0-.57.27-.6.57l-.45 3.33h-1.02c-.27 0-.54.24-.57.57l-.36 2.67c-.03.3.12.57.39.57h1.02l-.6 4.32zM456.71 105.43c-.03.3.15.57.42.57h3.45c.27 0 .57-.27.6-.57l2.79-19.86c.03-.3-.18-.57-.45-.57h-3.42c-.27 0-.57.27-.6.57l-2.79 19.86zM446.69 106.3c2.07 0 3.45-1.11 4.05-1.83l.33 1.17c.06.18.18.36.42.36h1.44c.27 0 .57-.27.6-.57l1.53-10.86c.03-.33-.18-.57-.45-.57h-3.03c-.6 0-.72.18-.78.57l-.84 5.82c-.15 1.11-.81 2.01-1.8 2.01-.87 0-1.23-.72-1.02-2.19l.81-5.64c.03-.33-.18-.57-.45-.57h-3.33c-.27 0-.54.24-.57.57l-.78 5.43c-.54 3.96.81 6.3 3.87 6.3zM425.12 105.28c-.03.39.18.72.57.72h3.63c.36 0 .72-.33.75-.72l1.26-8.94 4.35 9.27c.12.27.33.39.6.39h4.14c.3 0 .84-.39.6-.87l-4.98-9.9 7.17-9.12c.33-.45.15-1.11-.36-1.11h-4.35a.63.63 0 0 0-.54.3l-6.24 8.31 1.11-7.89c.06-.39-.21-.72-.57-.72h-3.63c-.39 0-.69.33-.75.72l-2.76 19.56z" fill="#FA4480"/><path d="M678.71 98.62c.3-1.02 1.38-1.8 2.25-1.8.39 0 .72.21.72.6 0 1.11-2.97 1.2-2.97 1.2zM641.03 102.4c-.93 0-1.59-.9-1.59-2.04 0-1.53 1.17-2.73 2.28-2.73.96 0 1.68.93 1.68 2.1 0 1.53-1.02 2.67-2.37 2.67zM597.98 98.62c.3-1.02 1.38-1.8 2.25-1.8.39 0 .72.21.72.6 0 1.11-2.97 1.2-2.97 1.2zM573.83 100.3c0-1.47 1.2-2.67 2.34-2.67.93 0 1.62.9 1.62 2.04 0 1.5-1.08 2.73-2.25 2.73-1.08 0-1.77-1.11-1.71-2.1zM518.84 102.4c-.9 0-1.53-.9-1.53-2.01 0-1.53 1.05-2.76 2.19-2.76.9 0 1.56.9 1.56 2.01 0 1.53-1.08 2.76-2.22 2.76z" fill="#FFF"/></g></svg>