<svg width="1024" height="170" viewBox="0 0 1024 170" xmlns="http://www.w3.org/2000/svg"><title>wedding6</title><g fill="none" fill-rule="evenodd"><path d="M388.345 37.43c0 .3.24.57.57.57h7.44c3.57 0 6.54-2.43 6.54-5.79 0-2.76-2.43-4.23-4.02-4.89 1.41-.75 3.48-2.43 3.48-4.74 0-3.15-2.91-5.58-6.45-5.58h-6.99a.57.57 0 0 0-.57.57v19.86zm4.68-11.91v-4.2h2.34c1.14 0 2.1.84 2.1 2.04 0 1.2-.96 2.16-2.1 2.16h-2.34zm0 8.19v-4.29h2.43c1.17 0 2.46.9 2.46 2.1 0 1.23-.99 2.19-2.16 2.19h-2.73zm14.34-11.34c1.32 0 2.4-1.05 2.4-2.37s-1.08-2.4-2.4-2.4c-1.32 0-2.37 1.08-2.37 2.4 0 1.32 1.05 2.37 2.37 2.37zm-2.19 15.06c0 .3.27.57.57.57h3.3c.3 0 .57-.27.57-.57V26.57a.57.57 0 0 0-.57-.57h-3.3c-.3 0-.57.24-.57.57v10.86zm8.16-3.3c0 2.73 1.32 4.17 3.6 4.17 1.5 0 3.63-.66 3.63-.66.3-.09.45-.42.39-.69l-.66-2.49c-.09-.33-.36-.45-.66-.39-.3.06-.75.21-1.17.21-.36 0-.81-.06-.81-.72v-3.75h2.22c.33 0 .57-.27.57-.57v-2.67c0-.33-.24-.57-.57-.57h-2.22v-3.33c0-.3-.24-.57-.54-.57h-3.21c-.3 0-.57.27-.57.57V26h-.78c-.3 0-.54.24-.54.57v2.67c0 .3.24.57.54.57h.78v4.32zm10.32 0c0 2.73 1.32 4.17 3.6 4.17 1.5 0 3.63-.66 3.63-.66.3-.09.45-.42.39-.69l-.66-2.49c-.09-.33-.36-.45-.66-.39-.3.06-.75.21-1.17.21-.36 0-.81-.06-.81-.72v-3.75h2.22c.33 0 .57-.27.57-.57v-2.67c0-.33-.24-.57-.57-.57h-2.22v-3.33c0-.3-.24-.57-.54-.57h-3.21c-.3 0-.57.27-.57.57V26h-.78c-.3 0-.54.24-.54.57v2.67c0 .3.24.57.54.57h.78v4.32zm8.94-2.13c0 3.45 2.7 6.3 6.27 6.3 1.89 0 3.39-.66 4.44-1.71.27-.27.21-.63.03-.87l-1.5-1.8c-.18-.21-.48-.21-.75 0-.48.36-1.35.72-2.1.72-1.56 0-2.22-1.17-2.31-1.98h7.2c.27 0 .54-.21.57-.51.03-.21.06-.6.06-.81 0-3.3-2.64-5.64-5.7-5.64-3.54 0-6.21 2.91-6.21 6.3zm4.47-1.68c.12-.78.81-1.41 1.62-1.41.78 0 1.53.63 1.59 1.41h-3.21zm16.23 7.11c0 .3.24.57.57.57h3.15c.3 0 .57-.27.57-.57v-5.76c0-1.23.9-2.1 2.1-2.1 1.35 0 1.89 1.05 1.89 2.25v5.61c0 .3.24.57.57.57h2.88c.33 0 .57-.27.57-.57v-5.82c0-1.17.96-2.04 2.01-2.04 1.38 0 2.01 1.05 2.01 2.25v5.61c0 .3.24.57.57.57h3.18c.33 0 .57-.27.57-.57V32c0-3.42-1.83-6.3-5.55-6.3-2.04 0-3.45 1.14-4.14 1.83-1.08-1.2-2.25-1.83-3.93-1.83-1.92 0-3.3 1.08-4.05 1.86l-.51-1.23a.61.61 0 0 0-.51-.33h-1.38c-.33 0-.57.24-.57.57v10.86zm22.68-5.43c0 3.45 2.7 6.3 6.27 6.3 1.89 0 3.39-.66 4.44-1.71.27-.27.21-.63.03-.87l-1.5-1.8c-.18-.21-.48-.21-.75 0-.48.36-1.35.72-2.1.72-1.56 0-2.22-1.17-2.31-1.98h7.2c.27 0 .54-.21.57-.51.03-.21.06-.6.06-.81 0-3.3-2.64-5.64-5.7-5.64-3.54 0-6.21 2.91-6.21 6.3zm4.47-1.68c.12-.78.81-1.41 1.62-1.41.78 0 1.53.63 1.59 1.41h-3.21zm9.6 7.11c0 .3.27.57.57.57h3.3c.3 0 .57-.27.57-.57V17.57c0-.3-.27-.57-.57-.57h-3.3c-.3 0-.57.27-.57.57v19.86zm6.81-5.43c0 3.45 2.55 6.3 5.94 6.3 2.64 0 4.02-1.89 4.02-1.89l.36.99c.12.33.33.6.63.6h1.41c.3 0 .57-.27.57-.57V17.57c0-.3-.27-.57-.57-.57h-3.33c-.3 0-.57.27-.57.57v8.7c-.36-.21-1.47-.57-2.49-.57-3.21 0-5.97 2.07-5.97 6.3zm4.11-.03c0-1.35 1.05-2.4 2.43-2.4 1.38 0 2.4 1.05 2.4 2.4 0 1.38-1.02 2.46-2.4 2.46s-2.43-1.08-2.43-2.46zm11.16.03c0 3.45 2.7 6.3 6.27 6.3 1.89 0 3.39-.66 4.44-1.71.27-.27.21-.63.03-.87l-1.5-1.8c-.18-.21-.48-.21-.75 0-.48.36-1.35.72-2.1.72-1.56 0-2.22-1.17-2.31-1.98h7.2c.27 0 .54-.21.57-.51.03-.21.06-.6.06-.81 0-3.3-2.64-5.64-5.7-5.64-3.54 0-6.21 2.91-6.21 6.3zm4.47-1.68c.12-.78.81-1.41 1.62-1.41.78 0 1.53.63 1.59 1.41h-3.21zm10.08 3.81c0 2.73 1.32 4.17 3.6 4.17 1.5 0 3.63-.66 3.63-.66.3-.09.45-.42.39-.69l-.66-2.49c-.09-.33-.36-.45-.66-.39-.3.06-.75.21-1.17.21-.36 0-.81-.06-.81-.72v-3.75h2.22c.33 0 .57-.27.57-.57v-2.67c0-.33-.24-.57-.57-.57h-2.22v-3.33c0-.3-.24-.57-.54-.57h-3.21c-.3 0-.57.27-.57.57V26h-.78c-.3 0-.54.24-.54.57v2.67c0 .3.24.57.54.57h.78v4.32zm15.57-2.13c0 3.45 2.7 6.3 6.27 6.3 1.89 0 3.39-.66 4.44-1.71.27-.27.21-.63.03-.87l-1.5-1.8c-.18-.21-.48-.21-.75 0-.48.36-1.35.72-2.1.72-1.56 0-2.22-1.17-2.31-1.98h7.2c.27 0 .54-.21.57-.51.03-.21.06-.6.06-.81 0-3.3-2.64-5.64-5.7-5.64-3.54 0-6.21 2.91-6.21 6.3zm4.47-1.68c.12-.78.81-1.41 1.62-1.41.78 0 1.53.63 1.59 1.41h-3.21zm9.33 1.68c0 3.42 1.71 6.3 5.28 6.3 2.31 0 3.27-1.08 4.05-1.83l.45 1.11c.09.21.3.42.57.42h1.41c.3 0 .57-.27.57-.57V26.57a.57.57 0 0 0-.57-.57h-3.06c-.3 0-.63.09-.63.57v5.73c0 1.02-.63 2.13-1.8 2.13-1.23 0-1.92-1.08-1.92-2.31v-5.55a.57.57 0 0 0-.57-.57h-3.21c-.3 0-.57.24-.57.57V32zm14.64 0c0 3.6 3.03 6.3 6.45 6.3 2.16 0 3.72-.84 4.83-2.52.21-.3.06-.6-.21-.84l-1.8-1.56c-.18-.15-.45-.09-.66.12-.48.48-.99.93-2.04.93-1.32 0-2.34-1.08-2.34-2.43 0-1.32 1.08-2.43 2.4-2.43.69 0 1.32.33 1.74.78.15.15.51.21.66.06l1.8-1.71c.27-.24.36-.57.15-.84-1.14-1.38-2.61-2.16-4.5-2.16-3.42 0-6.48 2.76-6.48 6.3zm13.53 5.43c0 .3.27.57.57.57h3.24c.51 0 .66-.18.66-.57v-5.49c0-1.83 1.05-2.37 2.01-2.37 1.32 0 2.19 1.05 2.19 2.37v5.49c0 .3.24.57.57.57h3.18c.3 0 .57-.27.57-.57V32c0-3.33-1.95-6.3-5.73-6.3-.9 0-1.89.24-2.79.69v-8.82c0-.3-.27-.57-.57-.57h-3.33c-.3 0-.57.27-.57.57v19.86zm22.53 0c0 .3.27.57.57.57h1.41c.3 0 .51-.27.63-.6l.36-.99s1.38 1.89 4.02 1.89c3.39 0 5.94-2.85 5.94-6.3 0-4.23-2.76-6.3-5.97-6.3-1.02 0-2.13.36-2.49.57v-8.7c0-.3-.27-.57-.57-.57h-3.33c-.3 0-.57.27-.57.57v19.86zm3.99-5.46c0-1.35 1.02-2.4 2.4-2.4s2.43 1.05 2.43 2.4c0 1.38-1.05 2.46-2.43 2.46-1.38 0-2.4-1.08-2.4-2.46zm13.5-9.6c1.32 0 2.4-1.05 2.4-2.37s-1.08-2.4-2.4-2.4c-1.32 0-2.37 1.08-2.37 2.4 0 1.32 1.05 2.37 2.37 2.37zm-2.19 15.06c0 .3.27.57.57.57h3.3c.3 0 .57-.27.57-.57V26.57a.57.57 0 0 0-.57-.57h-3.3c-.3 0-.57.24-.57.57v10.86zm7.26-.12c.6.48 2.1.99 4.08.99 3.39 0 5.07-1.71 5.07-3.81 0-2.4-1.68-3.36-4.11-4.2-1.02-.36-1.35-.66-1.35-.96 0-.33.27-.42.66-.42 1.17 0 2.55.69 2.55.69.24.09.54 0 .63-.18l1.11-2.04c.18-.3-.03-.57-.3-.75-.66-.42-2.1-.93-3.99-.93-3.24 0-4.68 1.62-4.68 3.63 0 1.86 1.02 3.21 3.36 4.02 1.53.54 1.71.96 1.71 1.26 0 .36-.27.54-.57.54-1.29 0-2.7-.78-2.7-.78-.24-.12-.54.06-.63.24l-1.05 2.07c-.15.27 0 .45.21.63zM350.71 71.43c0 .3.27.57.57.57h7.8c.33 0 .57-.27.57-.57v-2.7c0-.33-.24-.57-.57-.57h-2.67v-.06l3.78-7.29c.21-.42-.06-.81-.51-.81h-8.13c-.3 0-.54.24-.54.57v2.73c0 .3.24.57.54.57h2.67v.06l-3.51 7.2v.3zM362.29 66c0 3.42 1.71 6.3 5.28 6.3 2.31 0 3.27-1.08 4.05-1.83l.45 1.11c.09.21.3.42.57.42h1.41c.3 0 .57-.27.57-.57V60.57a.57.57 0 0 0-.57-.57h-3.06c-.3 0-.63.09-.63.57v5.73c0 1.02-.63 2.13-1.8 2.13-1.23 0-1.92-1.08-1.92-2.31v-5.55a.57.57 0 0 0-.57-.57h-3.21c-.3 0-.57.24-.57.57V66zm15.57 5.43c0 .3.24.57.57.57h3.15c.3 0 .57-.27.57-.57v-5.76c0-1.23.9-2.1 2.1-2.1 1.35 0 1.89 1.05 1.89 2.25v5.61c0 .3.24.57.57.57h2.88c.33 0 .57-.27.57-.57v-5.82c0-1.17.96-2.04 2.01-2.04 1.38 0 2.01 1.05 2.01 2.25v5.61c0 .3.24.57.57.57h3.18c.33 0 .57-.27.57-.57V66c0-3.42-1.83-6.3-5.55-6.3-2.04 0-3.45 1.14-4.14 1.83-1.08-1.2-2.25-1.83-3.93-1.83-1.92 0-3.3 1.08-4.05 1.86l-.51-1.23a.61.61 0 0 0-.51-.33h-1.38c-.33 0-.57.24-.57.57v10.86zm29.49-1.8c.63.81 2.55 2.67 6.33 2.67 4.14 0 6.99-2.46 6.99-5.73 0-2.58-2.22-4.44-3.63-5.04v-.09c1.35-.63 3.09-2.34 3.09-4.65 0-3.36-3-5.49-6.48-5.49-3.27 0-5.73 2.64-5.73 2.64-.21.21-.24.57 0 .78l1.83 1.8c.24.21.6.21.81-.03.45-.51 1.29-1.2 2.61-1.2 1.29 0 2.4.96 2.4 2.25s-1.11 2.31-3.21 2.31h-1.68c-.3 0-.57.24-.57.57v2.49c0 .3.27.57.57.57h1.68c2.22 0 3.57 1.11 3.57 2.43s-1.32 2.4-2.61 2.4c-1.44 0-3.3-1.38-3.3-1.38a.556.556 0 0 0-.75.06l-1.89 1.89c-.18.21-.21.54-.03.75zm23.97 2.67c4.89 0 7.68-3.93 7.68-10.5s-2.79-10.5-7.68-10.5-7.68 3.93-7.68 10.5 2.79 10.5 7.68 10.5zm0-4.35c-1.83 0-2.85-2.19-2.85-6.15 0-3.93 1.02-6.15 2.85-6.15s2.85 2.22 2.85 6.15c0 3.96-1.02 6.15-2.85 6.15zm10.17 1.53c0 1.53 1.29 2.82 2.82 2.82 1.56 0 2.88-1.29 2.88-2.82 0-1.56-1.32-2.88-2.88-2.88-1.53 0-2.82 1.32-2.82 2.88zM455.02 72h3.3c.6 0 .93-.36 1.08-.72l1.08-2.4h8.16l1.08 2.37c.27.57.51.75 1.05.75h3.33c.45 0 .69-.39.51-.78l-9.39-20.19a.61.61 0 0 0-.51-.33h-.3a.61.61 0 0 0-.51.33l-9.39 20.19c-.18.39.06.78.51.78zm7.26-7.2l2.25-4.95h.03l2.28 4.95h-4.56zm18.12 6.93c.36.21 1.47.57 2.49.57 3.21 0 5.97-2.07 5.97-6.3 0-3.45-2.55-6.3-5.94-6.3-2.64 0-4.02 1.89-4.02 1.89l-.36-.99c-.12-.33-.33-.6-.63-.6h-1.41c-.3 0-.57.27-.57.57v19.86c0 .3.27.57.57.57h3.33c.3 0 .57-.27.57-.57v-8.7zm-.48-5.7c0-1.38 1.02-2.46 2.4-2.46s2.43 1.08 2.43 2.46c0 1.35-1.05 2.4-2.43 2.4-1.38 0-2.4-1.05-2.4-2.4zm11.31 5.4c0 .3.27.57.57.57h3.06c.48 0 .66-.21.66-.57v-6.21c0-1.02.69-1.71 1.59-1.71.27 0 .57.09.72.15.33.12.54-.06.66-.27l1.47-2.4c.42-.69-.75-1.29-2.4-1.29-1.56 0-2.67 1.11-3.27 1.98l-.54-1.32c-.09-.18-.21-.36-.54-.36h-1.41c-.3 0-.57.24-.57.57v10.86zm12.54-15.06c1.32 0 2.4-1.05 2.4-2.37s-1.08-2.4-2.4-2.4c-1.32 0-2.37 1.08-2.37 2.4 0 1.32 1.05 2.37 2.37 2.37zm-2.19 15.06c0 .3.27.57.57.57h3.3c.3 0 .57-.27.57-.57V60.57a.57.57 0 0 0-.57-.57h-3.3c-.3 0-.57.24-.57.57v10.86zm7.68 0c0 .3.27.57.57.57h3.3c.3 0 .57-.27.57-.57V51.57c0-.3-.27-.57-.57-.57h-3.3c-.3 0-.57.27-.57.57v19.86zm13.38 0c0 .3.24.57.57.57h12c.3 0 .57-.27.57-.57v-2.7c0-.3-.27-.57-.57-.57h-5.28c1.41-1.98 3.87-5.19 4.83-6.9.72-1.41 1.17-2.31 1.17-3.9 0-3.33-2.52-6.06-6.81-6.06-3.57 0-6 2.94-6 2.94-.21.24-.18.6.03.78l1.83 1.86c.24.24.6.24.84 0 .57-.63 1.68-1.5 2.91-1.5 1.68 0 2.64 1.02 2.64 2.16 0 .84-.39 1.68-.78 2.28-1.77 2.7-6.21 8.73-7.95 11.01v.6zm24.09.87c4.89 0 7.68-3.93 7.68-10.5s-2.79-10.5-7.68-10.5-7.68 3.93-7.68 10.5 2.79 10.5 7.68 10.5zm0-4.35c-1.83 0-2.85-2.19-2.85-6.15 0-3.93 1.02-6.15 2.85-6.15s2.85 2.22 2.85 6.15c0 3.96-1.02 6.15-2.85 6.15zm13.53 3.48c0 .3.24.57.57.57h3.33c.3 0 .54-.27.54-.57V52.17c0-.3-.24-.57-.54-.57h-2.76l-4.38 3.42c-.09.09-.18.33-.18.45v1.89c0 .3.24.57.54.57h2.88v13.5zm8.16-7.29c0 4.68 2.58 8.16 7.23 8.16 3.75 0 6.87-3.09 6.87-6.87 0-4.44-3.15-6.51-5.97-6.51-.81 0-2.07.27-2.85.6.63-3.09 4.62-4.47 6.03-4.92.6-.18.69-.51.57-.87l-.87-2.31c-.15-.42-.48-.63-.93-.48-2.58.81-10.08 4.38-10.08 13.2zm4.29 1.14c0-1.59 1.29-2.91 2.88-2.91 1.59 0 2.88 1.32 2.88 2.91 0 1.56-1.29 2.88-2.88 2.88-1.59 0-2.88-1.32-2.88-2.88zm18.99 6.15c0 .3.27.57.57.57h1.41c.3 0 .51-.27.63-.6l.36-.99s1.38 1.89 4.02 1.89c3.39 0 5.94-2.85 5.94-6.3 0-4.23-2.76-6.3-5.97-6.3-1.02 0-2.13.36-2.49.57v-8.7c0-.3-.27-.57-.57-.57h-3.33c-.3 0-.57.27-.57.57v19.86zm3.99-5.46c0-1.35 1.02-2.4 2.4-2.4s2.43 1.05 2.43 2.4c0 1.38-1.05 2.46-2.43 2.46-1.38 0-2.4-1.08-2.4-2.46zm10.41.03c0 3.45 2.7 6.3 6.27 6.3 1.89 0 3.39-.66 4.44-1.71.27-.27.21-.63.03-.87l-1.5-1.8c-.18-.21-.48-.21-.75 0-.48.36-1.35.72-2.1.72-1.56 0-2.22-1.17-2.31-1.98h7.2c.27 0 .54-.21.57-.51.03-.21.06-.6.06-.81 0-3.3-2.64-5.64-5.7-5.64-3.54 0-6.21 2.91-6.21 6.3zm4.47-1.68c.12-.78.81-1.41 1.62-1.41.78 0 1.53.63 1.59 1.41h-3.21zm11.79-7.95c1.32 0 2.4-1.05 2.4-2.37s-1.08-2.4-2.4-2.4c-1.32 0-2.37 1.08-2.37 2.4 0 1.32 1.05 2.37 2.37 2.37zm-2.19 15.06c0 .3.27.57.57.57h3.3c.3 0 .57-.27.57-.57V60.57a.57.57 0 0 0-.57-.57h-3.3c-.3 0-.57.24-.57.57v10.86zM634.21 66c0 3.42 1.71 6.3 5.28 6.3 2.31 0 3.27-1.08 4.05-1.83l.45 1.11c.09.21.3.42.57.42h1.41c.3 0 .57-.27.57-.57V60.57a.57.57 0 0 0-.57-.57h-3.06c-.3 0-.63.09-.63.57v5.73c0 1.02-.63 2.13-1.8 2.13-1.23 0-1.92-1.08-1.92-2.31v-5.55a.57.57 0 0 0-.57-.57h-3.21c-.3 0-.57.24-.57.57V66zm15.57 5.43c0 .3.27.57.57.57h3.15c.42 0 .54-.3.54-.57v-5.76c0-1.23 1.08-2.1 2.28-2.1 1.35 0 2.04 1.05 2.04 2.25v5.61c0 .3.24.57.57.57h3.21c.3 0 .57-.27.57-.57v-5.46c0-3.42-1.98-6.27-5.7-6.27-2.19 0-3.57 1.14-4.23 1.86l-.48-1.2c-.09-.21-.36-.36-.54-.36h-1.41c-.3 0-.57.24-.57.57v10.86zm15.42-.12c.6.48 2.1.99 4.08.99 3.39 0 5.07-1.71 5.07-3.81 0-2.4-1.68-3.36-4.11-4.2-1.02-.36-1.35-.66-1.35-.96 0-.33.27-.42.66-.42 1.17 0 2.55.69 2.55.69.24.09.54 0 .63-.18l1.11-2.04c.18-.3-.03-.57-.3-.75-.66-.42-2.1-.93-3.99-.93-3.24 0-4.68 1.62-4.68 3.63 0 1.86 1.02 3.21 3.36 4.02 1.53.54 1.71.96 1.71 1.26 0 .36-.27.54-.57.54-1.29 0-2.7-.78-2.7-.78-.24-.12-.54.06-.63.24l-1.05 2.07c-.15.27 0 .45.21.63zM432.07 140.3c4.89 0 7.68-3.93 7.68-10.5s-2.79-10.5-7.68-10.5-7.68 3.93-7.68 10.5 2.79 10.5 7.68 10.5zm0-4.35c-1.83 0-2.85-2.19-2.85-6.15 0-3.93 1.02-6.15 2.85-6.15s2.85 2.22 2.85 6.15c0 3.96-1.02 6.15-2.85 6.15zm13.53 3.48c0 .3.24.57.57.57h3.33c.3 0 .54-.27.54-.57v-19.26c0-.3-.24-.57-.54-.57h-2.76l-4.38 3.42c-.09.09-.18.33-.18.45v1.89c0 .3.24.57.54.57h2.88v13.5zm8.16-7.29c0 4.68 2.58 8.16 7.23 8.16 3.75 0 6.87-3.09 6.87-6.87 0-4.44-3.15-6.51-5.97-6.51-.81 0-2.07.27-2.85.6.63-3.09 4.62-4.47 6.03-4.92.6-.18.69-.51.57-.87l-.87-2.31c-.15-.42-.48-.63-.93-.48-2.58.81-10.08 4.38-10.08 13.2zm4.29 1.14c0-1.59 1.29-2.91 2.88-2.91 1.59 0 2.88 1.32 2.88 2.91 0 1.56-1.29 2.88-2.88 2.88-1.59 0-2.88-1.32-2.88-2.88zm11.43 6.15c0 .3.24.57.57.57h12c.3 0 .57-.27.57-.57v-2.7c0-.3-.27-.57-.57-.57h-5.28c1.41-1.98 3.87-5.19 4.83-6.9.72-1.41 1.17-2.31 1.17-3.9 0-3.33-2.52-6.06-6.81-6.06-3.57 0-6 2.94-6 2.94-.21.24-.18.6.03.78l1.83 1.86c.24.24.6.24.84 0 .57-.63 1.68-1.5 2.91-1.5 1.68 0 2.64 1.02 2.64 2.16 0 .84-.39 1.68-.78 2.28-1.77 2.7-6.21 8.73-7.95 11.01v.6zm16.68-4.77h6.87c.33 0 .57-.24.57-.54v-2.73c0-.33-.24-.57-.57-.57h-6.87c-.33 0-.57.24-.57.57v2.73c0 .3.24.54.57.54zm11.07 3.03l.87 2.31c.15.42.48.6.93.48 2.76-.81 10.08-4.38 10.08-13.2 0-4.68-2.58-8.16-7.23-8.16-3.75 0-6.87 3.09-6.87 6.87 0 4.44 3.15 6.51 5.97 6.51.81 0 2.07-.27 2.85-.6-.63 3.09-4.62 4.47-6.03 4.92-.6.18-.69.51-.57.87zm4.71-8.64c-1.59 0-2.88-1.32-2.88-2.91 0-1.56 1.29-2.88 2.88-2.88 1.59 0 2.88 1.32 2.88 2.88 0 1.59-1.29 2.91-2.88 2.91zm9.27 6.72H520v3.66c0 .3.27.57.57.57h3.21c.3 0 .57-.27.57-.57l-.03-3.69h2.37c.33 0 .57-.27.57-.57v-2.49c0-.3-.24-.54-.57-.54h-2.37l-.03-12.3a.57.57 0 0 0-.57-.57h-2.16c-.27 0-.36.09-.45.18l-10.47 12.57v3.18c0 .3.24.57.57.57zm4.14-3.72l4.77-5.58v5.58h-4.77zm13.77 5.58c.63.81 2.55 2.67 6.33 2.67 4.14 0 6.99-2.46 6.99-5.73 0-2.58-2.22-4.44-3.63-5.04v-.09c1.35-.63 3.09-2.34 3.09-4.65 0-3.36-3-5.49-6.48-5.49-3.27 0-5.73 2.64-5.73 2.64-.21.21-.24.57 0 .78l1.83 1.8c.24.21.6.21.81-.03.45-.51 1.29-1.2 2.61-1.2 1.29 0 2.4.96 2.4 2.25s-1.11 2.31-3.21 2.31h-1.68c-.3 0-.57.24-.57.57v2.49c0 .3.27.57.57.57h1.68c2.22 0 3.57 1.11 3.57 2.43s-1.32 2.4-2.61 2.4c-1.44 0-3.3-1.38-3.3-1.38a.556.556 0 0 0-.75.06l-1.89 1.89c-.18.21-.21.54-.03.75zm15.3 1.8c0 .3.24.57.57.57h12c.3 0 .57-.27.57-.57v-2.7c0-.3-.27-.57-.57-.57h-5.28c1.41-1.98 3.87-5.19 4.83-6.9.72-1.41 1.17-2.31 1.17-3.9 0-3.33-2.52-6.06-6.81-6.06-3.57 0-6 2.94-6 2.94-.21.24-.18.6.03.78l1.83 1.86c.24.24.6.24.84 0 .57-.63 1.68-1.5 2.91-1.5 1.68 0 2.64 1.02 2.64 2.16 0 .84-.39 1.68-.78 2.28-1.77 2.7-6.21 8.73-7.95 11.01v.6zm18.9 0c0 .3.24.57.57.57h3.33c.3 0 .54-.27.54-.57v-19.26c0-.3-.24-.57-.54-.57h-2.76l-4.38 3.42c-.09.09-.18.33-.18.45v1.89c0 .3.24.57.54.57h2.88v13.5zm10.17-1.74l.87 2.31c.15.42.48.6.93.48 2.76-.81 10.08-4.38 10.08-13.2 0-4.68-2.58-8.16-7.23-8.16-3.75 0-6.87 3.09-6.87 6.87 0 4.44 3.15 6.51 5.97 6.51.81 0 2.07-.27 2.85-.6-.63 3.09-4.62 4.47-6.03 4.92-.6.18-.69.51-.57.87zm4.71-8.64c-1.59 0-2.88-1.32-2.88-2.91 0-1.56 1.29-2.88 2.88-2.88 1.59 0 2.88 1.32 2.88 2.88 0 1.59-1.29 2.91-2.88 2.91zm9.84 8.76c.75.9 2.82 2.49 5.94 2.49 4.2 0 7.41-3.12 7.41-6.87 0-3.93-2.7-6.84-6.84-6.84h-2.13v-3.21h6.18c.33 0 .57-.27.57-.57v-2.64c0-.3-.24-.57-.57-.57h-9.66a.57.57 0 0 0-.57.57v9.3c0 .48.33 1.05.93 1.05h4.62c1.95 0 3.09 1.29 3.09 2.91 0 1.65-1.23 2.85-2.85 2.85-1.44 0-3.57-1.44-3.57-1.44a.587.587 0 0 0-.72.09l-1.89 1.86c-.36.36-.33.57.06 1.02z" fill="#4A4A4A"/><path d="M691.45 100c0 3.45 2.7 6.3 6.27 6.3 1.89 0 3.39-.66 4.44-1.71.27-.27.21-.63.03-.87l-1.5-1.8c-.18-.21-.48-.21-.75 0-.48.36-1.35.72-2.1.72-1.56 0-2.22-1.17-2.31-1.98h7.2c.27 0 .54-.21.57-.51.03-.21.06-.6.06-.81 0-3.3-2.64-5.64-5.7-5.64-3.54 0-6.21 2.91-6.21 6.3z" fill="#FA4480"/><path d="M695.92 98.32c.12-.78.81-1.41 1.62-1.41.78 0 1.53.63 1.59 1.41h-3.21z" fill="#FFF"/><path d="M676.18 100c0 3.45 2.55 6.3 5.94 6.3 2.64 0 4.02-1.89 4.02-1.89l.36.99c.12.33.33.6.63.6h1.41c.3 0 .57-.27.57-.57V85.57c0-.3-.27-.57-.57-.57h-3.33c-.3 0-.57.27-.57.57v8.7c-.36-.21-1.47-.57-2.49-.57-3.21 0-5.97 2.07-5.97 6.3z" fill="#FA4480"/><path d="M680.29 99.97c0-1.35 1.05-2.4 2.43-2.4 1.38 0 2.4 1.05 2.4 2.4 0 1.38-1.02 2.46-2.4 2.46s-2.43-1.08-2.43-2.46z" fill="#FFF"/><path d="M668.92 103.48c0 1.53 1.29 2.82 2.82 2.82 1.56 0 2.88-1.29 2.88-2.82 0-1.56-1.32-2.88-2.88-2.88-1.53 0-2.82 1.32-2.82 2.88zM660.13 105.43c0 .3.27.57.57.57h3.06c.48 0 .66-.21.66-.57v-6.21c0-1.02.69-1.71 1.59-1.71.27 0 .57.09.72.15.33.12.54-.06.66-.27l1.47-2.4c.42-.69-.75-1.29-2.4-1.29-1.56 0-2.67 1.11-3.27 1.98l-.54-1.32c-.09-.18-.21-.36-.54-.36h-1.41c-.3 0-.57.24-.57.57v10.86zM646.06 100c0 3.45 2.7 6.3 6.27 6.3 1.89 0 3.39-.66 4.44-1.71.27-.27.21-.63.03-.87l-1.5-1.8c-.18-.21-.48-.21-.75 0-.48.36-1.35.72-2.1.72-1.56 0-2.22-1.17-2.31-1.98h7.2c.27 0 .54-.21.57-.51.03-.21.06-.6.06-.81 0-3.3-2.64-5.64-5.7-5.64-3.54 0-6.21 2.91-6.21 6.3z" fill="#FA4480"/><path d="M650.53 98.32c.12-.78.81-1.41 1.62-1.41.78 0 1.53.63 1.59 1.41h-3.21z" fill="#FFF"/><path d="M637.12 102.13c0 2.73 1.32 4.17 3.6 4.17 1.5 0 3.63-.66 3.63-.66.3-.09.45-.42.39-.69l-.66-2.49c-.09-.33-.36-.45-.66-.39-.3.06-.75.21-1.17.21-.36 0-.81-.06-.81-.72v-3.75h2.22c.33 0 .57-.27.57-.57v-2.67c0-.33-.24-.57-.57-.57h-2.22v-3.33c0-.3-.24-.57-.54-.57h-3.21c-.3 0-.57.27-.57.57V94h-.78c-.3 0-.54.24-.54.57v2.67c0 .3.24.57.54.57h.78v4.32zM626.8 102.13c0 2.73 1.32 4.17 3.6 4.17 1.5 0 3.63-.66 3.63-.66.3-.09.45-.42.39-.69l-.66-2.49c-.09-.33-.36-.45-.66-.39-.3.06-.75.21-1.17.21-.36 0-.81-.06-.81-.72v-3.75h2.22c.33 0 .57-.27.57-.57v-2.67c0-.33-.24-.57-.57-.57h-2.22v-3.33c0-.3-.24-.57-.54-.57h-3.21c-.3 0-.57.27-.57.57V94h-.78c-.3 0-.54.24-.54.57v2.67c0 .3.24.57.54.57h.78v4.32zM612.25 100c0 3.45 2.7 6.3 6.27 6.3 1.89 0 3.39-.66 4.44-1.71.27-.27.21-.63.03-.87l-1.5-1.8c-.18-.21-.48-.21-.75 0-.48.36-1.35.72-2.1.72-1.56 0-2.22-1.17-2.31-1.98h7.2c.27 0 .54-.21.57-.51.03-.21.06-.6.06-.81 0-3.3-2.64-5.64-5.7-5.64-3.54 0-6.21 2.91-6.21 6.3z" fill="#FA4480"/><path d="M616.72 98.32c.12-.78.81-1.41 1.62-1.41.78 0 1.53.63 1.59 1.41h-3.21z" fill="#FFF"/><path d="M597.25 105.94c.03.21.33.36.51.36h.15c.15 0 .39-.12.48-.24l3.81-6h.03l3.87 6c.06.12.33.24.48.24h.12c.21 0 .48-.15.54-.36l3.99-11.19c.15-.39-.12-.75-.54-.75h-2.79c-.33 0-.48.09-.6.36l-1.53 4.11h-.03l-2.88-4.53c-.06-.12-.24-.24-.45-.24h-.3c-.27 0-.42.15-.48.24l-2.85 4.53h-.03l-1.56-4.11c-.06-.21-.36-.36-.54-.36h-2.85c-.42 0-.69.36-.54.75l3.99 11.19zM583.03 105.31c.6.48 2.1.99 4.08.99 3.39 0 5.07-1.71 5.07-3.81 0-2.4-1.68-3.36-4.11-4.2-1.02-.36-1.35-.66-1.35-.96 0-.33.27-.42.66-.42 1.17 0 2.55.69 2.55.69.24.09.54 0 .63-.18l1.11-2.04c.18-.3-.03-.57-.3-.75-.66-.42-2.1-.93-3.99-.93-3.24 0-4.68 1.62-4.68 3.63 0 1.86 1.02 3.21 3.36 4.02 1.53.54 1.71.96 1.71 1.26 0 .36-.27.54-.57.54-1.29 0-2.7-.78-2.7-.78-.24-.12-.54.06-.63.24l-1.05 2.07c-.15.27 0 .45.21.63zM569.38 100c0 3.45 2.7 6.3 6.27 6.3 1.89 0 3.39-.66 4.44-1.71.27-.27.21-.63.03-.87l-1.5-1.8c-.18-.21-.48-.21-.75 0-.48.36-1.35.72-2.1.72-1.56 0-2.22-1.17-2.31-1.98h7.2c.27 0 .54-.21.57-.51.03-.21.06-.6.06-.81 0-3.3-2.64-5.64-5.7-5.64-3.54 0-6.21 2.91-6.21 6.3z" fill="#FA4480"/><path d="M573.85 98.32c.12-.78.81-1.41 1.62-1.41.78 0 1.53.63 1.59 1.41h-3.21z" fill="#FFF"/><path d="M560.44 102.13c0 2.73 1.32 4.17 3.6 4.17 1.5 0 3.63-.66 3.63-.66.3-.09.45-.42.39-.69l-.66-2.49c-.09-.33-.36-.45-.66-.39-.3.06-.75.21-1.17.21-.36 0-.81-.06-.81-.72v-3.75h2.22c.33 0 .57-.27.57-.57v-2.67c0-.33-.24-.57-.57-.57h-2.22v-3.33c0-.3-.24-.57-.54-.57h-3.21c-.3 0-.57.27-.57.57V94h-.78c-.3 0-.54.24-.54.57v2.67c0 .3.24.57.54.57h.78v4.32zM544.39 100c0 3.42 1.71 6.3 5.28 6.3 2.31 0 3.27-1.08 4.05-1.83l.45 1.11c.09.21.3.42.57.42h1.41c.3 0 .57-.27.57-.57V94.57a.57.57 0 0 0-.57-.57h-3.06c-.3 0-.63.09-.63.57v5.73c0 1.02-.63 2.13-1.8 2.13-1.23 0-1.92-1.08-1.92-2.31v-5.55a.57.57 0 0 0-.57-.57h-3.21c-.3 0-.57.24-.57.57V100zM529.42 104.92c0 2.37 1.92 3.21 2.31 3.33v.09c-.33.18-1.83 1.08-1.83 2.88 0 1.89 1.62 4.08 6.27 4.08 4.74 0 6.75-2.34 6.75-5.22 0-2.67-2.34-4.38-5.16-4.38h-3.6c-.45 0-.96-.24-.96-.81 0-.48.36-.81.99-.81h2.16c3.18 0 5.19-2.34 5.19-4.53 0-1.98-1.14-2.91-1.14-2.91l1.74-.63c.18-.09.33-.3.33-.51v-1.23c0-.33-.24-.57-.57-.57h-5.67c-2.91 0-5.28 2.4-5.28 5.19 0 1.83.87 2.73.87 2.73s-2.4.93-2.4 3.3z" fill="#FA4480"/><path d="M534.01 110.38c0-.87 1.08-1.26 2.16-1.26 1.62 0 2.16.63 2.16 1.26 0 .81-.66 1.41-2.16 1.41-1.44 0-2.16-.57-2.16-1.41zM534.76 99.16c0-.9.69-1.56 1.59-1.56.93 0 1.59.66 1.59 1.56s-.66 1.56-1.59 1.56c-.9 0-1.59-.66-1.59-1.56z" fill="#FFF"/><path d="M520.93 105.43c0 .3.27.57.57.57h3.06c.48 0 .66-.21.66-.57v-6.21c0-1.02.69-1.71 1.59-1.71.27 0 .57.09.72.15.33.12.54-.06.66-.27l1.47-2.4c.42-.69-.75-1.29-2.4-1.29-1.56 0-2.67 1.11-3.27 1.98l-.54-1.32c-.09-.18-.21-.36-.54-.36h-1.41c-.3 0-.57.24-.57.57v10.86zM506.86 100c0 3.45 2.7 6.3 6.27 6.3 1.89 0 3.39-.66 4.44-1.71.27-.27.21-.63.03-.87l-1.5-1.8c-.18-.21-.48-.21-.75 0-.48.36-1.35.72-2.1.72-1.56 0-2.22-1.17-2.31-1.98h7.2c.27 0 .54-.21.57-.51.03-.21.06-.6.06-.81 0-3.3-2.64-5.64-5.7-5.64-3.54 0-6.21 2.91-6.21 6.3z" fill="#FA4480"/><path d="M511.33 98.32c.12-.78.81-1.41 1.62-1.41.78 0 1.53.63 1.59 1.41h-3.21z" fill="#FFF"/><path d="M484.18 105.43c0 .3.24.57.57.57h3.15c.3 0 .57-.27.57-.57v-5.76c0-1.23.9-2.1 2.1-2.1 1.35 0 1.89 1.05 1.89 2.25v5.61c0 .3.24.57.57.57h2.88c.33 0 .57-.27.57-.57v-5.82c0-1.17.96-2.04 2.01-2.04 1.38 0 2.01 1.05 2.01 2.25v5.61c0 .3.24.57.57.57h3.18c.33 0 .57-.27.57-.57V100c0-3.42-1.83-6.3-5.55-6.3-2.04 0-3.45 1.14-4.14 1.83-1.08-1.2-2.25-1.83-3.93-1.83-1.92 0-3.3 1.08-4.05 1.86l-.51-1.23a.61.61 0 0 0-.51-.33h-1.38c-.33 0-.57.24-.57.57v10.86zM460.6 105.43c0 .3.24.57.57.57h3.15c.3 0 .57-.27.57-.57v-5.76c0-1.23.9-2.1 2.1-2.1 1.35 0 1.89 1.05 1.89 2.25v5.61c0 .3.24.57.57.57h2.88c.33 0 .57-.27.57-.57v-5.82c0-1.17.96-2.04 2.01-2.04 1.38 0 2.01 1.05 2.01 2.25v5.61c0 .3.24.57.57.57h3.18c.33 0 .57-.27.57-.57V100c0-3.42-1.83-6.3-5.55-6.3-2.04 0-3.45 1.14-4.14 1.83-1.08-1.2-2.25-1.83-3.93-1.83-1.92 0-3.3 1.08-4.05 1.86l-.51-1.23a.61.61 0 0 0-.51-.33h-1.38c-.33 0-.57.24-.57.57v10.86zM452.92 105.43c0 .3.27.57.57.57h3.3c.3 0 .57-.27.57-.57V94.57a.57.57 0 0 0-.57-.57h-3.3c-.3 0-.57.24-.57.57v10.86zM455.11 90.37c1.32 0 2.4-1.05 2.4-2.37s-1.08-2.4-2.4-2.4c-1.32 0-2.37 1.08-2.37 2.4 0 1.32 1.05 2.37 2.37 2.37zM422.38 99.31c0 6.21 4.14 11.67 9.63 13.5.3.12.57-.06.69-.36l.9-2.46c.09-.27-.09-.57-.36-.69-4.05-1.65-6.9-5.49-6.9-9.99 0-6.66 4.08-10.83 10.41-10.83 6.27 0 9.36 3.93 9.36 9.12 0 2.19-.75 4.95-2.52 4.95-.78 0-1.68-.33-1.68-2.94v-5.04a.57.57 0 0 0-.57-.57h-1.23c-.57 0-.75.96-1.02 1.56-.72-.78-2.01-1.86-3.69-1.86-3.27 0-5.64 2.94-5.64 6.33 0 3.24 2.04 6.27 5.52 6.27 1.92 0 3.33-1.08 3.99-2.34h.24c.54 1.26 1.53 2.34 3.6 2.34 5.19 0 7.11-4.98 7.11-8.94 0-7.23-4.86-12.66-13.32-12.66-8.55 0-14.52 6.09-14.52 14.61z" fill="#FA4480"/><path d="M433.48 99.91c0-1.44.81-2.61 2.1-2.61 1.32 0 2.22 1.08 2.22 2.58 0 1.41-.9 2.58-2.13 2.58-1.17 0-2.19-.9-2.19-2.55z" fill="#FFF"/><path d="M413.38 102.13c0 2.73 1.32 4.17 3.6 4.17 1.5 0 3.63-.66 3.63-.66.3-.09.45-.42.39-.69l-.66-2.49c-.09-.33-.36-.45-.66-.39-.3.06-.75.21-1.17.21-.36 0-.81-.06-.81-.72v-3.75h2.22c.33 0 .57-.27.57-.57v-2.67c0-.33-.24-.57-.57-.57h-2.22v-3.33c0-.3-.24-.57-.54-.57h-3.21c-.3 0-.57.27-.57.57V94h-.78c-.3 0-.54.24-.54.57v2.67c0 .3.24.57.54.57h.78v4.32zM405.22 105.43c0 .3.27.57.57.57h3.3c.3 0 .57-.27.57-.57V94.57a.57.57 0 0 0-.57-.57h-3.3c-.3 0-.57.24-.57.57v10.86zM407.41 90.37c1.32 0 2.4-1.05 2.4-2.37s-1.08-2.4-2.4-2.4c-1.32 0-2.37 1.08-2.37 2.4 0 1.32 1.05 2.37 2.37 2.37zM391.15 100c0 3.45 2.7 6.3 6.27 6.3 1.89 0 3.39-.66 4.44-1.71.27-.27.21-.63.03-.87l-1.5-1.8c-.18-.21-.48-.21-.75 0-.48.36-1.35.72-2.1.72-1.56 0-2.22-1.17-2.31-1.98h7.2c.27 0 .54-.21.57-.51.03-.21.06-.6.06-.81 0-3.3-2.64-5.64-5.7-5.64-3.54 0-6.21 2.91-6.21 6.3z" fill="#FA4480"/><path d="M395.62 98.32c.12-.78.81-1.41 1.62-1.41.78 0 1.53.63 1.59 1.41h-3.21z" fill="#FFF"/><path d="M380.2 105.43c0 .3.27.57.57.57h7.8c.33 0 .57-.27.57-.57v-2.7c0-.33-.24-.57-.57-.57h-2.67v-.06l3.78-7.29c.21-.42-.06-.81-.51-.81h-8.13c-.3 0-.54.24-.54.57v2.73c0 .3.24.57.54.57h2.67v.06l-3.51 7.2v.3zM365.08 105.43c0 .3.27.57.57.57h3.24c.51 0 .66-.18.66-.57v-5.49c0-1.83 1.05-2.37 2.01-2.37 1.32 0 2.19 1.05 2.19 2.37v5.49c0 .3.24.57.57.57h3.18c.3 0 .57-.27.57-.57V100c0-3.33-1.95-6.3-5.73-6.3-.9 0-1.89.24-2.79.69v-8.82c0-.3-.27-.57-.57-.57h-3.33c-.3 0-.57.27-.57.57v19.86zM351.55 100c0 3.6 3.03 6.3 6.45 6.3 2.16 0 3.72-.84 4.83-2.52.21-.3.06-.6-.21-.84l-1.8-1.56c-.18-.15-.45-.09-.66.12-.48.48-.99.93-2.04.93-1.32 0-2.34-1.08-2.34-2.43 0-1.32 1.08-2.43 2.4-2.43.69 0 1.32.33 1.74.78.15.15.51.21.66.06l1.8-1.71c.27-.24.36-.57.15-.84-1.14-1.38-2.61-2.16-4.5-2.16-3.42 0-6.48 2.76-6.48 6.3zM337.69 99.97c0 3.45 2.82 6.33 6.24 6.33 3.42 0 6.24-2.88 6.24-6.33 0-3.39-2.82-6.27-6.24-6.27-3.42 0-6.24 2.88-6.24 6.27z" fill="#FA4480"/><path d="M341.56 99.97c0-1.32 1.05-2.4 2.37-2.4s2.37 1.08 2.37 2.4c0 1.35-1.05 2.46-2.37 2.46s-2.37-1.11-2.37-2.46z" fill="#FFF"/><path d="M322.72 105.43c0 .3.27.57.57.57h3.24c.51 0 .66-.18.66-.57v-5.49c0-1.83 1.05-2.37 2.01-2.37 1.32 0 2.19 1.05 2.19 2.37v5.49c0 .3.24.57.57.57h3.18c.3 0 .57-.27.57-.57V100c0-3.33-1.95-6.3-5.73-6.3-.9 0-1.89.24-2.79.69v-8.82c0-.3-.27-.57-.57-.57h-3.33c-.3 0-.57.27-.57.57v19.86z" fill="#FA4480"/></g></svg>