<svg width="1024" height="622" viewBox="0 0 1024 622" xmlns="http://www.w3.org/2000/svg"><title>wedding404</title><g fill="none" fill-rule="evenodd"><path d="M578.527 124.5c3.78-1.078 5.671-2.696 5.671-4.854l-5.671 4.855zm93.167 163.44c2.16 0 4.32-1.618 6.481-4.854l-6.481 4.854zm-54.28-97.092c1.08-.54 1.62-1.888 1.62-4.046l-1.62 4.046zm52.66 122.984c.54 0 .81-.54.81-1.618l-.81 1.618zm-62.382-1.618c0-.54.27-.81.81-.81l-.81.81zm-93.167 62.3c.54-.539.81-.943.81-1.213 0-.27.27-.674.81-1.213l-1.62 2.427zM265 203.795c0-11.328 2.7-24.139 8.101-38.433 5.401-14.295 12.558-27.78 21.47-40.456 8.911-12.676 19.173-23.329 30.785-31.96C336.968 84.316 349.256 80 362.218 80c17.823 0 34.566 3.776 50.229 11.327 15.663 7.552 29.435 15.913 41.317 25.083 11.883 9.17 21.47 17.53 28.76 25.082 7.292 7.552 11.748 11.328 13.368 11.328 6.481 0 14.313-3.776 23.494-11.328 9.182-7.552 20.254-15.777 33.216-24.678 12.963-8.9 27.95-17.126 44.963-24.677 17.014-7.552 36.862-11.328 59.546-11.328 7.562 0 14.853 1.349 21.874 4.046a172.545 172.545 0 0 1 20.254 9.304 455.873 455.873 0 0 0 19.849 10.114c6.75 3.237 13.907 5.394 21.468 6.473 8.102 9.17 13.368 19.823 15.798 31.96 2.43 12.136 3.646 24.138 3.646 36.005 0 33.443-5.671 64.594-17.013 93.452-11.342 28.858-25.925 56.502-43.748 82.933-17.823 26.431-37.537 51.648-59.14 75.652a29063.666 29063.666 0 0 1-63.192 69.988c-2.7 2.697-5.671 6.472-8.912 11.327a132.333 132.333 0 0 1-10.532 13.755c-3.78 4.315-7.831 8.09-12.152 11.327-4.32 3.237-8.372 4.855-12.152 4.855-12.423 0-23.09-4.045-32.001-12.137a733.932 733.932 0 0 0-27.14-23.464l-36.457-29.128a1127.564 1127.564 0 0 1-40.507-33.982c-13.503-11.867-26.06-23.869-37.672-36.005-11.612-12.137-20.929-24.139-27.95-36.006a114.122 114.122 0 0 1-9.317-20.227c-2.43-7.013-5.806-13.485-10.126-19.419-14.043-19.958-25.385-40.05-34.027-60.278-8.641-20.228-12.962-42.748-12.962-67.56zm364.566-100.33c.54-.54.27-1.214-.81-2.023-1.08-.809-1.62-.404-1.62 1.214l1.62 2.427-3.24-4.854-4.861 4.854.81 1.619-3.24 2.427-1.621-.81-.81 4.046-9.722 2.428-3.24-2.428-4.861 1.618c1.08 2.698 2.7 6.069 4.86 10.114 2.16 4.046 4.591 6.069 7.292 6.069l11.342-8.9-2.43-3.237-8.102 7.282-3.24-2.427a311.73 311.73 0 0 1 16.607-7.687 877.188 877.188 0 0 0 17.418-7.686l7.292 10.518-1.62 3.236-4.051-6.472 1.62-2.428c-5.4 0-9.587 2.158-12.557 6.473-2.97 4.315-6.616 7.282-10.937 8.9l3.24.81 8.912-1.619 7.291 4.855c0 3.776-1.485 6.203-4.455 7.282-2.971 1.079-5.807 1.618-8.507 1.618h-4.05l-8.102 7.282c2.16 1.079 4.05 1.618 5.67 1.618 5.402 0 9.858-1.348 13.368-4.045s6.481-5.799 8.912-9.305c2.43-3.506 4.456-6.608 6.076-9.305 1.62-2.697 2.97-4.045 4.05-4.045v3.236c3.781-3.776 8.912-5.664 15.394-5.664l-1.62-3.236 4.05-9.71-4.05 1.619-1.621-1.618-4.861 6.472h-1.62l1.62-7.281-2.43-3.237-1.62 3.237-4.051-3.237 1.62-1.618-11.342-4.855-3.24 3.237 1.62 1.618-3.241 3.236-4.05-2.427v-2.427l-4.862 3.236zm-187.954 42.883c-3.78.54-9.722 4.315-17.823 11.327-8.102 7.013-16.203 15.238-24.305 24.678-8.101 9.44-15.392 18.61-21.874 27.51-6.48 8.9-9.991 15.238-10.531 19.014 2.7-.54 8.101-4.45 16.203-11.732 8.101-7.282 16.607-15.643 25.52-25.083 8.91-9.44 16.877-18.34 23.898-26.7 7.022-8.361 11.072-14.16 12.153-17.396l-3.24-1.618zm102.079 67.965c-3.24.54-9.047 4.99-17.418 13.35-8.372 8.36-17.284 17.8-26.735 28.319-9.452 10.518-17.824 20.767-25.115 30.746-7.291 9.979-11.207 16.586-11.747 19.823h4.86c4.322-4.315 10.533-10.653 18.634-19.014a778.218 778.218 0 0 0 24.305-26.296c8.101-9.17 15.392-18.07 21.874-26.7 6.48-8.631 10.261-15.374 11.342-20.228zm-4.051 53.4c1.62 2.698 4.05 6.339 7.291 10.924 3.24 4.585 6.751 6.877 10.532 6.877l6.481-5.664 4.861 7.282c4.321-4.854 9.047-8.495 14.178-10.923 5.13-2.427 10.397-5.259 15.798-8.495l-4.861-5.664a31.278 31.278 0 0 1-7.697 6.877c-2.97 1.888-6.076 2.832-9.316 2.832l-5.671-2.427 4.05-7.282-.81-1.618-4.05 3.236-1.62-3.236 4.05-8.9-8.912 3.236-10.532-8.091-4.05 6.473 8.911 1.618-6.48 8.091 10.531 4.855-1.62 3.236-21.064-3.236zm-21.874-70.392a167.52 167.52 0 0 1 3.24 6.878c1.08 2.427 2.971 3.91 5.672 4.45l-1.62-11.328 8.91-17.8 5.672 3.237 1.62-4.046-12.962-5.664-8.102 4.046 8.102 5.664-9.722 4.045-.81-.809-6.481 6.473c-2.7 0-4.726-.674-6.076-2.023-1.35-1.348-3.376-2.562-6.076-3.64l-5.671 8.9 3.24-3.237 1.62 5.664 4.861-2.428 14.583 1.618zm113.42 116.512c4.321 0 7.562-2.697 9.722-8.091 2.16-5.394 4.861-9.17 8.102-11.328 0 2.697.27 5.394.81 8.091.54 2.697.81 5.394.81 8.091l8.102-9.709-8.102-9.71c-5.4 2.698-10.262 4.046-14.583 4.046l7.292-7.282c-4.321 0-7.562 1.888-9.722 5.664-2.16 3.776-3.51 7.552-4.05 11.328l-6.482-.81 2.43 5.664 7.292-1.618-1.62 5.664zm-163.65-97.093l.811.81 8.101-3.237-.81-4.046 4.861-4.854 3.24 4.045 6.482-7.282-4.05-8.09a284.37 284.37 0 0 0 8.506-8.901c2.97-3.237 5.266-6.743 6.886-10.519l-26.735 15.374-.81 2.427 10.532 8.09-6.076 2.024c-2.43.809-4.456 1.213-6.076 1.213l-10.532-.809-.81 2.428 8.911 4.854-2.43 6.473zM590.68 359.142c.54 1.618 1.62 2.697 3.24 3.236 1.621.54 3.241.944 4.862 1.214 1.62.27 2.97.674 4.05 1.214 1.08.539 1.62 1.888 1.62 4.045l-.81 5.664c2.701-4.315 6.212-8.091 10.532-11.328 4.321-3.236 9.182-5.394 14.583-6.472l-7.291-2.428-5.671 1.618-1.62-2.427c.54-2.697 2.025-4.45 4.455-5.26 2.43-.808 4.726-1.213 6.887-1.213h3.24v-1.618l-7.291-4.045-11.342 6.472.81 6.473-1.62 2.428.81 5.663-2.43.81-8.102-8.9-8.912 4.854zM364.65 96.992l-12.153 8.09c3.24 4.855 4.726 8.766 4.456 11.732-.27 2.967 2.295 6.608 7.696 10.923 1.62-2.157 3.646-5.529 6.076-10.114 2.43-4.584 4.996-6.877 7.697-6.877l6.48 3.236.81-.809-1.62-2.427 3.241-4.045c-2.7.539-5.13.539-7.291 0-2.16-.54-4.59-1.08-7.291-1.619-.54 2.697-1.756 5.125-3.646 7.282-1.89 2.158-4.186 3.776-6.886 4.855a46.081 46.081 0 0 0 2.43-8.091c.54-2.697 1.62-5.124 3.24-7.282l-3.24-4.855zm144.205 311.505c-2.7 2.158-6.48 5.394-11.342 9.71-4.86 4.315-7.291 8.09-7.291 11.327l10.532-6.473 1.62 1.619-3.24 2.427c1.08.54 2.43.54 4.05 0 1.62-.54 2.97-1.079 4.051-1.618l1.62 4.045 1.62-2.427-.81-2.427 12.963-4.046-13.773-12.137zm-222.79-188.522l-.81 1.619 4.05 3.236h5.671l-3.24-8.09h1.62l6.481-8.901-8.101-13.755-8.912 8.091.81 5.664 6.482-5.664h1.62c-.54 2.697-1.35 4.585-2.43 5.664-1.08 1.079-2.161 1.753-3.241 2.023-1.08.27-2.16.674-3.24 1.213-1.081.54-2.161 1.888-3.241 4.046l6.48 4.854zm120.712-80.101l14.582-8.091 6.482 3.236c2.7 0 4.86-.944 6.48-2.832 1.621-1.888 2.971-4.18 4.052-6.877l-8.102 3.236-4.86-7.282-4.052 1.619-8.101-5.664-1.62 5.664-1.62-1.619-3.241 6.473 8.911-1.618c-1.08 3.237-2.835 5.394-5.266 6.473-2.43 1.079-4.455 2.967-6.076 5.664l2.43 1.618zm-105.32 38.028l14.583-8.091 6.481 2.427c2.701 0 4.861-.944 6.482-2.832 1.62-1.888 2.97-4.18 4.05-6.877l-8.911 3.236-4.051-6.473-4.05 1.619-8.102-6.473-1.62 6.473-2.43-1.619-2.431 5.664 8.911-1.618c-1.08 3.236-2.7 5.394-4.86 6.473-2.161 1.079-4.321 2.967-6.482 5.664l2.43 2.427zm148.258 5.664l7.29-1.619 7.292 1.619-1.62-3.237-.81.81 11.342-9.71 4.86 7.282 4.051-4.046-3.24-7.281-15.393-1.619 2.43 6.473-9.721-6.473-4.861 12.137 1.62-3.237-3.24 8.9zm204.967 180.43h.81c0-2.157.27-4.315.81-6.472.54-2.158 2.16-3.237 4.861-3.237v8.091l13.773-9.709c-1.62-2.158-3.646-3.91-6.077-5.26-2.43-1.348-3.645-3.37-3.645-6.067l2.43-5.664c-2.7 1.079-4.59 2.966-5.67 5.664-1.081 2.697-1.891 5.124-2.431 7.281l-10.532 7.282 4.05 3.237-4.05.809 5.67 4.045zm-50.23-173.148c.54-2.697 1.216-5.53 2.026-8.496a78.335 78.335 0 0 1 2.836-8.496l-9.722-.809 5.67 4.046-3.24 4.045-8.911-1.618.81-.809-6.481.81c1.08-2.698 2.7-4.99 4.86-6.878s3.241-4.18 3.241-6.878a51.306 51.306 0 0 0-7.696 5.664c-2.43 2.158-4.186 4.585-5.266 7.282l21.874 12.137zm-209.827-59.874c-7.022 0-12.693 2.832-17.014 8.495-4.32 5.664-8.641 10.384-12.962 14.16v4.045h2.43c4.321-2.697 9.587-6.607 15.798-11.732 6.212-5.124 10.127-10.114 11.748-14.968zm-55.9-16.182c-4.321 2.157-7.697 5.528-10.127 10.113-2.43 4.585-3.916 9.305-4.456 14.16 5.94 0 10.532-2.697 13.772-8.091 3.24-5.394 5.401-10.519 6.481-15.373l-5.67-.81zm238.183 197.422l-8.102 6.473c-2.7 2.157-4.32 5.124-4.86 8.9l7.29-5.664 9.722 4.045 5.671-3.236c2.701 0 4.996-.405 6.887-1.214 1.89-.809 3.375-2.562 4.456-5.259l-7.292 3.237v.809c-3.24 0-5.67-1.349-7.291-4.046-1.62-2.697-3.78-4.045-6.481-4.045zM437.56 429.534l9.722-7.282-2.43-8.9.81-4.855h-4.05l-2.431 1.619 4.05 4.854-8.101-3.236 4.86-16.991c-4.86 2.157-8.1 5.933-9.721 11.327l1.62 2.427-1.62 4.855 1.62 3.236 3.24-1.618 7.292 4.046-.81 4.045-8.912-3.236 4.861 9.71zm-93.167-257.296c-3.78 0-6.886.944-9.316 2.832-2.43 1.888-4.861 4.046-7.292 6.473a170.649 170.649 0 0 0-6.886 7.282c-2.16 2.427-4.59 4.45-7.291 6.068v4.046h3.24l13.368-13.35a331.438 331.438 0 0 1 14.177-13.35zm113.421 25.082l6.481-4.045c-.54.54 0 1.214 1.62 2.023 1.62.809 2.431.404 2.431-1.214l-8.102-8.091-10.531 2.427-6.482-2.427 14.583 11.327zm179.043 132.694c1.08-3.776 3.24-6.473 6.48-8.091 3.241-1.618 4.862-4.315 4.862-8.091 0-1.079-.405-2.562-1.216-4.45-.81-1.888-1.485-3.371-2.025-4.45a58.229 58.229 0 0 0-7.291 8.9 58.229 58.229 0 0 1-7.292 8.9l6.482 7.282zm-161.22-84.147l4.861-.81 1.62 1.619 4.051-.81-1.62-5.663.81-7.282-3.24-5.664c-2.16 2.158-4.186 4.585-6.077 7.282-1.89 2.697-3.105 5.394-3.645 8.091l3.24 3.237zm80.205 64.728l-4.05 2.428.81.809-2.431 4.855 1.62 4.045a212.018 212.018 0 0 1 12.557-7.282 45.983 45.983 0 0 0 10.937-8.091l-9.721 1.618a64.043 64.043 0 0 0-9.722 2.428v-.81zm106.13-54.21c3.78-1.618 7.29-3.91 10.531-6.877 3.24-2.967 5.131-6.608 5.671-10.923l-.81-1.618c-2.16 3.236-5.13 5.663-8.912 7.282a95.223 95.223 0 0 1-11.342 4.045l4.861 8.091zm-89.927-114.084l4.86 3.237 8.912-6.473c-.54 0-.81-.405-.81-1.214 0-.809.27-1.214.81-1.214l4.861.81 12.152-3.237-7.29-5.664v4.855l-9.723-.81-11.342 8.901h-2.43v.81zm16.203 4.046l7.291 8.9 8.912-7.282v1.618l11.342-6.473-12.152-3.236-7.292 8.091-8.101-1.618zm-300.565 92.238c3.24 0 6.481-.81 9.722-2.427 3.24-1.619 6.481-2.428 9.722-2.428v1.619l5.67-2.428-6.48-8.09-18.634 13.754zm186.334 101.138c-.54 3.237-2.565 4.45-6.076 3.641-3.51-.809-5.266.944-5.266 5.26l4.86-2.428 2.431 2.427h5.671v1.619l8.102-4.046c-4.321-1.079-5.941-2.832-4.861-5.259 1.08-2.427.27-4.45-2.43-6.068l-6.482 3.236 4.051 1.618zm-109.37-87.383l4.05-4.046 6.482 1.618 2.43 4.855 3.241-3.236-8.912-8.9-11.342 5.663 4.051 4.046zm-53.47-27.51l12.963-10.518-8.912-8.9 4.05 8.9c-3.24 1.618-6.48 4.854-9.72 9.709l1.62.81zm250.336-10.518l.81 5.663 2.43-4.045 5.672 4.045 8.101-12.136-14.583-8.9c0 2.697.946 4.72 2.836 6.068 1.89 1.349 3.916 2.292 6.076 2.832l-11.342 6.473zm149.877 70.392c2.7-2.697 4.861-5.664 6.481-8.9l4.861-9.71-.81-2.427-9.722 4.855.81 2.427-7.29 8.9 5.67 4.855zm-378.339-31.555c-2.16 0-3.78.809-4.86 2.427-1.08 1.618-1.89 3.237-2.431 4.855l3.24 4.045 4.051-1.618-2.43-4.045 9.722 3.236-1.62-9.71-3.241 4.046-2.43-3.236zm235.753 114.893l9.722-4.855 10.532 4.855 4.05-3.236-8.911-6.473-15.393 9.709zm-30.785-93.047c-3.781 1.618-7.697 2.292-11.747 2.023-4.051-.27-6.617 2.562-7.697 8.495 2.16-.54 5.941-1.753 11.342-3.64 5.401-1.889 8.102-4.181 8.102-6.878zm-213.88 14.564c0 .54.27 1.078.81 1.618.541.54 1.081.54 1.621 0l-6.481 2.427 6.481 7.282-8.101 7.282c3.24 0 6.346-1.348 9.316-4.045 2.971-2.697 5.536-5.125 7.697-7.282l-.81-6.473-5.671 6.473-2.43-4.046-.811-4.855-1.62 1.619zm168.511 107.61l22.685-5.663-9.722-4.045-12.963 9.709zm138.536-229.785l4.86-7.282-2.43-.81c1.08-2.697 2.565-5.259 4.456-7.686 1.89-2.427 4.186-4.18 6.886-5.26-5.941 0-9.452 1.754-10.532 5.26s-3.24 7.147-6.481 10.923l3.24 4.855zm-95.598 205.513v1.618l5.671-3.237 8.102 1.619 5.67-1.619v-1.618l-8.91-5.664-10.533 8.9zm-8.101 60.683l13.772-16.182h-5.67l-11.343 8.9 3.24 7.282zM647.39 164.956c-1.08.54-1.35 1.349-.81 2.428.54 1.078 1.08 1.618 1.62 1.618h.81l4.05-3.237-4.05-12.136-4.05 3.236-6.482-1.618 8.912 9.71zm-87.496-2.427l8.911-12.137-4.86-2.427-6.482 8.091 2.43 6.473zm15.392 3.236c2.7-1.078 5.941-2.562 9.722-4.45 3.78-1.888 6.211-4.45 7.292-7.686-2.701 0-6.347 1.213-10.937 3.64-4.591 2.428-7.427 4.99-8.507 7.687l2.43.81zM328.191 277.422c3.241 0 7.562-1.753 12.963-5.26 5.4-3.505 8.101-6.877 8.101-10.113a280.297 280.297 0 0 1-11.342 7.687c-3.78 2.427-8.101 3.64-12.962 3.64l3.24 4.046zm230.082-135.12c2.7 0 5.266-.405 7.697-1.214 2.43-.81 3.645-2.832 3.645-6.069l-5.67-4.854-5.672 12.136zm-221.98 171.53l9.722-5.664-9.722-2.427-5.671 12.136 4.05-7.282-1.62 5.664 1.62-.809 3.241 3.237-1.62-4.855zm121.522-47.737l12.152-1.619-3.24-4.045c-2.16 2.157-4.321 2.157-6.482 0l-4.86 3.236-2.43-6.473h-4.052l8.912 8.9zm226.031-148.876c2.7 1.079 5.266 1.753 7.697 2.023 2.43.27 4.995.674 7.696 1.213l-12.152-8.09-4.051 3.236.81 1.618zM439.182 219.975l5.67-2.427 5.672 2.427v-9.709l-12.963 7.282 1.62 2.427zm171.75 43.692l8.102-13.755-1.62-3.236c-1.08 3.776-3.105 6.068-6.076 6.877-2.97.81-5.536 3.102-7.696 6.878l7.29 2.427v.81zm-95.596 141.594c1.62-5.394 5.94-9.17 12.962-11.328l-5.671-4.854a41.806 41.806 0 0 1-4.05 7.686c-1.621 2.428-3.512 4.45-5.672 6.069l2.43 2.427zm-62.382-42.074l4.05-4.854 6.482 5.663c0-7.012-1.89-12.136-5.67-15.373l-4.862 14.564zm-86.686-37.219l4.051 1.619c2.7 0 5.671-.54 8.912-1.619 3.24-1.078 5.13-2.966 5.67-5.663-3.24 0-6.345.54-9.316 1.618-2.97 1.079-6.076 1.618-9.317 1.618v2.427zm34.837-206.322l-4.051-11.327-5.671 5.663 9.722 5.664zm106.129 194.186l3.24 8.09 8.102-9.708-5.67-4.046 1.62 8.9-4.862-.809-.81-4.854-1.62 2.427zm153.928-153.73c2.16-2.697 4.32-5.125 6.481-7.282 2.16-2.158 4.591-3.776 7.292-4.855l-5.671-4.046c-1.62 3.776-2.836 6.473-3.646 8.092-.81 1.618-3.376 2.966-7.697 4.045l3.241 4.046zm-85.876 240.304l7.292-5.663 4.05 2.427 6.482-5.664c-5.941 0-12.693 1.888-20.254 5.664l2.43 3.236zm-110.99-181.24c-5.94 2.697-10.262 5.934-12.962 9.71l12.962-4.855v-4.855zm-123.952-4.045l4.86-9.71-3.24.81-4.05-2.428-5.672 4.046 8.102 7.282zm115.04 224.932l-4.05 2.427c1.62 1.618 2.16 2.697 1.62 3.236l7.291-4.045-4.05-11.328-2.43 7.282 1.62 2.428zm223.601-102.757c0 1.618-.54 2.562-1.62 2.832s-2.295.404-3.646.404c-1.35 0-2.565.27-3.645.81-1.08.539-1.62 1.618-1.62 3.236l12.962-8.9-8.102-6.473 5.671 8.091zm-68.862 59.874l4.86 1.618-.81-5.664 4.051-4.854-2.43-1.619-9.722 4.855 4.05 5.664zM492.65 417.398l8.102-5.664-7.291-10.519-1.62 4.855 3.24 4.855-4.861 4.045 2.43 2.428zm-55.09-131.885l4.051-2.427 5.671 1.618-4.05-7.282-10.533.81 4.861 7.281zm137.725 67.156c2.16 0 4.861-.27 8.102-.81 3.24-.539 5.13-2.157 5.67-4.854l-6.48 3.237-5.671-3.237-6.481 1.618 4.86 4.046zm39.698-125.412l11.342-3.236-.81-4.046h-1.62c-1.621 0-3.646.27-6.077.81-2.43.539-3.646 1.887-3.646 4.045l.81 2.427zm.81-87.383c4.32 0 7.021-2.967 8.101-8.9-1.62 0-3.645.404-6.076 1.213-2.43.81-3.646 2.293-3.646 4.45l1.62 3.237zm-110.18 80.101c2.7-2.157 5.13-4.45 7.291-6.877 2.16-2.427 3.51-5.529 4.05-9.305h-6.48l2.43 5.664-7.291 10.518zm-104.51 38.029l3.241-1.619v-11.327l-5.67 3.236 2.43 9.71zm145.827 98.71v1.619l8.912-4.855-9.722-5.664-1.62.81 5.67 5.663-3.24 2.428zm-171.751-53.4l5.671-8.9c-2.16 0-4.726.134-7.696.404-2.97.27-4.996 1.753-6.076 4.45l8.101 4.045zm81.825 83.337l7.291-6.472-4.05 1.618-5.672-5.664-3.24 4.046 5.67 6.472zm236.563-122.984c.54 4.855 3.24 7.282 8.101 7.282l2.43-3.236-6.48-4.855-4.051.81zm-110.99 41.265l1.62-7.282 8.912 1.618.81-8.091c-2.7 0-5.266 1.348-7.697 4.045-2.43 2.697-3.915 5.394-4.455 8.091l.81 1.619zm-4.051-135.121c-2.7 1.618-5.13 2.832-7.291 3.64-2.16.81-4.051 2.563-5.671 5.26 2.7 0 5.806-.405 9.316-1.214 3.511-.809 6.076-2.562 7.697-5.259l-4.051-2.427zm102.889 96.284h2.43c0-1.619-.405-3.372-1.215-5.26s-2.295-2.831-4.456-2.831l-4.86 4.854 8.1 3.237zm-166.08-93.048l2.43-1.618-3.24-8.091-7.292 5.664 8.102 4.045zM370.319 356.715a45.168 45.168 0 0 1-3.646 6.068c-1.35 1.888-2.025 4.18-2.025 6.877l8.912-6.473-3.24-6.472zm213.879-122.176l8.102.81 3.24-10.519-1.62-1.618-3.24 8.9-6.482-3.236v5.663zm-32.406 98.711l1.62 3.237c.54 1.079.54 2.157 0 3.236l4.051-8.09v-5.665l-5.67 7.282zm-52.66 22.655c0 3.776.676 6.069 2.026 6.878 1.35.809 3.646 1.213 6.886 1.213l-6.481-9.709-2.43 1.618zm73.724-113.275l7.291-1.618 2.43 1.618c-1.08-2.697-2.835-4.45-5.265-5.259a64.106 64.106 0 0 0-7.697-2.022l3.241 7.281zm-62.381 61.493l8.101-8.9-2.43-4.046-8.912 9.71 3.24 3.236zm153.117-14.564c0 2.697.135 4.99.406 6.877.27 1.888 1.755 3.371 4.455 4.45l2.43-2.427-3.24-8.9h-4.05zm-33.216-103.566c5.942 0 9.722-2.427 11.342-7.282l-.81-1.618-10.532 8.9zm20.254 29.937l3.24 8.091 3.241-1.618v-2.428l-4.86-7.281-1.62 3.236zM431.89 323.54l3.24 6.473c1.081 2.158 2.701 3.506 4.862 4.046l1.62-2.428h-4.05l.81-9.71-6.482 1.62zm8.102-119.748l4.05 1.619 7.292-2.428-4.05-4.854-7.292 5.663zm117.471 207.94l4.861-8.9-10.532.81 5.671 8.09zm-117.471-63.919l7.291-4.854-5.67-8.091.81 9.709-3.241 2.427-.81-.809-.81-.809 2.43 2.427zm-110.99-128.648c.54 3.776 3.51 5.664 8.911 5.664l-2.43-8.09-6.481 2.426zm78.584 72.01l9.722-3.236-4.051-8.09-8.912 10.518 3.24.809zM376.8 313.833l10.532-12.946-2.43-.809-4.05 2.427 1.62 1.619-5.672 9.709zm226.031 71.201l4.861-8.09-1.62-1.619-6.481 3.236 3.24 6.473zm-16.203-95.474l.81-4.046-8.911-4.045-4.05 1.618 12.151 6.473zm39.698 80.101c5.94 0 8.911-2.966 8.911-8.9l-2.43 2.427-1.62-3.236-1.62 2.427.81 2.428-4.051 1.618v3.236zm-60.761 24.273l5.67-4.854-4.05-4.046-4.05 4.046 2.43 4.854zm51.039-19.418l6.481-8.091-1.62-3.237-5.671 7.282.81 4.046zm93.977-237.068c-2.16 2.157-4.32 3.64-6.481 4.45-2.16.809-3.51 2.832-4.05 6.068l10.531-10.518zm-153.118 8.09c-2.16 1.08-4.32 2.428-6.481 4.046-2.16 1.618-3.51 3.776-4.05 6.473 2.7 0 4.86-1.079 6.48-3.236 1.62-2.158 2.971-4.585 4.051-7.282zm-44.558 207.941l1.62-11.327h-5.67l4.05 11.327zm50.23-165.058l4.05-1.618c-2.16-1.079-3.51-2.562-4.05-4.45-.54-1.888-2.161-3.102-4.862-3.641l4.861 9.71zm61.57 140.785l.81-8.9-8.911 4.045 8.101 4.855zM410.016 228.067l12.963-4.046-1.62-4.046-11.343 8.092zm200.917 76.865l-6.481 8.9 2.43-.81 3.24 2.428.81-1.618-1.62-2.427 1.62-4.046 2.431.81h.81l-1.62-3.237h-1.62zm-89.926 59.064c3.24-1.078 5.67-2.831 7.29-5.259 1.621-2.427 3.241-4.99 4.862-7.686h-6.481l1.62 5.664-7.291 7.281zM600.4 109.937l4.05-1.618 3.241 2.427 4.051-5.664-2.43-3.236-8.912 8.091zm-64.002 50.165c-2.7 1.078-5.13 2.292-7.291 3.64a78.37 78.37 0 0 1-6.481 3.642l11.342-2.428 1.62.81.81-5.664zm-48.608 153.73l4.05 4.855 9.722-2.428-4.86-2.427-4.052 1.618-2.43-4.045-2.43 2.427zm-6.482 23.464l3.24-2.427-10.531-11.328v2.427l7.291 11.328zm71.293 93.047c-2.7 1.618-4.185 3.506-4.456 5.664-.27 2.158-.675 4.585-1.215 7.282l4.051.81 1.62-13.756zm115.041-230.595l5.671-7.282-3.24-4.046-4.861 5.664 2.43 5.664zM527.488 410.116l5.67-3.237-.81-1.618-4.05.81-7.291-5.665 6.48 9.71zM654.68 278.23c-1.08.54-2.566 1.349-4.456 2.427-1.89 1.08-2.835 2.428-2.835 4.046l.81.81c4.32 0 7.291-1.35 8.911-4.046l-2.43-3.237zm0-9.71l3.24-4.854-.81-4.854-3.24 5.663-7.292-4.045 8.102 8.09zM430.27 246.677c-1.62 0-3.51.27-5.671.81-2.16.539-3.24 1.887-3.24 4.045 2.16 0 4.32-.135 6.48-.405 2.161-.27 4.051-1.214 5.672-2.832l-1.62-1.618h-1.621zm71.293-48.546c-4.86 0-7.021 1.348-6.481 4.045s-.54 5.124-3.24 7.282c5.94-2.697 9.18-6.473 9.721-11.327zm179.853 115.702h5.67l3.241-2.427-5.67-4.855-3.241 7.282zm-13.773-176.385l.81-4.046-2.43-4.855-4.861 4.046 6.481 4.855zm-52.66 106.802l1.62.809-8.91-12.946v1.618l7.29 10.519zm-290.842-8.091l-10.532 4.854 4.05-.809 4.051 4.046 4.051-8.091h-1.62zm138.535 6.472l-4.05-8.09-7.292 1.618 11.342 6.472zm87.496-65.537l5.67-5.664-3.24-2.427-6.48 5.663 4.05 2.428zm-106.94 141.594l2.43-4.855-4.05-4.046-2.43 1.619 4.05 7.282zm-6.48-61.493c2.7 0 4.725-.539 6.075-1.618 1.35-1.079 2.836-2.427 4.456-4.045l-3.24-.81-7.292 6.473zm109.37-64.728c-2.701 0-4.187.404-4.457 1.214-.27.809-.405 2.292-.405 4.45 1.08 0 2.7-.27 4.861-.81 2.16-.539 3.51-1.618 4.05-3.236l-4.05-1.618zM373.56 294.413c0-1.079-.27-2.832-.81-5.259-.54-2.427-1.89-3.64-4.051-3.64l-1.62 2.426 6.48 6.473zm307.856-120.557c0-2.157-.27-4.045-.81-5.663-.54-1.619-2.16-2.428-4.861-2.428l-2.43 1.619 8.1 6.472zM593.92 303.313l1.62 3.237 6.481-5.664 1.62 4.855 2.431-2.428-4.05-6.472-8.102 6.472zm76.154-122.984c4.32 3.237 7.291 5.934 8.911 8.091 0-1.618-.405-3.64-1.215-6.068-.81-2.427-2.295-3.641-4.456-3.641l-3.24 1.618zM596.35 331.632c-2.7 2.158-4.05 5.394-4.05 9.71l6.48-6.473-2.43-3.237zM472.398 370.47l6.48-7.282-3.24-2.427-5.67 5.664 2.43 4.045zm7.291-150.494h4.86l5.672-4.045-3.24-.81-7.292 4.855zm89.116 119.748c3.24-1.618 6.481-2.427 9.722-2.427l-5.671-4.855-4.05 7.282zm98.838-119.748c-1.62 2.698-3.51 4.99-5.67 6.878-2.161 1.888-4.322 3.91-6.482 6.068l15.393-8.9-3.24-4.046zm63.192-77.674c-1.08-.54-2.836-.27-5.266.81-2.43 1.078-4.186 1.887-5.266 2.427v2.427c4.86 0 8.371-1.888 10.532-5.664zM581.768 457.044l2.43.809 6.481-8.9-8.911 8.09zm67.242-108.42c3.78-1.08 6.481-2.967 8.101-5.664h-2.43c-2.16 0-4.32.54-6.481 1.618l.81 4.045zm-44.558-136.74c1.08 2.158 2.565 3.641 4.456 4.45 1.89.81 3.645 1.754 5.265 2.832 0-3.775-.945-5.933-2.835-6.472-1.89-.54-4.186-.81-6.886-.81zM358.167 297.65l3.24-.81-4.86-5.663v-4.046l-5.671 3.237 7.29 7.282zm123.142 180.43c0-3.236-1.08-5.933-3.24-8.09l-4.051 2.427 7.291 5.664zm-72.913-214.413c-5.4 1.08-8.912 3.506-10.532 7.282l10.532-4.854v-2.428zm-15.393-4.854l-4.05 7.282 7.29-5.664-3.24-1.618zm117.472 97.092c.54 1.08 1.62 2.023 3.24 2.832l4.051 2.023-4.86-6.473-2.431 1.618zm65.622 62.302l6.48-3.237-4.05-4.854-2.43 8.09zM427.84 440.053l7.29-4.855-2.43-3.237-4.86 8.092zm200.916-162.63l7.291-9.71-1.62-1.618-5.67 11.327zm80.205 12.945c-5.401 0-8.102 2.427-8.102 7.282 1.62-.54 3.106-1.618 4.456-3.237 1.35-1.618 2.566-2.966 3.646-4.045zM551.792 224.83l.81 3.237 8.102-.81-8.102-4.045-.81 1.618zm147.447-33.982l1.62.809a44.177 44.177 0 0 1 3.646-3.237 8.543 8.543 0 0 0 2.835-4.045l-8.101 6.473zM493.462 340.532c1.08 1.08 2.43 1.888 4.05 2.428 1.62.54 2.97 1.079 4.051 1.618l-4.05-6.473-4.051 2.427zm-27.545 76.866c0 2.697.675 4.315 2.025 4.854 1.35.54 3.105 1.079 5.266 1.618 0-2.697-.675-4.315-2.026-4.854-1.35-.54-3.105-1.079-5.265-1.618zm176.612-48.547l5.67-4.855-9.721 2.428 4.05 2.427zM410.016 406.88l1.62 1.618 4.051-.809-1.62-6.473-4.05 4.855v.81zM303.887 256.385c-3.24 1.619-5.941 3.506-8.101 5.664l4.86.81 3.241-6.474zm418.036-22.655l8.912-2.427-2.43-2.427-8.912 2.427 2.43 2.427zm-310.286 14.564c1.62-2.157 2.835-4.45 3.645-6.877a63.891 63.891 0 0 0 2.026-7.687l-5.671 14.564zm203.347-78.483a22.403 22.403 0 0 0 4.455-2.023 18.83 18.83 0 0 0 3.646-2.832l-1.62-1.618-6.481 6.473zM546.12 426.298l5.671-3.237-4.86-4.854-.81 8.09zm-38.887-11.328l3.24 4.046-2.43 3.236-3.24-3.236v-.81l2.43-3.236zm42.938-224.931l1.62-1.619-1.62-4.045-.81.809.81-4.046-8.102 4.046 8.102 4.855zM397.864 333.25l2.43.81 4.861-4.046-2.43-1.618-4.86 4.854zm211.449 75.247c-3.241 2.697-4.861 5.934-4.861 9.71l5.67-7.282-.81-2.428zM539.64 334.06l8.101-6.473-8.101 4.045v2.428zm-152.308-41.265l1.62-5.664-8.1 2.428 6.48 3.236zm20.254-59.065l2.43-2.427-3.24-2.427-4.051 1.618 4.86 3.236zm209.018 44.501l4.86-4.854-2.43-5.664-2.43.809 4.05 5.664-4.05 4.045zM431.89 236.967l4.861-5.664h-4.05l-2.431 1.618 1.62 4.046zm-48.608 101.138c0 5.394 1.89 8.091 5.67 8.091-1.08-3.776-2.97-6.473-5.67-8.09zm260.057-81.72l1.62.81 2.43-2.428-.81-6.473-3.24 4.046v4.045zM597.97 216.74l4.05-4.855c-3.78 0-6.48.81-8.101 2.428l4.05 2.427zm40.507 54.21h1.62l-1.62 2.428 2.43 4.045 2.43-.809-2.43-5.664 1.62-2.427-.81-.81-3.24 3.237zm-214.69-40.455c5.402 0 8.102-1.888 8.102-5.664h-1.62l-6.481 5.664zm106.13 112.466l5.671-3.237-3.24-4.854-2.43 8.09zm58.33-91.43c-2.7 1.08-4.05 3.507-4.05 7.283l4.86-1.619-.81-5.663zm42.128 142.403l4.861 1.619 5.671-5.664h-2.43l-3.24 3.236-1.621-1.618-3.24 2.427zm-169.32 7.282l6.48-6.472-8.91 4.854 2.43 1.618zm48.608 41.265l5.672 3.236 1.62-2.427-4.05-3.236-3.242 2.427zm174.182-255.678l.81 4.046 4.051-4.046-.81-4.045-4.05 4.045zm-31.596-37.219c2.16 2.697 3.781 4.585 4.861 5.664l.81-7.282-5.67 1.618zM349.255 198.13c-.54.539-1.08 1.213-1.62 2.022-.54.81-.27 1.484.81 2.023l-3.24 5.664.81 1.618 4.05-6.473-.81-4.854zM589.06 376.942c0 1.618.135 3.371.405 5.26.27 1.887 1.485 2.831 3.646 2.831 0-1.618-.135-3.371-.405-5.259-.27-1.888-1.486-2.832-3.646-2.832zm-99.648 4.855l6.481.809.81-4.855-7.291 4.046zm34.026 104.375h.81c3.24 0 5.401-1.888 6.481-5.664l-7.291 5.664zm-59.95-152.112c0 .539.134 1.078.404 1.618s.405 1.079.405 1.618l5.671-2.427-6.48-3.237v2.428zm161.218 46.119c0 4.854 1.89 7.551 5.671 8.09-1.08-3.775-2.97-6.472-5.67-8.09zm-126.383 68.774c1.08 0 2.16-.27 3.241-.81a5.296 5.296 0 0 0 2.43-2.427l-2.43-2.427-3.24 5.664zm-63.191-154.54v-4.854l-3.24 1.618 5.67 5.664v-4.046l-2.43 1.618zm187.954-9.709l4.05-3.236-4.05-3.237-1.62 1.618 1.62 4.855zm-165.27-72.82l3.24 2.428 2.431-2.428-4.86-2.427-.81 2.427zm17.823 187.713l4.051 4.046v-4.046l-1.62-2.427-2.43 2.427zm150.688 6.473l4.05-6.473h-4.05v6.473zM344.394 161.72l4.051-5.664-6.481 1.618 2.43 4.046zm213.88 33.982c-1.621.54-3.241.944-4.862 1.214-1.62.27-2.7 1.483-3.24 3.64h.81c2.7 0 5.13-1.617 7.291-4.854zm24.304-78.483l1.62-4.855-5.671 1.618 4.05 3.237zM407.586 279.04c-3.24 2.158-5.401 5.394-6.481 9.71h3.24l3.24-9.71zm230.892 73.629v-5.664h-3.24l-1.621 1.618 4.86 4.046zm-170.941 79.292l4.86 4.046v-4.046h-.81l-1.62-1.618-2.43 1.618zM377.61 97.801l-6.48 4.854c1.62-1.079 3.24-1.618 4.86-1.618s3.24-.27 4.861-.81l-2.43-2.427h-.81zm52.66 100.329c-2.16 0-4.32 1.618-6.481 4.854 4.32 0 6.481-1.618 6.481-4.854zm77.774-22.655c0 4.854 2.16 7.282 6.481 7.282l-6.48-7.282zm38.887 127.838l-3.24-4.854-2.43 1.618 5.67 3.236zm12.963-3.236l4.86 4.046.81-8.9-4.86 4.854h-.81zm-81.825 91.43l3.24-4.856-5.67 2.428 2.43 2.427zm136.104-231.405c0-4.316-2.16-6.743-6.48-7.282l6.48 7.282zm117.472 4.045h-.81l.81-1.618-1.62-1.618-2.43 1.618 2.43 2.427.81-.809.81 3.237 1.62-1.619-.81-2.427-.81.81zM444.043 362.378l-.81 3.237 7.29.809-5.67-4.046h-.81zm0 66.347c1.08 0 2.565-.27 4.455-.81 1.89-.538 3.376-1.078 4.456-1.617l-3.24-1.618-5.671 4.045zM711.39 153.629c-3.78 0-5.67 1.348-5.67 4.045l6.48-4.045h-.81zM590.68 327.587c-3.24 0-5.4 1.888-6.481 5.663 2.16 0 3.51-.539 4.05-1.618.54-1.079 1.351-2.427 2.431-4.045zm58.33-118.939l4.862-4.855-6.481 1.619 1.62 3.236zm1.621 118.939l2.43-1.619-4.05-4.045-1.62 2.427 3.24 3.237zm13.773-47.738l4.05-2.427-7.291-1.618 3.24 4.045zm-246.285 57.447c-2.7 0-4.05 1.888-4.05 5.664h4.05v-5.664zm66.432 97.093l1.62.809 3.24-3.237-4.05-1.618h-1.62l.81 4.046zm205.777-276.715c0 2.697 1.62 5.125 4.861 7.282l.81-1.618c-1.08-3.776-2.97-5.664-5.67-5.664zm-67.242 258.914l2.43.81 8.102-5.664-10.532 4.854zm-48.609 21.846l.81 1.619 6.482-3.237-1.62-2.427-5.672 4.045zM555.033 289.56c-2.16 0-3.51.54-4.051 1.618-.54 1.079-1.62 2.157-3.24 3.236h2.43c2.16 0 3.78-1.618 4.86-4.854zm-245.475-12.137h4.05c0-3.776-1.35-5.664-4.05-5.664v5.664zm160.41 182.858c-1.08 0-2.431.135-4.051.405s-2.701 1.213-3.241 2.832c1.08 0 2.565-.27 4.456-.81 1.89-.539 2.835-1.348 2.835-2.427zM373.56 283.086h4.05l.81-7.282-4.86 7.282zm82.635 59.874l4.86-1.618c-1.62-.54-3.51-1.888-5.67-4.046v4.046l.81 1.618zM372.75 386.65l5.67-4.045c-3.24 0-5.94.81-8.1 2.427l2.43 1.618zm315.147-219.267l1.62-1.619-.81-3.236-5.671 2.427 4.86 2.428zm-61.571 161.82l.81 2.428h3.24c-.54-1.079-.945-2.023-1.215-2.832-.27-.809-.675-1.753-1.215-2.832l-1.62 3.237zm-64.812 110.849l6.481-3.237-5.67-.809-.811 4.046zM298.216 194.084l2.43 1.618 1.62 2.428.81-4.855-1.62-.81-3.24 1.62zm55.9 63.92l.81 2.427 2.43 2.427.81-4.854-2.43-.81-1.62.81zm-4.86-110.039c2.16-1.079 3.24-2.697 3.24-4.855h-.81l-4.051 2.428 1.62 2.427zm184.713 292.897l1.62-.81v-5.663l-3.24 3.236 1.62 3.237zM328.19 235.349l.81 1.618 8.912-8.9-9.722 7.282zm372.668 42.073l3.24-1.618-1.62-2.427-3.24 1.618 1.62 2.427zm-112.61-29.128l4.05 4.046v-4.046l-1.62 1.618v-3.236l-2.43 1.618zm-64.812 126.22l4.05 2.428.81-1.618-1.62-4.046-3.24 3.237zm-184.714-144.02c0 2.157 1.89 3.776 5.671 4.855 0-2.158-1.89-3.776-5.67-4.855zm216.31 144.02l2.43 2.428 1.62-2.427-.81-1.618-2.43-1.619-.81 3.237zm12.962-18.609l1.62 2.428 2.43 1.618.811-1.618-1.62-1.618-.81-2.428-2.43 1.618zm131.244-107.61l1.62-4.046-1.62-1.619-3.24 2.428 3.24 3.236zm-29.975 63.11l2.43 4.045 1.62-4.045-2.43-1.619-1.62 1.619zm-285.172-29.937l6.48 1.618-.81-4.046-5.67 2.428zm333.78-81.72c-3.24 0-4.86 1.348-4.86 4.045h4.86v-4.045zM503.993 440.053c2.16-2.158 3.241-4.855 3.241-8.092l-4.86 6.473 1.62 1.619zm179.043-168.295c-1.08.54-2.025 1.349-2.836 2.428a21.251 21.251 0 0 0-2.025 3.236h3.24l1.621-5.664zM595.54 391.506l6.481-2.427-1.62-1.618-4.86 4.045zm-55.9-224.122c0 2.697 1.89 4.045 5.671 4.045 0-1.079-.675-1.888-2.025-2.427a48.32 48.32 0 0 1-3.646-1.618zm108.56-28.32l2.43.81 4.05-6.473-6.48 5.664zm-67.243 237.878l1.62-.809-2.43-5.664-1.62 2.428 2.43 4.045zm-83.445 77.674c1.08 2.697 2.7 4.316 4.861 4.855-1.08-3.236-2.7-5.124-4.86-5.664v.81zm110.18-50.164l2.43 1.618 1.621-2.427-1.62-2.428-2.43 2.428v.809zm-27.545-254.869l2.43 4.046 1.621-4.046-1.62.81v-2.428l-2.43 1.618zm-67.242 223.314l3.24 2.427.81-3.236-1.62-1.619-2.43 2.428zm221.17-178.813l4.051 3.236-2.43-4.854-1.62 1.618zm-134.484 135.12h3.24a15.798 15.798 0 0 1-1.215-3.236c-.27-1.078-.945-2.157-2.025-3.236v6.473zm6.481-133.502l8.101-3.236h-6.48l-1.621 3.236zM377.61 118.028l4.861-2.427-4.05-1.619-.81 1.619v2.427zm123.143 367.335c-1.08.539-2.16 1.348-3.24 2.427l.81 1.618 3.24-1.618-.81-2.427zm-29.976-299.37l4.861-3.236-1.62-1.619-4.05 1.619.81 3.236zm-32.405 88.193l3.24-3.237-2.43-4.854-.81 8.09zm53.47 194.994l-1.621 3.237v1.618l2.43 1.618.81-1.618-1.62-4.855zm169.32-156.966c-1.62 0-3.51 1.078-5.671 3.236l2.43.81 3.241-4.046zm-261.678-19.419l-.81-4.855-3.24 2.428 4.05 2.427zm147.447-33.982l3.24-1.619-8.91-.809 5.67 2.428zm-39.697 72.82c2.16 0 3.24-1.35 3.24-4.046l-3.24-1.619v5.664zm-3.24-14.565c-1.08 0-1.756.54-2.026 1.619a13.283 13.283 0 0 0-.405 3.236l4.05.809-1.62-5.664zm-46.99-68.774c2.161 3.237 4.322 4.855 6.482 4.855v-.81c-1.08-1.078-2.16-1.887-3.24-2.427l-3.241-1.618zm98.029 45.31c-1.08 1.079-1.89 2.158-2.43 3.237l2.43 1.618.81-1.618-.81-3.237zm93.977 81.72c0-.54-.54-1.888-1.62-4.046l-2.43 1.619 2.43 1.618v2.427l1.62-1.618zm-244.665-271.86c0 3.237 1.35 4.855 4.051 4.855-.54-1.08-1.89-2.697-4.05-4.855zm7.292 268.624h3.24v-4.046h-3.24v4.046zm264.108-222.505c-1.08 1.079-1.89 2.158-2.43 3.237h4.05l-1.62-3.237zm-52.66 35.6l4.05-2.426h-6.48l2.43 2.427zm-4.05 30.747l4.05-4.046h-4.86l.81 4.046zm-315.148 64.728l1.62-.809-1.62-2.427-.81 1.618 3.24 4.046 1.62-1.618-2.43-1.619-1.62 1.619v-.81zm303.805 39.647l2.43 3.236 2.431-1.618-1.62-1.618-.81.809-.81-2.427-1.62 1.618zm-277.88-79.293c-1.62 0-2.566.405-2.836 1.214-.27.809-.675 1.753-1.215 2.832l.81.809c2.16-1.079 3.24-2.697 3.24-4.855zm357.275-37.219l-2.43-4.045-3.241 2.427 5.67 1.618zm-303.805 71.202a14.455 14.455 0 0 0 4.05-4.046h-4.05v4.046zm191.194 21.846l1.62 1.618 2.431-1.618-2.43-2.428-1.62 2.428zm55.09-162.63l1.62 3.236 1.62-4.855-3.24 1.618zm-60.76 54.21h-.81l2.43 1.618 4.05-4.046-5.67 2.427zM541.26 316.258l2.43 2.428.81-1.619-2.43-3.236-.81 2.427zm64.812-33.173c-1.62 1.618-2.43 3.236-2.43 4.854h4.05l-1.62-4.854zm-164.46 75.247c-1.08.54-2.16 1.888-3.24 4.045l1.62.81 1.62-4.855zm168.51-75.247l1.621 1.618 2.43-4.046-1.62-.809-2.43 3.237zm-198.485-59.874l2.43.809 1.62-1.618-.81-2.428-3.24 3.237zm256.006 38.837h1.62l-1.62-4.045-3.24 2.427 3.24 1.618zm-188.764 55.02c-1.08 1.078-1.89 2.157-2.43 3.236l2.43 1.618.81-1.618-.81-3.237zm99.648-95.475c0 2.157 1.35 3.236 4.05 3.236h1.621c-.54-2.158-2.43-3.236-5.671-3.236zm-139.345-40.456l2.43 4.855.81-1.618-.81-4.855-2.43 1.618zM539.64 393.124c-2.7 0-4.05 1.349-4.05 4.046l4.05-2.427 1.62.809-1.62-2.428zm119.902-217.65l1.62 1.619 2.43-1.618-1.62-2.428-2.43 2.428zm-42.938 4.855l1.62.81 2.43-1.619-1.62-2.427-2.43 3.236zM592.3 414.97l-1.62-4.854-2.431 1.618 4.05 3.236zm-174.992 0c-2.16 0-3.24.81-3.24 2.428h4.05l-.81-2.428zm230.082-73.628l5.67-4.046-2.43-2.427-3.24 6.473zm-63.192-137.549h2.43l.81-9.709-3.24 9.71zm-119.902-43.691c-1.62 0-2.43.539-2.43 1.618 0 1.079-.27 2.157-.81 3.236l5.67-4.854h-2.43zm-169.32-8.9l.81 2.427 2.43-2.428-.81-1.618-2.43 1.618zm109.37 89.81l.81 1.618 2.43-1.618-.81-2.427-2.43 2.427zm147.446-85.765l1.62 2.427 2.43-2.427-.81-1.618-3.24 1.618zm30.786 262.15l1.62.81 1.62 2.427.81-2.427-2.43-3.237-1.62 2.428zm76.964-82.528l1.62 2.427 2.43-2.427-1.62-1.619-2.43 1.619zm-294.894-23.464c0 3.236.81 5.124 2.43 5.663v-5.663h-2.43zm16.203 21.845h2.43l.81-4.045h-3.24v4.045zm17.823-36.41c0 2.158 1.08 3.507 3.24 4.046l.811-3.236-4.05-.81zm21.874 29.128l.81 1.619 2.43-4.046-.81-.809-2.43 3.236zm200.917-125.411l1.62 1.618 1.62-2.427-.81-2.428-2.43 3.237zm-186.334-.81c0 2.158 1.08 3.237 3.24 3.237v-2.427l-3.24-.81zm-67.242 78.484l2.43 3.237 1.62-1.619-.81-1.618-.81.81-1.62-1.619-.81.81zm282.741-86.574c0-1.08.135-2.428.405-4.046.27-1.618.945-2.697 2.026-3.236l-4.051 2.427 1.62 4.855zM535.59 377.75c0 1.619.81 2.428 2.43 2.428v-4.046l-2.43 1.618zM385.711 275.804l3.24 1.618v-4.045l-3.24 2.427zm-4.86-157.776l4.86 2.427-1.62-4.854-3.24 2.427zm24.303 1.618l2.43 1.618 1.621-3.236-.81-.81-3.24 2.428zm160.41 163.44c-1.08 1.079-1.756 1.888-2.026 2.427-.27.54-.945 1.349-2.025 2.427h3.24l.81-4.854zm130.433-117.32l1.62 3.236 1.621-1.618-1.62-2.428-1.62.81zm-192.005 306.65c-1.08 1.08-1.89 1.754-2.43 2.024-.54.27-.81.944-.81 2.022l4.05-.809-.81-3.236zm74.534-88.192l2.43 2.427 1.62-3.236-.81-.809-3.24 1.618zm-105.32 45.31c.541 1.079.946 1.753 1.216 2.023.27.27.675.944 1.215 2.023l.81-2.428-1.62-4.045-1.62 2.427zm12.963 55.829l1.62 2.427 1.62-2.427-1.62-1.619-1.62 1.619zM385.712 120.455l1.62 2.428 1.62-2.428-1.62-1.618-1.62 1.618zm191.195 0l1.62 2.428 1.62-2.428-1.62-1.618-1.62 1.618zm30.785 62.302l3.24 3.236 1.621-1.618-.81-1.618-.81.809-.81-1.619-2.43.81zm-165.27 47.737l3.24-5.664-5.67 3.237 2.43 2.427zm115.851 12.136l5.671-2.427-5.67-.809v3.236zm-16.203 5.664l2.43 2.428v-4.046l-2.43 1.618zm-94.787 127.03h4.05l-.81-3.236-3.24 3.236zm-96.407-139.166l1.62 1.618 1.62-1.618-1.62-2.428-1.62 2.428zm212.258-62.302l4.05-.809-4.05-3.236v4.045zm-161.22 65.538l2.431-.81-3.24-4.045-.81 1.619 1.62 3.236zm204.158 190.95l1.62-1.619c0-2.158-.81-3.506-2.43-4.045v.809l.81 4.854zm-69.673 17.8l1.62 1.618 1.62-1.618-.81-2.428-2.43 2.428zm136.915-172.34l2.43 1.618v-4.045l-2.43 2.427zm-77.774 35.6l.81 2.428 2.43-2.427-2.43-1.619-.81 1.619zm8.102 94.666l1.62.81 2.43-1.62-1.62-2.426-2.43 3.236zM426.219 114.792l1.62 2.427 1.62-2.427v-1.619l-3.24 1.619zm55.09 311.506l2.43 3.236c0-.54.136-.944.406-1.214s.405-.674.405-1.213v-1.618l-3.24.809zm29.166-236.26l2.43 1.619 1.62-1.618-1.62-1.619-2.43 1.619zm136.915 47.738c0-1.618-.406-2.832-1.216-3.641l-2.835-2.832v1.618l4.05 4.855zm-194.436 180.43l.81-4.854-3.24 3.236 2.43 1.619zm65.622 31.556l3.24 1.618v-4.045l-3.24 2.427zm46.179-34.792l2.43 2.428v-4.046l-2.43 1.618zm-34.027-83.338l2.43-4.045c-1.08.54-2.16 1.348-3.24 2.427l.81 1.618zM646.58 199.748c-1.62.54-2.7 1.618-3.24 3.236l1.62.81 2.43-3.237-.81-.81zM541.26 156.056c.54-.54 1.08-.944 1.62-1.214s1.08-.674 1.62-1.213h-4.86l1.62 2.427zm137.725 72.82l2.43 1.618v-5.664l-2.43 4.046zM538.83 296.84l.81 1.618 1.62-1.618-1.62-3.237-.81 3.237zm177.422-116.512l1.62 2.428 1.62-2.428-.81-1.618-2.43 1.618zM584.198 346.196l1.62 1.618v-4.854l-1.62 3.236zm37.267-30.746l1.62 1.618v-4.854l-1.62 3.236zm0-52.592l1.62 1.618 1.62-1.618-.81-2.427-2.43 2.427zm-141.776 108.42l5.671-2.427-.81-3.236-4.861 5.663zm-4.05-211.176l4.05 1.618-1.62-4.046-2.43 2.428zm215.498 54.21h3.241l.81-2.428-2.43-1.618-1.62 4.046zm-379.148-1.618c-1.62 0-3.511 1.078-5.671 3.236l.81.81c1.62 0 3.24-1.35 4.86-4.046zm216.309 188.521l2.43 1.619 1.62-2.428-1.62-1.618-2.43 2.427zM701.669 162.53l2.43 3.236v-4.854l-2.43 1.618zm-76.153-4.855l.81 2.428 1.62-2.428-.81-2.427-1.62 2.427zm-85.876 199.04c-1.08 1.08-2.025 1.888-2.836 2.428-.81.54-1.215 1.618-1.215 3.236 2.7-1.079 4.05-2.966 4.05-5.663zm44.558-233.831l2.43 2.427 1.62-2.427-.81-1.619-3.24 1.619zm36.457 179.621l.81 1.619 2.43-1.619-2.43-2.427-.81 2.427zm22.684 50.974l1.62.81 2.43-3.237h-.81l-3.24 2.427zM507.234 482.935l5.671-4.045h-4.86l-.811 4.045zM380.851 173.856l3.24 1.619.81-5.664-4.05 4.045zm262.488 109.23l1.62 1.618 1.62-1.618-1.62-2.428-1.62 2.428zm-96.408 97.093h2.43v-4.046h-2.43v4.046zM409.206 219.166c-1.08 1.08-1.89 2.158-2.43 3.237l1.62.809 1.62-1.618-.81-2.428zm237.373 52.592l.81 2.428 1.62-.81c0-1.618-.27-2.966-.81-4.045l-1.62 2.427zm-157.168 117.32l2.43 2.428c0-2.697-.54-4.315-1.62-4.855l-.81 2.428zM342.774 333.25l1.62-.809-1.62-2.427-1.62 1.618 3.24 4.046v-3.237.81l-1.62 1.618v-1.619zm196.866-44.5l1.62 2.427 2.43-.81-1.62-1.617-.81.809v-2.428l-1.62 1.619zM380.85 358.333l2.43 2.427.81-4.045-3.24 1.618zm331.35-136.74l5.671-1.618-1.62-3.236-4.05 4.855zM533.16 305.742l2.43.809v-4.046l-2.43 3.237zm-63.192 99.52l.81 1.618 2.43-3.236-.81-.81-2.43 2.428zm87.496-39.646l1.62 2.427 1.62-2.427-1.62-1.619-1.62 1.619zM455.385 210.266l-1.62-4.045-2.431 1.618 4.05 2.427zm63.191 124.603l2.43 2.427v-4.046l-2.43 1.619zm8.102-14.564c2.16-1.08 3.51-2.158 4.05-3.237l-3.24-.809-.81 4.046zM345.205 162.529l.81 3.236 2.43-3.236-.81-.81-2.43.81zm102.078 221.695l1.62 2.427.81-4.854-2.43 2.427zM427.84 264.476l2.43 1.619 1.62-1.619-1.62-1.618-2.43 1.618zm-38.887-12.136v-5.664l-3.241 4.046 3.24 1.618zm249.525-27.51l3.24-2.427-1.62-3.237-1.62 5.664zm19.443 141.594c2.16 2.157 4.051 3.236 5.671 3.236-1.08-1.079-1.89-2.023-2.43-2.832-.54-.809-1.62-1.213-3.24-1.213v.809zM423.79 205.412l3.24 3.236c0-2.158-.27-3.776-.81-4.855l-2.43 1.619zm-13.773 126.22c2.16 0 3.511-.54 4.051-1.618l-2.43-1.618-1.62 3.236zm157.98 13.755l2.43 2.427-.81-4.854-1.62 2.427zm-57.521 144.021l2.43 1.618 1.62-1.618-1.62-1.618-2.43 1.618zm-17.824-97.902l2.43 1.618.811-4.045-3.24 2.427zm179.043-91.429h4.05l-.81-2.427-3.24 2.427zm-366.187-8.9l1.62 1.618 2.431 7.282-1.62-10.518-2.43 1.618zm19.444-74.438l1.62.81 2.43-1.62-2.43-1.617-1.62 2.427zm260.867 188.522l1.62 1.618 1.62-3.236-.81-.81-2.43 2.428zm-74.533 64.728l1.62-4.854-3.24 2.427 1.62 2.427zM305.507 270.95l1.62.81 2.431-2.428-1.62-.81-2.43 2.428zm72.914 76.056c1.08 2.697 2.43 4.046 4.05 4.046a14.455 14.455 0 0 0-4.05-4.046zm311.906-42.882l2.43 1.618v-3.237l-2.43 1.619zM592.3 398.788c-1.08 0-1.62.81-1.62 2.427 0 1.08.54 1.619 1.62 1.619l.81-1.619-.81-2.427zm61.57-18.61l-3.24 1.619 2.43 1.618 1.62-3.236h-.81zm-58.33-140.784c-1.08 1.079-1.89 2.158-2.43 3.236l.81 1.619 1.62-4.855zM425.41 427.107l.81 2.427 1.62-.809-.81-3.236-1.62 1.618zm-2.431-92.238l2.43 2.427c0-2.697-.54-4.315-1.62-4.855l-.81 2.428zm213.879 67.965l1.62 2.427 1.62-2.427-1.62-1.619-1.62 1.619zm-112.61 109.229l.81-4.855h-.81l-2.431 1.619 2.43 3.236zm49.418-81.72l.81-.809-1.62-2.427-.81 2.427 1.62.81-.81 1.617 2.43-1.618h-1.62zM375.18 262.05l1.62 1.618c0-.54.135-1.079.405-1.618.27-.54.405-1.079.405-1.618v-1.618l-2.43 3.236zm225.221 109.23l1.62 3.236 1.62-4.046-.81-.809-2.43 1.618zm7.291-38.029c-1.62 0-2.43.81-2.43 2.428l.81 1.618c1.08 0 1.62-.54 1.62-1.618v-2.428zm124.763-132.693l.81 1.618 2.43-2.427-1.62-1.618-1.62 2.427zM431.89 185.993l3.24 14.564c0-5.934-1.08-10.788-3.24-14.564zM367.89 306.55l.81 1.618 1.62-1.618c0-1.618-.54-2.427-1.62-2.427l-.81 2.427zm102.078 50.165c-1.62 0-2.43.539-2.43 1.618l2.43 1.618.81-1.618-.81-1.618zm45.369 98.71l1.62 1.619 1.62-2.428-.81-1.618-2.43 2.428zM700.859 198.13l.81 1.618 2.43-1.618-1.62-1.619-1.62 1.619zM375.18 122.883l1.62 2.427.81-2.427-.81-2.428-1.62 2.428zm245.475 27.51c0 3.236.27 5.663.81 7.281l1.62-6.473-2.43-.809zm37.266 186.903l1.62 3.236c1.08 0 1.621-.809 1.621-2.427l-1.62-.809h-1.62zm33.216-9.71l1.62 1.619 1.621-1.618-.81-1.619-2.43 1.619zM350.876 316.26c-2.16 0-3.241 1.349-3.241 4.046l4.86-4.046h-1.62zm72.103-6.473l3.24-2.427-3.24-1.618v4.045zm19.443-131.075l1.62 1.618.81-4.854-2.43 3.236zm185.524-1.618c1.62 1.618 3.24 2.427 4.86 2.427v-.809l-4.86-1.618zm-23.494 164.249l1.62 1.618 1.62-1.618-1.62-1.619-1.62 1.619zM341.964 260.43l2.43 2.427v-4.045l-2.43 1.618zm81.015-27.51c-1.08 0-1.62.81-1.62 2.428v1.618l2.43-1.618-.81-2.428zm72.913 201.468l.81 1.618 1.62-4.046-.81-.809-1.62 3.237zm183.093-222.505c-1.08 0-1.755.675-2.025 2.023-.27 1.349-.405 2.562-.405 3.641l2.43-5.664zM313.61 244.25l1.62 2.427 1.62-4.046h-1.62l-1.62 1.619zm303.805-141.594l.81 2.427 2.43-1.618-1.62-1.618-1.62.809zm-127.193 76.056l1.62 1.618 1.62-1.618-.81-1.618-2.43 1.618zm-42.938 233.832l1.62 2.427 1.62-1.618-1.62-1.618-1.62.809zm-112.61-90.62c-1.62 0-2.43.54-2.43 1.618l2.43 2.427v-4.045zm289.222-30.746c0 1.618.54 2.427 1.62 2.427l.81-4.045-2.43 1.618zm-95.597 34.791l1.62 2.428v-4.855l-1.62 2.427zm147.447-12.136l1.62 2.427 1.62-2.427-.81-1.618-2.43 1.618zm-355.655-35.6l1.62 1.617 1.62-4.045-3.24 2.427zm34.026 35.6l1.62 2.427 1.62-2.427-.81-1.618-2.43 1.618zm-9.722-94.666c-1.62 0-2.43.81-2.43 2.428l.81 1.618c1.08 0 1.62-.54 1.62-1.618v-2.428zm354.845 92.239c-1.62 0-2.43.809-2.43 2.427l.81 1.618 1.62-1.618v-2.427zm-65.622 98.71l1.62 2.428v-4.046l-1.62 1.619zM437.561 207.84l1.62 1.618.81-1.618-.81-2.427-1.62 2.427zm292.464 30.746l1.62 1.618.81-1.618-.81-2.427-1.62 2.427zm-377.53 29.128c-1.62 0-2.43 1.079-2.43 3.236l2.43.81v-4.046zm144.207 63.92l1.62.808 2.43-2.427-1.62-.81-2.43 2.428zm10.532 122.174l-1.62.81 1.62 3.236 1.62-3.237-.81-.809h-.81zm110.18-45.31l3.24 2.428-1.62-4.046-1.62 1.618zm-58.33-82.529l.81 1.619 1.62-1.619-.81-2.427-1.62 2.427zm45.368-58.255l3.24.809 2.43-3.237-4.86 2.428h-.81zm-58.33-110.848c-1.081 0-1.621.81-1.621 2.427l2.43 1.619-.81-4.046zM355.735 334.87c-2.16 0-3.24.809-3.24 2.427l2.43.81.81-3.237zm294.894-97.902l1.62 2.427 1.62-1.618-.81-1.618-2.43.809zM522.627 422.252l1.62 2.428c.54-1.08.81-2.428.81-4.046l-2.43 1.618zm70.483-294.515c-1.62 1.08-2.43 2.158-2.43 3.237l1.62.809.81-4.046zm-181.473 108.42l2.43 1.619 1.62-2.427-.81-.81-3.24 1.619zM551.792 451.38l1.62 1.618c1.08 0 1.62-1.079 1.62-3.236l-3.24 1.618zm107.75-261.341l4.05 4.045.81-1.618h-3.24v-.81l-1.62-1.617zM464.296 445.716l1.62 3.237.81-4.855-2.43 1.618zm-86.686-54.21l.81 1.618 2.431-3.236-1.62-.81-1.62 2.428zm195.246-164.249c-1.08 1.08-1.62 2.428-1.62 4.046v.81l3.24-3.237-1.62-1.619zm119.902 89.002l2.43 2.428c0-2.158-.27-3.776-.81-4.855l-1.62 2.427zM460.245 455.426l1.62 2.427.81-2.427-.81-1.619-1.62 1.619zm26.735-15.373l2.43 1.618.81-3.237-3.24 1.619zm66.432-265.388l1.62 2.428c0-.54.136-.944.406-1.214s.405-.674.405-1.214v-1.618l-2.43 1.618zM449.714 388.27c-1.08 0-1.89.27-2.43.809l3.24 2.427v-3.236h-.81zm-6.482-93.048c-1.08 0-1.62.54-1.62 1.619l1.62 2.427v-4.046zm43.748 69.584l2.43 1.618c0-.54.136-.944.406-1.214s.405-.674.405-1.214v-.809l-3.24 1.619zm64.002 120.557l4.86.809v-1.619l-4.05-.809-.81 1.619zm-85.065-128.648l7.29-.81-6.48-1.618-.81 2.428zm-54.28-217.65l1.62.809 2.43-.81-1.62-1.617-2.43 1.618zm266.538 69.583c-1.62 1.618-2.43 2.697-2.43 3.236h1.62l1.62-1.618-.81-1.618zM377.61 303.313c-1.62 0-2.43.81-2.43 2.428l2.43 1.618v-4.046zm86.686-68.774l2.43 2.428v-3.237l-2.43.81zm222.79 22.655c0 2.158 1.08 3.237 3.241 3.237 0-2.158-1.08-3.237-3.24-3.237zm-79.394 117.32l2.43 1.62v-3.237l-2.43 1.618zM368.7 274.995a14.455 14.455 0 0 0 4.05-4.045h-2.43l-1.62 4.046zM324.14 145.539l1.62 2.427v-4.046l-1.62 1.619zm179.042 165.867l1.62 2.427.81-4.046-2.43 1.619zm-59.95 12.136l1.62 2.427v-4.045l-1.62 1.618zm189.574-71.201l1.62 2.427v-4.045l-1.62 1.618zm0-46.928l1.62 3.236 1.62-2.427-1.62-.81h-1.62zm-11.342-31.556l1.62 1.619 1.62-2.428-.81-.809-2.43 1.618zM657.11 378.56c-1.08 0-1.62.54-1.62 1.619l1.62 2.427.81-2.427-.81-1.619zM550.982 162.53l1.62 3.236.81-4.045-2.43.809zM316.849 305.74l1.62 1.618 1.621-1.618-.81-1.618-2.43 1.618zm319.198-53.401l.81 2.427c1.08 0 1.62-.54 1.62-1.618l-1.62-1.618-.81.809zM541.26 413.352l.81 1.618c1.08 0 1.62-.54 1.62-1.618l-1.62-1.618-.81 1.618zm44.558 18.61l4.861-2.428h-4.05l-.81 2.427zm29.166-28.32l.81 4.855 1.62-1.618-1.62-4.045-.81.809zm58.33-242.731c3.24 0 5.671-.27 7.292-.81l-3.241-.809-4.05 1.619zm34.837 13.754l2.43 2.428v-4.046l-2.43 1.618zm-318.388 209.56l1.62 2.426v-4.045l-1.62 1.618zm12.962-61.493l1.62 1.618v-4.045l-1.62 2.427zm160.41 104.375l1.62 2.427.81-.809-.81-2.427-1.62.809zm-274.64-182.05l.81-4.854-3.241 2.427 2.43 2.428zm317.577-20.227v-3.236c-1.62 0-2.7.54-3.24 1.618l3.24 1.618zm-98.838 58.256l.81 1.618 1.62-1.618-.81-2.428-1.62 2.428zm205.777-33.174c-2.7 0-4.05.81-4.05 2.428 2.7 0 4.05-.81 4.05-2.428zM593.11 126.12l.81 1.618 1.62-1.618-1.62-1.618-.81 1.618zM716.252 242.63c-1.62 0-2.43.54-2.43 1.619l2.43 1.618v-3.237zm-228.461 89.002l2.43-1.618-3.24-2.427.81 4.045zm-3.241 135.93c1.08 1.079 2.16 1.618 3.24 1.618l-1.62-4.045-1.62 2.427zm226.031-262.15c-2.16 0-3.24.809-3.24 2.427l1.62.809 1.62-3.236zm-69.673 130.266c0 1.079.54 1.618 1.62 1.618l.81-1.618-.81-1.618-1.62 1.618zM596.35 139.874l2.43.809v-2.427l-2.43 1.618zm85.066 20.228l3.24 2.427.81-1.618-1.62-.81h-2.43zm-60.761 214.413c-1.08 0-1.89.27-2.43.809.54.54.944.81 1.214.81s.676.269 1.216.808v-2.427zm-234.943-18.61h1.62v-3.236l-1.62-1.618v4.854zm298.134-207.94v-4.046l-3.24 1.619 3.24 2.427zM528.298 378.56h4.05v-1.618h-4.05v1.618zm102.078-147.257l.81-4.046h-3.24l2.43 4.046zM422.98 427.107l2.43-3.237-1.62-3.236-.81 6.473zm197.676-93.857l.81 1.619 1.62-1.619-1.62-1.618-.81 1.618zm-271.4 17.8c-1.08 0-1.62.54-1.62 1.619l1.62 1.618v-3.236zM644.96 186.803c-3.24 0-4.86 1.618-4.86 4.855l4.86-4.855zm-46.988 16.991c-1.08.54-1.89.81-2.43.81-.541 0-1.351.539-2.431 1.618h3.24l1.62-2.428zM490.22 436.816l1.62 1.618v-3.236l-1.62 1.618zm92.357-95.474l1.62.809v-4.855l-1.62 4.046zm8.101-103.566l1.62 1.618v-3.236l-1.62 1.618zM436.751 393.124l1.62 1.619.81-1.619-.81-1.618-1.62 1.618zm277.07-266.196l2.431 1.618v-3.236l-2.43 1.618zm-306.235 14.564l1.62 1.618.81-1.618-.81-1.618-1.62 1.618zm105.32 235.45l1.62 1.618v-3.236l-1.62 1.618zM657.11 274.186l.81 1.618.81-1.618-.81-3.237-.81 3.237zm64.812-114.894l.81.81 1.62-3.237-.81-.809-1.62 3.236zM418.118 287.94c-1.62 0-2.43.81-2.43 2.428l1.62.809.81-3.237zm-59.951-156.157l1.62 1.618v-3.236l-1.62 1.618zm-12.962 88.192l.81 2.428c1.08 0 1.62-.81 1.62-2.428l-1.62-.809-.81.81zm106.129 146.449v3.236l1.62-1.618v-2.427l-1.62.809zm170.13-127.03l1.621 1.618v-3.236l-1.62 1.618zm-307.855-26.7c0 1.078.54 1.618 1.62 1.618h1.62l-1.62-2.428-1.62.81zm225.22-8.9l.81 1.618c1.081 0 1.621-1.08 1.621-3.237l-2.43 1.618zm-111.8 95.474l2.43.81.811-2.428-3.24 1.618zm83.446 131.884c0 1.619.81 2.428 2.43 2.428v-3.237l-2.43.81zm-80.205-80.101c0 1.618.54 2.697 1.62 3.236l.81-1.618-.81-1.618h-1.62zm-84.255-62.301l1.62 1.618.81-1.618v-1.619l-2.43 1.619zm-42.938-21.037l.81 1.618 1.62-1.618-1.62-1.618-.81 1.618zm354.844 16.991v.81l3.241-.81-2.43-1.618-.81 1.618zm-346.743-36.41c-1.62 1.618-2.7 2.967-3.24 4.046l4.05-2.428-.81-1.618zm301.375 63.11l1.62 2.428.81-1.618-.81-1.619-1.62.81zm-245.474 36.41c-1.62 0-2.43.81-2.43 2.428l1.62.809c0-.54.134-.944.404-1.214s.406-.674.406-1.214v-.809zm101.268-81.72c0 1.619.81 2.428 2.43 2.428l1.62-2.427h-4.05zm104.509 105.184l1.62 3.237v-4.046l-1.62.81zm-119.092 58.256h2.43l-.81-2.427-1.62 2.427zm-95.597-237.068l1.62 1.618.81-3.236-2.43 1.618zm85.065-63.92l1.62 3.237.81-1.618-.81-1.619h-1.62zm18.634 262.96l1.62 3.237.81-1.619-.81-1.618h-1.62zM360.597 271.758c-1.62 1.619-2.7 3.506-3.24 5.664l3.24-3.236v-2.428zm-22.684-21.846h2.43l-1.62-3.236-.81 3.236zm224.411-26.7l.81 1.618 2.43-.809-1.62-1.618-1.62.809zm0 225.74v2.428l1.62-3.236-1.62.809zm-120.712-92.237h2.43v-2.428h-2.43v2.428zm-71.293-99.52l1.62.809v-3.237l-1.62 2.427zm78.584 54.21l.81 2.427 1.62-2.427-.81-.81-1.62.81zm189.575-139.167h2.43v-2.427h-2.43v2.427zm-246.285 190.14h2.43v-2.427h-2.43v2.427zm6.481-211.177h-6.48c.54 0 2.024.27 4.455.81 2.43.539 2.835 1.078 1.215 1.618l.81-2.428zm-42.938 194.995l1.62 2.427v-3.236l-1.62.81zm214.69-123.793l1.62 2.427v-3.236l-1.62.809zm-78.585-8.091h.81l2.43-1.618-1.62-.81-1.62 2.428zm-37.267-29.937l1.62 1.618.81-3.236-2.43 1.618zm133.675 24.273v3.236l2.43-2.427-2.43-.809zM393.003 352.669l3.24-4.046-4.05 2.428.81 1.618zm125.573-169.912l2.43 1.618v-2.428l-2.43.81zm-2.43 195.803c-2.16 0-3.24.54-3.24 1.619l1.62 1.618 1.62-3.237zM649.01 143.92l-1.62 1.618 1.62.809 1.62-.81-1.62-1.618zm-2.43 234.64l.81 1.619 1.62-1.619-1.62-1.618-.81 1.618zm-226.032 8.9l.81 1.619 2.43-1.618-.81-.81-2.43.81zm-8.911-139.166c-1.08 0-1.62.54-1.62 1.618v2.428c1.08 0 1.62-.54 1.62-1.618v-2.428zm64.001 171.53l3.24 2.428-.81-4.045-2.43 1.618zm172.562-90.62c0 .54-.135.945-.405 1.215-.27.27-.405.674-.405 1.213v1.618l1.62-1.618-.81-2.427zm-61.572-92.237l1.62 1.618v-3.236l-1.62 1.618zm-85.065 269.432l1.62 1.619v-3.237l-1.62 1.618zm25.925-207.94l.81 1.618 1.62-2.427v-.81l-2.43 1.619zm95.597-46.928l1.62 1.618v-3.237l-1.62 1.619zm17.823-53.401l1.62 1.618v-3.237l-1.62 1.619zm-346.743 50.164h4.051c-.54-1.079-1.89-1.618-4.05-1.618v1.618zM484.55 440.053l.81.809 1.62-2.428-.81-.809-1.62 2.428zm215.5-155.349h2.43v-3.236l-2.43 3.236zM492.65 440.053l2.43 2.427.811-2.427h-3.24zM313.61 303.313l1.62 1.619v-4.046l-1.62 2.427zm377.528-51.782l2.43-.81-2.43-2.427-.81 1.618.81 1.619zM562.324 360.76h3.24v-1.62h-3.24v1.62zM422.98 109.127l-1.62 1.618v1.618l2.43-1.618-.81-1.618zm-31.596 199.04l1.62-.809-1.62-2.427-1.62 1.618 1.62 1.618zm53.47-175.576l.81 4.045 1.62-4.854-2.43.809zm-111.8 154.54l1.62 1.618.81-3.237-2.43 1.618zM569.614 397.17l-1.62 2.427.81.81 1.62-1.619-.81-1.618zm-160.409-76.865c-1.08 0-1.62.54-1.62 1.618l1.62.809.81-.81-.81-1.617zm92.357-108.42l.81 2.427 1.62-1.618-.81-.81h-1.62zM707.34 198.13c-2.16 0-3.24.539-3.24 1.618l1.62.809 1.62-2.427zM449.714 352.669l1.62 1.618v-4.045l-1.62 2.427zm-9.722-154.54l1.62 2.428v-3.237l-1.62.81zm-20.254 97.093l1.62 3.237v-4.046l-1.62.81zm184.714-134.311l-1.62.809 1.62 1.618 1.62-1.618-1.62-.81zM395.434 312.214l1.62 1.618.81-1.618-.81-.81-1.62.81zm282.741-4.046c-1.08 2.158-1.62 3.506-1.62 4.046l2.43-1.619-.81-2.427zm-82.635 109.23c-.54.539-.945.809-1.215.809-.27 0-.675.27-1.215.809l.81.809 1.62-1.618v-.81zM549.362 242.63l.81 1.619.81-1.619-.81-2.427-.81 2.427zm-21.874 220.078c.54.539.81 1.213.81 2.022 0 .81.54 1.214 1.62 1.214v-2.427l-2.43-.81zM647.39 386.65l1.62-2.427h-4.05l2.43 2.427zm-86.686-33.173l2.43-2.427h-4.05l1.62 2.427zM362.218 202.175l2.43-2.427h-4.05l1.62 2.427zm319.198 12.137v-12.137l-2.43 12.946 2.43-.81zm-257.627 51.783h2.43l-.81-4.046-1.62 4.046zm237.373-44.501l2.43-2.428-1.62-2.427-.81 4.855zm-209.828-54.21l1.62-1.619-1.62-2.427-.81 2.427.81 1.619zM602.02 400.406l.81 2.428.81-1.619-.81-2.427-.81 1.618zm-29.165-89.001h3.24l-1.62-1.619-1.62 1.619zm-68.863 25.891c.54.54.946 1.214 1.216 2.023.27.809.945 1.213 2.025 1.213l-2.43-3.236h-.81zm20.254 160.203l4.05.81v-2.428l-4.05 1.618zm193.625-238.686l.81-4.046-2.43 2.427 1.62 1.619zM377.61 342.96h-2.43c0 .54.54 1.348 1.62 2.427l.81-.81v-1.617zm269.78-67.965v2.427h3.24l-3.24-2.427zM368.699 128.546v2.428c1.08 0 1.89-.27 2.43-.81l-2.43-1.618zm241.424 197.422c1.08.54 1.755 1.08 2.025 1.619.27.54.945 1.078 2.025 1.618l-2.43-3.237h-1.62zm-60.761-38.028l.81 1.619v-4.046l-.81 2.427zM402.725 406.07c-.54 0-1.08.135-1.62.405s-1.08.404-1.62.404l.81.81 4.05-1.619h-1.62zM648.2 150.392c-.54.54-.81 1.349-.81 2.428v.809l1.62-.81c0-1.078-.27-1.887-.81-2.427zm-358.085 12.946c0 1.618.54 2.427 1.62 2.427v-3.236l-1.62.809zm183.903-9.71l1.62 1.619V151.2l-1.62 2.428zm136.105 190.95l.81-3.236-3.24 1.618 2.43 1.618zM295.786 140.683l2.43 1.618v-2.427l-2.43.809zm353.224 99.52l-.81.81.81 1.617 1.62-1.618-1.62-.809zm-61.571 71.202l.81-4.046-2.43.81 1.62 3.236zm80.204-42.883l.81 2.427v-3.236l-.81.809zm-105.319-72.82l3.24.81-1.62-3.237-1.62 2.427zm30.786-80.91c-1.62 0-2.43.809-2.43 2.427 1.62 0 2.43-.81 2.43-2.427zm37.266 16.99l5.671-1.617h-5.67v1.618zm25.115 76.866l-1.62 3.236c1.62-1.618 2.7-2.427 3.24-2.427l-1.62-.809zm-40.507 109.23l.81 2.427.81-4.046-1.62 1.618zm103.698-143.213l-4.86 4.855a5.296 5.296 0 0 1 2.43-2.427 5.296 5.296 0 0 0 2.43-2.428zm-196.865-13.754l1.62 1.618.81-2.427-2.43.809zm64.811 279.95l1.62 1.619v-2.427l-1.62.809zm-13.772-249.204l1.62.809 12.152-1.618-11.342-.81-2.43 1.619zm84.255-49.356l4.051.81-4.05-2.428v1.618zM520.196 345.387l-1.62.81 1.62 1.617.81-.809-.81-1.618zm-3.24-19.419l1.62-2.427v-1.618l-1.62 4.045zM483.74 169.002l.81 2.427.81-1.618-.81-1.618-.81.809zm215.499 80.91l1.62 1.619v-3.237l-1.62 1.618zm-93.167 67.965l-.81.81.81 1.618 1.62-1.618-1.62-.81zM570.426 153.63c0 1.079.27 1.888.81 2.427.54-.54.81-1.348.81-2.427l-.81-.81-.81.81zm21.874 38.837l.81 3.236v-3.236h-.81zm-165.27 98.71c-2.16 0-3.241 1.08-3.241 3.237l3.24-3.236zm66.432 62.302l1.62.81 2.43-3.237h-.81l-3.24 2.427zm-133.675-27.51c0 1.08.27 1.888.81 2.428.54-.54.81-.944.81-1.214s.27-.674.81-1.214h-2.43zm218.74-137.548h2.43v-1.618h-2.43v1.618zm-9.722 109.23l2.43-.81-.81-1.618-1.62 2.428zm69.673-87.384l3.24.81-1.62-3.237-1.62 2.427zm-171.751-64.728c-.54-.54-.945-.81-1.216-.81-.27 0-.675-.27-1.215-.809 0 1.619.54 2.428 1.62 2.428l.81-.81zm224.41 134.311h2.43v-1.618h-2.43v1.618zM496.702 496.69l-.81.81 1.62 2.426.81-1.618-1.62-1.618zm-166.08-230.595l1.62 1.618.81-3.237-2.43 1.619zm93.167 142.402l1.62-3.236h-2.43l.81 3.236zm-111.8-151.303l1.62 1.619 1.62-1.619-1.62-.809-1.62.81zm355.654-155.348l1.62-1.618h-3.24l1.62 1.618zM355.736 250.722h1.62l-.81-2.428-.81 2.428zm188.765 206.322h1.62v-2.428h-1.62v2.428zM302.267 253.149l.81 1.618c.54-.54.81-1.618.81-3.236l-1.62 1.618zm62.381 46.928c-.54.54-1.08.81-1.62.81s-.81.539-.81 1.617c1.62 0 2.43-.539 2.43-1.618v-.809zm77.774 145.64c0-1.08-1.08-1.619-3.24-1.619 0 1.079.81 1.618 2.43 1.618h.81zM423.79 270.948c0-1.079-.81-1.618-2.43-1.618v1.618h2.43zm55.09 186.904l-2.43 2.427 3.24-.809-.81-1.618zm-137.725-317.98l1.62 1.62 1.62-.81-3.24-.81zm237.373 108.421l1.62 1.618 2.43-1.618h-4.05zm132.054 8.9c0 2.158.54 3.237 1.62 3.237v-1.618l-1.62-1.619zm-401.023 25.892l-1.62 2.427c.54 0 1.62-.809 3.24-2.427h-1.62zm100.458 105.993v-4.046l-1.62 1.618 1.62 2.428zM536.4 462.708h3.24l-.81-1.619-2.43 1.619zm-20.253-185.286l2.43.81v-2.428l-2.43 1.618zm34.836 196.613l.81 1.618 3.24-1.618h-4.05zm47.799-55.828l-3.24 1.618c2.16 0 3.78-.27 4.86-.81l-1.62-.808zM389.763 332.44c.54 1.619 2.16 2.428 4.86 2.428-1.08-.54-2.43-1.619-4.05-3.237l-.81.81zm226.03-227.359c-1.08 0-1.62.54-1.62 1.619l1.62.809v-2.428zm-59.95 206.323c0 1.618-.81 2.427-2.43 2.427h-.81l3.24-2.427zm-249.525-72.011c0 2.158.54 3.236 1.62 3.236 0-.539-.54-1.887-1.62-4.045v.809zm264.918 180.43c0 1.62.27 2.698.81 3.237.54-.54.81-1.348.81-2.427l-1.62-.81zM430.27 221.595c1.08 0 1.89.27 2.43.809l-.81-2.428-1.62 1.619zm-9.722-110.848c0-1.079-.27-1.618-.81-1.618s-1.08-.27-1.62-.81v.81l1.62 1.618h.81zm107.75 81.72v1.618l1.62-1.618v-.81l-1.62.81zm-21.064 182.049c0 1.079.81 1.618 2.43 1.618v-1.618h-2.43zm91.547-146.448h3.24l-1.62-.81-1.62.81zM464.296 368.042c-.54.54-.81.944-.81 1.214s-.27.674-.81 1.213l1.62.81v-3.237zm149.877 61.492l1.62.81v-4.046l-1.62 3.236zm62.382-204.704l4.05-.809-4.05-.81v1.62zM435.13 364.806c-1.08 0-2.16.539-3.24 1.618 2.16 0 3.24-.54 3.24-1.618zm29.165-111.657v3.236l1.62-1.618-1.62-1.618zm234.943-16.182c-1.08.54-1.35 2.966-.81 7.282.54 4.315.81 7.282.81 8.9v-16.182zm-281.121 9.709c0 1.079.54 1.618 1.62 1.618l.81-1.618h-2.43zm304.615 4.046h1.62l-.81-4.046-.81 4.046zm-49.419-110.848l2.43-1.618h-4.05l1.62 1.618zm-44.558 288.851v-4.045l-1.62 1.618 1.62 2.427zM318.47 268.522l1.62 2.427v-.809c0-1.079-.27-1.888-.81-2.427l-.81.809zm135.294 101.947v2.428l1.62-1.619-1.62-.809zm193.626 17.8l.81 1.619.81-3.237-1.62 1.619zm-53.47-268.623l1.62.81v-2.428l-1.62 1.618zm-152.308 5.664h1.62c-.54-.54-.81-1.349-.81-2.427l-.81 2.427zm156.359 285.615c-.54 0-1.35.54-2.43 1.618 1.62 0 2.7-.27 3.24-.81l-.81-.808zM398.674 224.02h2.43l3.241-1.618-5.67 1.618zm33.216 78.483c-1.62 0-2.43.81-2.43 2.428l3.24-2.428h-.81zm226.842-90.62h2.43l-1.62-2.427-.81 2.427zm53.47 15.373l1.62 1.619.81-.81-1.62-1.618-.81.81zM483.74 450.571l.81.809v-2.427l-.81 1.618zm-23.495-172.34c-.54 0-1.35.54-2.43 1.618 1.62 0 2.7-.27 3.24-.809l-.81-.809zm254.387-87.383l1.62 1.618v-2.427l-1.62.809zM535.589 472.417l2.43-2.428h-2.43v2.428zM352.496 302.504l2.43-2.427h-2.43v2.427zm104.509 94.666l.81-1.618-3.24-.81 2.43 2.428zm170.941-56.638v-2.427h-2.43l2.43 2.427zm-219.55-71.201l.81 1.618.81-1.618v-.81l-1.62.81zm127.193-80.91l2.43-2.428h-2.43v2.427zM696 203.792c1.08 1.08 2.16 1.619 3.24 1.619v-1.619h-3.24zM358.166 360.76h2.43l-.81-1.618-1.62 1.618zM589.059 124.5l-.81.81 2.43 1.618v-.809l-1.62-1.618zm-83.445 56.638l-.81.81h2.43l-1.62-.81zm46.178 276.715l-.81 1.618h1.62l-.81-1.618zm136.105-135.93l-2.43 2.427c.54 0 1.62-.809 3.24-2.427h-.81zm-71.293 91.429l.81.81c1.08 0 1.62-.81 1.62-2.428l-2.43 1.618zm-106.94 87.384c1.08 1.078 2.16 1.618 3.241 1.618l-1.62-1.618h-1.62zm89.117-63.92v-1.618l-3.24-.81 3.24 2.428zm-189.575-98.71v-3.237l-1.62 2.427 1.62.81zm89.927 30.745v-3.236l-1.62-.81 1.62 4.046zm177.422-45.31l1.62-1.618h-3.24l1.62 1.618zM417.308 430.343l2.43.81 1.62-.81h-4.05zm39.697-102.756h1.62v-1.619h-1.62v1.619zm-5.671 139.166l5.67.81-5.67-4.046v3.236zm187.144-200.658l3.24-1.619h-3.24v1.619zm50.229 21.036l-1.62.81.81 1.618.81-1.619v-.809zm-77.774-81.72l3.24-1.618h-3.24v1.619zm88.306 74.438c-.54 0-1.35.54-2.43 1.619l2.43-.81v-.809zm-349.984-71.201l1.62 1.618c0-1.079-.27-1.888-.81-2.427l-.81.809zm332.16 38.028c-1.62 1.079-2.43 2.427-2.43 4.046l2.43-4.046zm-326.489-38.837l.81.809c.54-.54.81-1.349.81-2.427l-1.62 1.618zm-4.05 30.746l-.81 1.618 2.43-.809-1.62-.81zm1.62 13.755c-.54 0-1.35.135-2.43.404-1.08.27-1.62.944-1.62 2.023l4.05-2.427zm100.458 157.776c-1.08 0-1.62.27-1.62.809 0 .54.54.809 1.62.809v-1.618zm-2.43-76.866l-1.62 1.619c1.08 0 1.89-.27 2.43-.81l-.81-.809zm-55.9-231.404l-1.62.809h2.43l-.81-.81zm-106.13 89.81l-.81 1.619 2.43-.81-1.62-.808zm234.943 266.197c-.54 0-.81.54-.81 1.618h1.62c0-1.079-.27-1.618-.81-1.618zm-162.84-135.93c-1.62 0-2.43.809-2.43 2.427l2.43-2.427zm140.966 78.483l.81.81 2.43-1.619-3.24.81zm-38.887-250.014v.81c0 1.078.54 1.618 1.62 1.618l-1.62-2.428zM335.483 242.63c0 3.237.27 5.664.81 7.282l-.81-7.282zm131.244-57.446c-.54 0-.81.27-.81.809 0 .54.27.81.81.81s.81-.27.81-.81-.27-.81-.81-.81zm25.114 41.264l-4.05 1.619 4.86-1.619h-.81zM357.357 342.96l.81 1.618 1.62-1.618h-2.43zm183.903-36.41c-.54.54-.945.809-1.215.809-.27 0-.675.27-1.215.81h2.43v-1.62zm-106.13 0c-1.08 0-1.62.27-1.62.809v.81c1.08 0 1.62-.27 1.62-.81v-.81zm-90.736 36.41c0 1.079.27 1.618.81 1.618s.81-.54.81-1.618h-1.62zm319.198-165.867c0 1.079.27 1.618.81 1.618s.81-.54.81-1.618h-1.62zM347.635 304.932c-1.08 0-1.62.27-1.62.809v.809c1.08 0 1.62-.27 1.62-.81v-.808zm-4.86 35.6c0 1.08.54 1.619 1.62 1.619v-1.619h-1.62zm187.143-33.982c-1.08 0-1.62.27-1.62.809v.81c1.08 0 1.62-.27 1.62-.81v-.81zm-140.155-71.201c0 .539.27 1.078.81 1.618.54 0 .81-.27.81-.81 0-.539-.27-.808-.81-.808h-.81zm145.826 47.737c-.54.54-.81.944-.81 1.213 0 .27-.27.675-.81 1.214 1.08 0 1.89-.27 2.43-.809l-.81-1.618zm-143.396-8.091h2.43v-1.618l-2.43 1.618zm169.32 69.583v-2.427h-1.62l1.62 2.427zm95.598-20.228c.54-.54 1.35-.809 2.43-.809l-1.62-1.618-.81 2.427zM316.85 262.858l1.62-2.427h-1.62v2.427zm298.945-132.693l1.62.809v-2.428l-1.62 1.619zm-19.444 152.92l3.24-2.427h-1.62l-1.62 2.428zM480.5 156.057c0-.54-.27-.81-.811-.81-.54 0-.81.27-.81.81s.27.81.81.81.81-.27.81-.81zm70.482 189.331v-2.427h-1.62l1.62 2.427zm-103.699 4.855l2.43-4.855-2.43 3.236v1.619zm238.183-69.584h2.43l-.81-1.618-1.62 1.618zm47.8-109.229h.81l-.81-2.427v2.427zM388.952 376.942v-2.427h-1.62l1.62 2.427zM546.12 145.538h1.62l-1.62-2.428v2.428zm13.773 276.714l-13.773 1.618h12.152l1.62-1.618zm-210.639-94.665l1.62.809v-2.428l-1.62 1.619zm218.74-164.249h1.62l-.81-2.427-.81 2.427zm-123.952 67.965l-.81 2.427 1.62-1.618-.81-.809zm-18.634 8.091h2.43v-1.618l-2.43 1.618zm246.285 33.983l3.24-2.428h-1.62l-1.62 2.428zm-251.956-38.028l1.62-2.428h-1.62v2.428zm273.83-58.256h1.62v-2.428l-1.62 2.428zM655.49 334.06h2.43v-1.619l-2.43 1.619zm-96.408-144.021c-1.08 0-1.62.27-1.62.809l.81.809c.54 0 .81-.54.81-1.618zm-107.75-28.32l1.621-2.427h-1.62v2.428zm111.801 84.957c0 1.079.27 1.618.81 1.618s.81-.54.81-1.618h-1.62zm68.053 118.13h-.81l2.43-1.619-1.62 1.619zm-103.7 50.164c0 1.079.27 1.888.81 2.428v-2.428h-.81zm85.066 3.237c0 1.078.54 1.618 1.62 1.618v-1.618h-1.62zm-9.722-260.533l-.81 1.618v.81l.81-.81v-1.618zm-247.905 65.538c-.54 0-.81.54-.81 1.618 1.08 0 1.62-.27 1.62-.809l-.81-.81zm65.622 106.802h-2.43v1.618l2.43-1.618zm72.103 136.74l-.81.808.81 1.618v-2.427zm-135.294-208.75v.809l-1.62 1.618 1.62-2.427zm-34.026-8.092l.81.81v-2.428l-.81 1.618zm155.548 150.494c-.54.54-.81 1.349-.81 2.428l.81-2.428zm-163.65-131.075c1.08 0 1.62-.27 1.62-.81l-1.62-.808v1.618zm358.085-140.785c1.08 0 1.62-.27 1.62-.809l-1.62-.809v1.618zM593.11 279.04c-.54.54-.81 1.08-.81 1.618h1.62l-.81-1.618zm-63.192-126.22c-1.08 0-1.89.27-2.43.809l2.43-.81zm68.053 254.868c-1.08 0-1.89.27-2.43.81l2.43-.81zm-71.293-33.173v.809l-1.62-.81h1.62zM650.63 232.112v-1.618h-1.62l1.62 1.618zM473.208 442.48l1.62.809-1.62-2.427v1.618zm84.255-308.27c-2.16 0-3.78.27-4.86.81l4.86-.81zm70.483 63.92l1.62-1.619h-1.62v1.619zm-51.04-64.729h1.621v-1.618l-1.62 1.618zM367.08 380.18h1.62l-1.62-1.619v1.619zm351.603-248.396l.81-1.618h-1.62l.81 1.618zm-222.79 37.219h.81l-.81-1.618v1.618zm-84.255 229.786v-1.618h-1.62l1.62 1.618zm26.735 43.692l1.62-.81-1.62-.808v1.618zM670.074 124.5l1.62-1.617h-1.62v1.618zM356.547 352.67h1.62l-1.62-1.618v1.618zm309.476-140.785l1.62.81-1.62-2.428v1.618zm-137.725 78.484h1.62v-1.618l-1.62 1.618zm-11.342 119.748v-1.619h-1.62l1.62 1.619zm18.633-86.575l.81.81v-2.428l-.81 1.618zm-51.04 141.594l.811-1.618-.81-.81v2.428zm98.029-314.743c-.54.54-.81 1.349-.81 2.428l.81-2.428zM346.015 251.531c-1.08 0-1.62.539-1.62 1.618 1.08 0 1.485-.135 1.215-.405s-.135-.674.405-1.213zm281.12 80.101c.54 0 .811-.27.811-.809 0-.54.27-.809.81-.809 0 1.079-.27 1.618-.81 1.618h-.81zm-226.03-11.327c-.54 0-.81.54-.81 1.618l.81-1.618zM572.856 424.68l-.81 2.427.81-1.618v-.81zm-83.445 18.609l.81.81v-2.428l-.81 1.618zm121.522-165.867c-1.08 1.079-1.62 1.888-1.62 2.427l1.62-2.427zM510.475 430.343l2.43-.809h-2.43v.81zM323.33 230.493l.81-2.426h-.81v2.427zm46.988 48.547c-1.08 0-1.62.27-1.62.81 1.08 0 1.62-.27 1.62-.81zm99.648 155.349c.54-.54.81-1.349.81-2.428l-.81 2.428zm62.382-70.393c-1.08 0-1.62.54-1.62 1.619 0-.54.54-.81 1.62-.81v-.809zM354.926 160.911c.54 0 .81-.27.81-.81h-1.62l.81.81zM615.794 297.65v1.618c.54 0 .81-.27.81-.81l-.81-.808zm-93.167 143.212h1.62l-1.62-.81v.81zm-46.989-11.328c-.54 0-.81.135-.81.405s-.27.404-.81.404l1.62-.809zm34.026-4.854c-.54.539-1.35.809-2.43.809l1.62-.81h.81zm12.153-67.965h1.62l-1.62-.81v.81zm-14.583 96.283l.81-1.618h-.81v1.618zm160.41-185.285l.81-1.618h-.81v1.618zM539.64 482.935c-.54 0-1.08.27-1.62.81 1.08 0 1.62-.27 1.62-.81zm16.203-107.611c0-.54.54-.81 1.62-.81l-1.62.81zm85.875-101.138c0 .539-.27.809-.81.809h-.81c.54 0 .81-.135.81-.405s.27-.404.81-.404zm-30.785-90.62c0 .54-.27.809-.81.809 0-.54.27-.81.81-.81zm79.394-43.692c0-.54-.27-.81-.81-.81l.81.81zm-324.059-36.41l.81-1.618-.81 2.427v-.809zm284.362 25.892c0-.54.27-.81.81-.81h-.81v.81zM536.4 438.434c0 1.08-.27 1.619-.81 1.619.54 0 .81-.54.81-1.619z" fill="#FA4480"/><path fill-opacity=".75" fill="#FFF" d="M362 211h300v140H362z"/><text fill="#4BB7AF" font-family="BrandonPrintedTwo-Shadow, Brandon Printed" font-size="130"><tspan x="382" y="330">404</tspan></text></g></svg>